G04*
G04 #@! TF.GenerationSoftware,Altium Limited,Altium Designer,21.5.1 (32)*
G04*
G04 Layer_Physical_Order=2*
G04 Layer_Color=16711680*
%FSLAX25Y25*%
%MOIN*%
G70*
G04*
G04 #@! TF.SameCoordinates,4ADBACA6-D99A-42C5-8304-42A3838A2759*
G04*
G04*
G04 #@! TF.FilePolarity,Positive*
G04*
G01*
G75*
%ADD12C,0.01000*%
%ADD67C,0.03000*%
%ADD69C,0.07874*%
%ADD70R,0.06299X0.06299*%
%ADD71C,0.06299*%
%ADD72R,0.09055X0.09055*%
%ADD73C,0.09055*%
%ADD74C,0.02400*%
G36*
X77539Y235480D02*
X57779Y215721D01*
X57558Y215390D01*
X57480Y215000D01*
Y198500D01*
X57558Y198110D01*
X57779Y197779D01*
X64279Y191279D01*
X64610Y191058D01*
X65000Y190980D01*
X68115D01*
X68537Y190559D01*
X69162Y190300D01*
X69838D01*
X70463Y190559D01*
X70941Y191037D01*
X71200Y191662D01*
Y192338D01*
X70941Y192963D01*
X70463Y193441D01*
X69838Y193700D01*
X69162D01*
X68537Y193441D01*
X68115Y193020D01*
X65422D01*
X59520Y198922D01*
Y214578D01*
X60707Y215766D01*
X61096Y215447D01*
X61058Y215390D01*
X60980Y215000D01*
Y211500D01*
X61058Y211110D01*
X61279Y210779D01*
X64800Y207258D01*
Y206662D01*
X65059Y206037D01*
X65537Y205559D01*
X66162Y205300D01*
X66838D01*
X67463Y205559D01*
X67941Y206037D01*
X68200Y206662D01*
Y207338D01*
X67941Y207963D01*
X67463Y208441D01*
X66838Y208700D01*
X66242D01*
X63020Y211922D01*
Y214578D01*
X80922Y232480D01*
X160578D01*
X166980Y226078D01*
Y200500D01*
X167058Y200110D01*
X167279Y199779D01*
X171300Y195757D01*
X171099Y195409D01*
X170850Y194481D01*
Y193519D01*
X171099Y192591D01*
X171580Y191759D01*
X172259Y191080D01*
X173091Y190599D01*
X174020Y190350D01*
X174980D01*
X175909Y190599D01*
X176741Y191080D01*
X177420Y191759D01*
X177901Y192591D01*
X178150Y193519D01*
Y194481D01*
X177901Y195409D01*
X177420Y196241D01*
X176741Y196920D01*
X175909Y197401D01*
X174980Y197650D01*
X174020D01*
X173091Y197401D01*
X172742Y197199D01*
X169020Y200922D01*
Y226500D01*
X168942Y226890D01*
X168721Y227221D01*
X162424Y233519D01*
X162615Y233980D01*
X164578D01*
X169980Y228578D01*
Y207500D01*
X170058Y207110D01*
X170279Y206779D01*
X170850Y206208D01*
Y200350D01*
X178150D01*
Y207650D01*
X172292D01*
X172020Y207922D01*
Y223778D01*
X172520Y223878D01*
X172975Y222779D01*
X173719Y221666D01*
X174666Y220719D01*
X175779Y219975D01*
X177017Y219462D01*
X178330Y219201D01*
X179670D01*
X180983Y219462D01*
X182221Y219975D01*
X183334Y220719D01*
X184281Y221666D01*
X185025Y222779D01*
X185538Y224017D01*
X185799Y225330D01*
Y226670D01*
X185624Y227549D01*
X186085Y227796D01*
X186480Y227400D01*
Y220422D01*
X179279Y213221D01*
X179058Y212890D01*
X178980Y212500D01*
Y198500D01*
X179058Y198110D01*
X179279Y197779D01*
X181300Y195757D01*
X181099Y195409D01*
X180850Y194481D01*
Y193519D01*
X181099Y192591D01*
X181580Y191759D01*
X182259Y191080D01*
X183091Y190599D01*
X184019Y190350D01*
X184980D01*
X185909Y190599D01*
X186741Y191080D01*
X187420Y191759D01*
X187901Y192591D01*
X188150Y193519D01*
Y194481D01*
X187901Y195409D01*
X187420Y196241D01*
X186741Y196920D01*
X185909Y197401D01*
X184980Y197650D01*
X184019D01*
X183091Y197401D01*
X182743Y197199D01*
X181020Y198922D01*
Y201729D01*
X181520Y201863D01*
X181580Y201759D01*
X182259Y201080D01*
X183091Y200599D01*
X184019Y200350D01*
X184980D01*
X185909Y200599D01*
X186741Y201080D01*
X187420Y201759D01*
X187901Y202591D01*
X188150Y203520D01*
Y204481D01*
X187901Y205409D01*
X187420Y206241D01*
X187085Y206577D01*
X191721Y211213D01*
X191942Y211544D01*
X191971Y211688D01*
X192471Y211638D01*
Y0D01*
X192486Y-76D01*
X192325Y-2111D01*
X191831Y-4169D01*
X191021Y-6125D01*
X189915Y-7930D01*
X188540Y-9540D01*
X186930Y-10915D01*
X185125Y-12021D01*
X183169Y-12831D01*
X181111Y-13326D01*
X179076Y-13486D01*
X179000Y-13471D01*
X50500D01*
Y24000D01*
X80000D01*
Y5091D01*
X130000Y4898D01*
Y47500D01*
X159961D01*
Y35345D01*
X158655Y34039D01*
X142000D01*
X141220Y33884D01*
X140558Y33442D01*
X140116Y32780D01*
X139961Y32000D01*
X140116Y31220D01*
X140558Y30558D01*
X141220Y30116D01*
X142000Y29961D01*
X159500D01*
X160280Y30116D01*
X160942Y30558D01*
X163442Y33058D01*
X163884Y33720D01*
X164039Y34500D01*
Y110655D01*
X173794Y120411D01*
X174020Y120350D01*
X174980D01*
X175909Y120599D01*
X176741Y121080D01*
X177420Y121759D01*
X177901Y122591D01*
X178150Y123520D01*
Y124480D01*
X177901Y125409D01*
X177420Y126241D01*
X176741Y126920D01*
X175909Y127401D01*
X174980Y127650D01*
X174020D01*
X173091Y127401D01*
X172259Y126920D01*
X171580Y126241D01*
X171099Y125409D01*
X170850Y124480D01*
Y123520D01*
X170911Y123294D01*
X160558Y112942D01*
X160500Y112855D01*
X160000Y113007D01*
Y228000D01*
X133858D01*
Y187500D01*
X119611D01*
X119404Y188000D01*
X119644Y188240D01*
X119903Y188865D01*
Y189541D01*
X119644Y190166D01*
X119166Y190644D01*
X118541Y190903D01*
X117945D01*
X116520Y192329D01*
Y206000D01*
X116442Y206390D01*
X116221Y206721D01*
X110221Y212721D01*
X109890Y212942D01*
X109500Y213020D01*
X80885D01*
X80463Y213441D01*
X79838Y213700D01*
X79162D01*
X78537Y213441D01*
X78059Y212963D01*
X77800Y212338D01*
Y211662D01*
X78059Y211037D01*
X78537Y210559D01*
X79162Y210300D01*
X79838D01*
X80463Y210559D01*
X80885Y210980D01*
X109078D01*
X114480Y205578D01*
Y191906D01*
X114558Y191516D01*
X114779Y191185D01*
X116503Y189461D01*
Y188865D01*
X116762Y188240D01*
X117002Y188000D01*
X116795Y187500D01*
X55500D01*
Y174500D01*
X124500D01*
Y113000D01*
X118611D01*
X118404Y113500D01*
X118441Y113537D01*
X118700Y114162D01*
Y114838D01*
X118441Y115463D01*
X117963Y115941D01*
X117338Y116200D01*
X116742D01*
X116020Y116922D01*
Y132000D01*
X115942Y132390D01*
X115721Y132721D01*
X110319Y138122D01*
X109989Y138344D01*
X109598Y138421D01*
X80885D01*
X80463Y138843D01*
X79838Y139102D01*
X79162D01*
X78537Y138843D01*
X78059Y138365D01*
X77800Y137740D01*
Y137063D01*
X78059Y136439D01*
X78537Y135960D01*
X79162Y135702D01*
X79838D01*
X80463Y135960D01*
X80885Y136382D01*
X109176D01*
X113980Y131578D01*
Y116500D01*
X114058Y116110D01*
X114279Y115779D01*
X115300Y114758D01*
Y114162D01*
X115559Y113537D01*
X115596Y113500D01*
X115389Y113000D01*
X72095D01*
X71904Y113462D01*
X72743Y114301D01*
X72964Y114632D01*
X73042Y115022D01*
Y132978D01*
X72964Y133368D01*
X72743Y133699D01*
X59020Y147422D01*
Y160078D01*
X62722Y163780D01*
X68895D01*
X69046Y163280D01*
X68954Y163219D01*
X63235Y157500D01*
X62639D01*
X62014Y157241D01*
X61536Y156763D01*
X61277Y156138D01*
Y155462D01*
X61536Y154837D01*
X62014Y154359D01*
X62639Y154100D01*
X63315D01*
X63940Y154359D01*
X64418Y154837D01*
X64677Y155462D01*
Y155691D01*
X64800Y155773D01*
X64958Y155738D01*
X65351Y155539D01*
X65559Y155037D01*
X66037Y154559D01*
X66662Y154300D01*
X67338D01*
X67963Y154559D01*
X68441Y155037D01*
X68700Y155662D01*
Y156338D01*
X68676Y156396D01*
X71260Y158980D01*
X120615D01*
X121037Y158559D01*
X121662Y158300D01*
X122338D01*
X122963Y158559D01*
X123441Y159037D01*
X123700Y159662D01*
Y160338D01*
X123441Y160963D01*
X122963Y161441D01*
X122338Y161700D01*
X121662D01*
X121037Y161441D01*
X120615Y161020D01*
X120133D01*
X119926Y161520D01*
X119941Y161535D01*
X120200Y162160D01*
Y162836D01*
X119941Y163461D01*
X119463Y163939D01*
X118838Y164198D01*
X118162D01*
X117537Y163939D01*
X117115Y163517D01*
X116129D01*
X115922Y164017D01*
X115941Y164037D01*
X116200Y164662D01*
Y165338D01*
X115941Y165963D01*
X115463Y166441D01*
X114838Y166700D01*
X114162D01*
X113537Y166441D01*
X113059Y165963D01*
X112999Y165820D01*
X112377D01*
X112058Y166320D01*
X112200Y166662D01*
Y167338D01*
X111941Y167963D01*
X111463Y168441D01*
X110838Y168700D01*
X110162D01*
X109537Y168441D01*
X109115Y168020D01*
X61000D01*
X60610Y167942D01*
X60279Y167721D01*
X55779Y163221D01*
X55558Y162890D01*
X55480Y162500D01*
Y146000D01*
X55558Y145610D01*
X55779Y145279D01*
X69503Y131555D01*
Y119109D01*
X69003Y118902D01*
X68963Y118941D01*
X68338Y119200D01*
X67662D01*
X67451Y119113D01*
X66715Y119849D01*
X66384Y120070D01*
X65994Y120147D01*
X65524D01*
X52020Y133652D01*
Y136331D01*
X52520Y136539D01*
X57377Y131681D01*
X57708Y131460D01*
X58098Y131382D01*
X63615D01*
X64037Y130960D01*
X64662Y130702D01*
X65338D01*
X65963Y130960D01*
X66441Y131439D01*
X66700Y132063D01*
Y132740D01*
X66441Y133364D01*
X65963Y133843D01*
X65338Y134102D01*
X64662D01*
X64037Y133843D01*
X63615Y133421D01*
X58521D01*
X54020Y137922D01*
Y222578D01*
X67422Y235980D01*
X77331D01*
X77539Y235480D01*
D02*
G37*
G36*
X0Y239471D02*
X65200D01*
X65407Y238971D01*
X50279Y223842D01*
X50058Y223512D01*
X49980Y223121D01*
Y133230D01*
X50058Y132839D01*
X50279Y132509D01*
X64381Y118407D01*
X64712Y118186D01*
X65102Y118108D01*
X65571D01*
X66300Y117379D01*
Y117162D01*
X66559Y116537D01*
X67037Y116059D01*
X67132Y116020D01*
X67032Y115520D01*
X42422D01*
X40520Y117422D01*
Y117999D01*
X40663Y118059D01*
X41141Y118537D01*
X41400Y119162D01*
Y119838D01*
X41141Y120463D01*
X40663Y120941D01*
X40038Y121200D01*
X39362D01*
X39020Y121058D01*
X38520Y121377D01*
Y144115D01*
X38941Y144537D01*
X39200Y145162D01*
Y145838D01*
X38941Y146463D01*
X38463Y146941D01*
X37838Y147200D01*
X37162D01*
X36537Y146941D01*
X36059Y146463D01*
X35800Y145838D01*
Y145162D01*
X36059Y144537D01*
X36480Y144115D01*
Y116000D01*
X36558Y115610D01*
X36779Y115279D01*
X39779Y112279D01*
X40110Y112058D01*
X40500Y111980D01*
X49000D01*
Y99000D01*
X121789D01*
X122141Y98645D01*
X121762Y63134D01*
X61272Y62784D01*
Y47500D01*
X16500D01*
Y38500D01*
X-13471D01*
Y226000D01*
X-13486Y226076D01*
X-13326Y228111D01*
X-12831Y230169D01*
X-12021Y232125D01*
X-10915Y233930D01*
X-9540Y235540D01*
X-7930Y236915D01*
X-6125Y238021D01*
X-4169Y238831D01*
X-2111Y239325D01*
X-76Y239486D01*
X0Y239471D01*
D02*
G37*
G36*
X158500Y50600D02*
X127000Y50348D01*
Y9000D01*
X84500D01*
Y27500D01*
X19500D01*
Y44204D01*
X66000D01*
Y59500D01*
X125000D01*
Y101500D01*
X54000D01*
Y109875D01*
Y111500D01*
X127000D01*
Y176500D01*
X59500D01*
Y186000D01*
X137500D01*
Y225500D01*
X158500D01*
Y50600D01*
D02*
G37*
G36*
X15000Y35667D02*
Y21467D01*
X46000D01*
Y-13471D01*
X0D01*
X-76Y-13486D01*
X-2111Y-13326D01*
X-4169Y-12831D01*
X-6125Y-12021D01*
X-7930Y-10915D01*
X-9540Y-9540D01*
X-10915Y-7930D01*
X-12021Y-6125D01*
X-12831Y-4169D01*
X-13326Y-2111D01*
X-13486Y-76D01*
X-13471Y-0D01*
Y35528D01*
X-13116Y35880D01*
X15000Y35667D01*
D02*
G37*
%LPC*%
G36*
X174980Y187650D02*
X174020D01*
X173091Y187401D01*
X172259Y186920D01*
X171580Y186241D01*
X171099Y185409D01*
X170995Y185020D01*
X167385D01*
X166963Y185441D01*
X166338Y185700D01*
X165662D01*
X165037Y185441D01*
X164559Y184963D01*
X164300Y184338D01*
Y183662D01*
X164559Y183037D01*
X165037Y182559D01*
X165662Y182300D01*
X166338D01*
X166963Y182559D01*
X167385Y182980D01*
X170995D01*
X171099Y182591D01*
X171580Y181759D01*
X172259Y181080D01*
X173091Y180599D01*
X174020Y180350D01*
X174980D01*
X175909Y180599D01*
X176741Y181080D01*
X177420Y181759D01*
X177901Y182591D01*
X178150Y183519D01*
Y184481D01*
X177901Y185409D01*
X177420Y186241D01*
X176741Y186920D01*
X175909Y187401D01*
X174980Y187650D01*
D02*
G37*
G36*
X184980D02*
X184019D01*
X183091Y187401D01*
X182259Y186920D01*
X181580Y186241D01*
X181099Y185409D01*
X180850Y184481D01*
Y183519D01*
X181099Y182591D01*
X181300Y182243D01*
X178779Y179721D01*
X178558Y179390D01*
X178480Y179000D01*
Y175178D01*
X177980Y175112D01*
X177901Y175409D01*
X177420Y176241D01*
X176741Y176920D01*
X175909Y177401D01*
X174980Y177650D01*
X174020D01*
X173091Y177401D01*
X172259Y176920D01*
X171580Y176241D01*
X171099Y175409D01*
X170850Y174480D01*
Y173520D01*
X171099Y172591D01*
X171580Y171759D01*
X172259Y171080D01*
X173091Y170599D01*
X174020Y170350D01*
X174980D01*
X175909Y170599D01*
X176741Y171080D01*
X177420Y171759D01*
X177901Y172591D01*
X177980Y172888D01*
X178480Y172822D01*
Y172500D01*
X178558Y172110D01*
X178779Y171779D01*
X182279Y168279D01*
X182610Y168058D01*
X183000Y167980D01*
X183322D01*
X183388Y167480D01*
X183091Y167401D01*
X182259Y166920D01*
X181580Y166241D01*
X181099Y165409D01*
X180850Y164480D01*
Y163520D01*
X181099Y162591D01*
X181580Y161759D01*
X182259Y161080D01*
X183091Y160599D01*
X184019Y160350D01*
X184980D01*
X185909Y160599D01*
X186741Y161080D01*
X187420Y161759D01*
X187480Y161863D01*
X187980Y161729D01*
Y156271D01*
X187480Y156137D01*
X187420Y156241D01*
X186741Y156920D01*
X185909Y157401D01*
X184980Y157650D01*
X184019D01*
X183091Y157401D01*
X182743Y157200D01*
X180221Y159721D01*
X179890Y159942D01*
X179500Y160020D01*
X175678D01*
X175612Y160520D01*
X175909Y160599D01*
X176741Y161080D01*
X177420Y161759D01*
X177901Y162591D01*
X178150Y163520D01*
Y164480D01*
X177901Y165409D01*
X177420Y166241D01*
X176741Y166920D01*
X175909Y167401D01*
X174980Y167650D01*
X174020D01*
X173091Y167401D01*
X172259Y166920D01*
X171580Y166241D01*
X171099Y165409D01*
X170850Y164480D01*
Y163520D01*
X171099Y162591D01*
X171580Y161759D01*
X172259Y161080D01*
X173091Y160599D01*
X173388Y160520D01*
X173322Y160020D01*
X172422D01*
X168824Y163618D01*
X168941Y163735D01*
X169200Y164360D01*
Y165036D01*
X168941Y165661D01*
X168463Y166139D01*
X167838Y166398D01*
X167162D01*
X166537Y166139D01*
X166059Y165661D01*
X165800Y165036D01*
Y164360D01*
X166059Y163735D01*
X166537Y163257D01*
X166762Y163164D01*
X166826Y162842D01*
X167047Y162511D01*
X171279Y158279D01*
X171610Y158058D01*
X172000Y157980D01*
X173322D01*
X173388Y157480D01*
X173091Y157401D01*
X172259Y156920D01*
X171580Y156241D01*
X171099Y155409D01*
X170850Y154481D01*
Y153519D01*
X171099Y152591D01*
X171580Y151759D01*
X172169Y151169D01*
X172043Y150669D01*
X169150D01*
X168759Y150592D01*
X168429Y150371D01*
X166279Y148221D01*
X166058Y147890D01*
X165980Y147500D01*
Y136796D01*
X166058Y136406D01*
X166279Y136075D01*
X166617Y135737D01*
Y134713D01*
X166463Y134559D01*
X166204Y133934D01*
Y133258D01*
X166463Y132633D01*
X166941Y132155D01*
X167566Y131896D01*
X168242D01*
X168867Y132155D01*
X169345Y132633D01*
X169604Y133258D01*
Y133934D01*
X169345Y134559D01*
X168867Y135037D01*
X168656Y135125D01*
Y136160D01*
X168578Y136550D01*
X168357Y136881D01*
X168020Y137218D01*
Y140869D01*
X168520Y141076D01*
X168537Y141059D01*
X169162Y140800D01*
X169838D01*
X170463Y141059D01*
X170941Y141537D01*
X171020Y141728D01*
X171576Y141764D01*
X171580Y141759D01*
X172259Y141080D01*
X173091Y140599D01*
X174020Y140350D01*
X174980D01*
X175909Y140599D01*
X176741Y141080D01*
X177420Y141759D01*
X177901Y142591D01*
X178150Y143519D01*
Y144481D01*
X177901Y145409D01*
X177420Y146241D01*
X177031Y146630D01*
X177238Y147130D01*
X189564D01*
X189954Y147208D01*
X190285Y147429D01*
X191221Y148365D01*
X191442Y148696D01*
X191520Y149086D01*
Y169500D01*
X191442Y169890D01*
X191221Y170221D01*
X188259Y173183D01*
X188090Y173296D01*
X188150Y173520D01*
Y174480D01*
X187901Y175409D01*
X187420Y176241D01*
X186741Y176920D01*
X185909Y177401D01*
X184980Y177650D01*
X184019D01*
X183091Y177401D01*
X182259Y176920D01*
X181580Y176241D01*
X181099Y175409D01*
X181020Y175112D01*
X180520Y175178D01*
Y178578D01*
X182743Y180800D01*
X183091Y180599D01*
X184019Y180350D01*
X184980D01*
X185909Y180599D01*
X186741Y181080D01*
X187420Y181759D01*
X187901Y182591D01*
X188150Y183519D01*
Y184481D01*
X187901Y185409D01*
X187420Y186241D01*
X186741Y186920D01*
X185909Y187401D01*
X184980Y187650D01*
D02*
G37*
G36*
X174980Y137650D02*
X174020D01*
X173091Y137401D01*
X172259Y136920D01*
X171580Y136241D01*
X171099Y135409D01*
X170850Y134481D01*
Y133519D01*
X171099Y132591D01*
X171580Y131759D01*
X172259Y131080D01*
X173091Y130599D01*
X174020Y130350D01*
X174980D01*
X175909Y130599D01*
X176741Y131080D01*
X177420Y131759D01*
X177901Y132591D01*
X178150Y133519D01*
Y134481D01*
X177901Y135409D01*
X177420Y136241D01*
X176741Y136920D01*
X175909Y137401D01*
X174980Y137650D01*
D02*
G37*
G36*
Y117650D02*
X174020D01*
X173091Y117401D01*
X172259Y116920D01*
X171580Y116241D01*
X171099Y115409D01*
X170850Y114480D01*
Y113520D01*
X171099Y112591D01*
X171580Y111759D01*
X172259Y111080D01*
X173091Y110599D01*
X174020Y110350D01*
X174980D01*
X175909Y110599D01*
X176741Y111080D01*
X177420Y111759D01*
X177901Y112591D01*
X178150Y113520D01*
Y114480D01*
X177901Y115409D01*
X177420Y116241D01*
X176741Y116920D01*
X175909Y117401D01*
X174980Y117650D01*
D02*
G37*
G36*
Y107650D02*
X174020D01*
X173091Y107401D01*
X172259Y106920D01*
X171580Y106241D01*
X171099Y105409D01*
X170850Y104481D01*
Y103519D01*
X171099Y102591D01*
X171580Y101759D01*
X172259Y101080D01*
X173091Y100599D01*
X174020Y100350D01*
X174980D01*
X175909Y100599D01*
X176741Y101080D01*
X177420Y101759D01*
X177901Y102591D01*
X178150Y103519D01*
Y104481D01*
X177901Y105409D01*
X177420Y106241D01*
X176741Y106920D01*
X175909Y107401D01*
X174980Y107650D01*
D02*
G37*
G36*
Y97650D02*
X174020D01*
X173091Y97401D01*
X172259Y96920D01*
X171580Y96241D01*
X171099Y95409D01*
X170850Y94481D01*
Y93520D01*
X171099Y92591D01*
X171580Y91759D01*
X172259Y91080D01*
X173091Y90599D01*
X174020Y90350D01*
X174980D01*
X175909Y90599D01*
X176741Y91080D01*
X177420Y91759D01*
X177901Y92591D01*
X178150Y93520D01*
Y94481D01*
X177901Y95409D01*
X177420Y96241D01*
X176741Y96920D01*
X175909Y97401D01*
X174980Y97650D01*
D02*
G37*
G36*
X179670Y6799D02*
X178330D01*
X177017Y6538D01*
X175779Y6025D01*
X174666Y5281D01*
X173719Y4334D01*
X172975Y3221D01*
X172462Y1983D01*
X172201Y670D01*
Y-670D01*
X172462Y-1983D01*
X172975Y-3221D01*
X173719Y-4334D01*
X174666Y-5281D01*
X175779Y-6025D01*
X177017Y-6538D01*
X178330Y-6799D01*
X179670D01*
X180983Y-6538D01*
X182221Y-6025D01*
X183334Y-5281D01*
X184281Y-4334D01*
X185025Y-3221D01*
X185538Y-1983D01*
X185799Y-670D01*
Y670D01*
X185538Y1983D01*
X185025Y3221D01*
X184379Y4188D01*
X184281Y4334D01*
X183334Y5281D01*
X182221Y6025D01*
X180983Y6538D01*
X179670Y6799D01*
D02*
G37*
G36*
X670Y232799D02*
X-670D01*
X-1983Y232538D01*
X-3221Y232025D01*
X-4334Y231281D01*
X-5281Y230334D01*
X-6025Y229221D01*
X-6538Y227983D01*
X-6799Y226670D01*
Y225330D01*
X-6538Y224017D01*
X-6025Y222779D01*
X-5281Y221666D01*
X-4334Y220719D01*
X-3221Y219975D01*
X-1983Y219462D01*
X-670Y219201D01*
X670D01*
X1983Y219462D01*
X3221Y219975D01*
X4334Y220719D01*
X5281Y221666D01*
X6025Y222779D01*
X6538Y224017D01*
X6799Y225330D01*
Y226670D01*
X6538Y227983D01*
X6025Y229221D01*
X5281Y230334D01*
X4334Y231281D01*
X3221Y232025D01*
X1983Y232538D01*
X670Y232799D01*
D02*
G37*
G36*
X37838Y221700D02*
X37162D01*
X36537Y221441D01*
X36059Y220963D01*
X35800Y220338D01*
Y219662D01*
X36059Y219037D01*
X36537Y218559D01*
X37162Y218300D01*
X37758D01*
X38480Y217578D01*
Y195631D01*
X37980Y195424D01*
X37963Y195441D01*
X37338Y195700D01*
X36662D01*
X36037Y195441D01*
X35559Y194963D01*
X35300Y194338D01*
Y193662D01*
X35559Y193037D01*
X35980Y192615D01*
Y161000D01*
X36058Y160610D01*
X36279Y160279D01*
X41611Y154947D01*
X41942Y154726D01*
X42332Y154648D01*
X42971D01*
X43059Y154437D01*
X43537Y153959D01*
X44162Y153700D01*
X44838D01*
X45463Y153959D01*
X45941Y154437D01*
X46200Y155062D01*
Y155738D01*
X45941Y156363D01*
X45781Y156523D01*
X45471Y156850D01*
X45781Y157177D01*
X45941Y157337D01*
X46200Y157962D01*
Y158638D01*
X45941Y159263D01*
X45463Y159741D01*
X44838Y160000D01*
X44162D01*
X44077Y159965D01*
X40520Y163522D01*
Y218000D01*
X40442Y218390D01*
X40221Y218721D01*
X39200Y219742D01*
Y220338D01*
X38941Y220963D01*
X38463Y221441D01*
X37838Y221700D01*
D02*
G37*
G36*
X2028Y203398D02*
X-8028D01*
Y193342D01*
X2028D01*
Y203398D01*
D02*
G37*
G36*
X-2338Y183713D02*
X-3662D01*
X-4941Y183370D01*
X-6087Y182708D01*
X-7023Y181772D01*
X-7685Y180626D01*
X-8028Y179347D01*
Y178023D01*
X-7685Y176744D01*
X-7023Y175598D01*
X-6087Y174662D01*
X-4941Y174000D01*
X-3662Y173658D01*
X-2338D01*
X-1059Y174000D01*
X87Y174662D01*
X1023Y175598D01*
X1685Y176744D01*
X2028Y178023D01*
Y179347D01*
X1685Y180626D01*
X1023Y181772D01*
X87Y182708D01*
X-1059Y183370D01*
X-2338Y183713D01*
D02*
G37*
G36*
Y164028D02*
X-3662D01*
X-4941Y163685D01*
X-6087Y163023D01*
X-7023Y162087D01*
X-7685Y160941D01*
X-8028Y159662D01*
Y158338D01*
X-7685Y157059D01*
X-7023Y155913D01*
X-6087Y154977D01*
X-4941Y154315D01*
X-3662Y153972D01*
X-2338D01*
X-1059Y154315D01*
X87Y154977D01*
X1023Y155913D01*
X1685Y157059D01*
X2028Y158338D01*
Y159662D01*
X1685Y160941D01*
X1023Y162087D01*
X87Y163023D01*
X-1059Y163685D01*
X-2338Y164028D01*
D02*
G37*
G36*
X2028Y126528D02*
X-8028D01*
Y116472D01*
X2028D01*
Y126528D01*
D02*
G37*
G36*
X-2338Y106843D02*
X-3662D01*
X-4941Y106500D01*
X-6087Y105838D01*
X-7023Y104902D01*
X-7685Y103755D01*
X-8028Y102477D01*
Y101153D01*
X-7685Y99874D01*
X-7023Y98728D01*
X-6087Y97792D01*
X-4941Y97130D01*
X-3662Y96787D01*
X-2338D01*
X-1059Y97130D01*
X87Y97792D01*
X1023Y98728D01*
X1685Y99874D01*
X2028Y101153D01*
Y102477D01*
X1685Y103755D01*
X1023Y104902D01*
X87Y105838D01*
X-1059Y106500D01*
X-2338Y106843D01*
D02*
G37*
G36*
Y87157D02*
X-3662D01*
X-4941Y86815D01*
X-6087Y86153D01*
X-7023Y85217D01*
X-7685Y84070D01*
X-8028Y82792D01*
Y81468D01*
X-7685Y80189D01*
X-7023Y79043D01*
X-6087Y78107D01*
X-4941Y77445D01*
X-3662Y77102D01*
X-2338D01*
X-1059Y77445D01*
X87Y78107D01*
X1023Y79043D01*
X1685Y80189D01*
X2028Y81468D01*
Y82792D01*
X1685Y84070D01*
X1023Y85217D01*
X87Y86153D01*
X-1059Y86815D01*
X-2338Y87157D01*
D02*
G37*
G36*
X670Y6799D02*
X-670D01*
X-1983Y6538D01*
X-3221Y6025D01*
X-4334Y5281D01*
X-5281Y4334D01*
X-6025Y3221D01*
X-6538Y1983D01*
X-6799Y670D01*
Y-670D01*
X-6538Y-1983D01*
X-6025Y-3221D01*
X-5281Y-4334D01*
X-4334Y-5281D01*
X-3221Y-6025D01*
X-1983Y-6538D01*
X-670Y-6799D01*
X670D01*
X1983Y-6538D01*
X3221Y-6025D01*
X4334Y-5281D01*
X5281Y-4334D01*
X6025Y-3221D01*
X6538Y-1983D01*
X6799Y-670D01*
Y670D01*
X6538Y1983D01*
X6025Y3221D01*
X5281Y4334D01*
X4334Y5281D01*
X3221Y6025D01*
X1983Y6538D01*
X670Y6799D01*
D02*
G37*
G36*
X37084Y1433D02*
X35916D01*
X34787Y1131D01*
X33776Y546D01*
X32950Y-280D01*
X32365Y-1291D01*
X32063Y-2420D01*
Y-3588D01*
X32365Y-4717D01*
X32950Y-5728D01*
X33776Y-6554D01*
X34787Y-7139D01*
X35916Y-7441D01*
X37084D01*
X38213Y-7139D01*
X39224Y-6554D01*
X40051Y-5728D01*
X40635Y-4717D01*
X40937Y-3588D01*
Y-2420D01*
X40635Y-1291D01*
X40051Y-280D01*
X39224Y546D01*
X38213Y1131D01*
X37084Y1433D01*
D02*
G37*
%LPD*%
D12*
X62000Y211500D02*
X66500Y207000D01*
X61000Y167000D02*
X110500D01*
X69675Y162498D02*
X118500D01*
X62300Y164800D02*
X114300D01*
X70838Y160000D02*
X122000D01*
X114300Y164800D02*
X114500Y165000D01*
X167768Y163232D02*
Y164430D01*
X167500Y164698D02*
X167768Y164430D01*
Y163232D02*
X172000Y159000D01*
X67000Y156000D02*
Y156162D01*
X70838Y160000D01*
X62977Y155800D02*
X69675Y162498D01*
X56500Y162500D02*
X61000Y167000D01*
X58000Y160500D02*
X62300Y164800D01*
X70000Y113000D02*
X72022Y115022D01*
Y132978D01*
X58000Y147000D02*
X72022Y132978D01*
X58000Y147000D02*
Y160500D01*
X109598Y137402D02*
X115000Y132000D01*
X79500Y137402D02*
X109598D01*
X67621Y117500D02*
X68000D01*
X65994Y119128D02*
X67621Y117500D01*
X37500Y116000D02*
X40500Y113000D01*
X37500Y116000D02*
Y145500D01*
X40500Y113000D02*
X70000D01*
X39500Y119300D02*
X39700Y119500D01*
X39500Y117000D02*
X42000Y114500D01*
X69000D01*
X39500Y117000D02*
Y119300D01*
X69000Y114500D02*
X70522Y116022D01*
Y131978D01*
X65102Y119128D02*
X65994D01*
X51000Y133230D02*
X65102Y119128D01*
X51000Y133230D02*
Y223121D01*
X56500Y146000D02*
X70522Y131978D01*
X166000Y184000D02*
X174500D01*
X167636Y133864D02*
X167904Y133596D01*
X167000Y136796D02*
Y147500D01*
Y136796D02*
X167636Y136160D01*
Y133864D02*
Y136160D01*
X167000Y147500D02*
X169150Y149650D01*
X169500Y142500D02*
Y146000D01*
X171650Y148150D01*
X187538Y172462D02*
X190500Y169500D01*
Y149086D02*
Y169500D01*
X189564Y148150D02*
X190500Y149086D01*
X188018Y149650D02*
X189000Y150632D01*
X187368Y169000D02*
X189000Y167368D01*
Y150632D02*
Y167368D01*
X169150Y149650D02*
X188018D01*
X161000Y233500D02*
X168000Y226500D01*
Y200500D02*
Y226500D01*
X80500Y233500D02*
X161000D01*
X168000Y200500D02*
X174500Y194000D01*
X171000Y207500D02*
X174500Y204000D01*
X171000Y207500D02*
Y229000D01*
X165000Y235000D02*
X171000Y229000D01*
X78500Y235000D02*
X165000D01*
X178323Y237000D02*
X187500Y227823D01*
X67000Y237000D02*
X178323D01*
X187500Y220000D02*
Y227823D01*
X180000Y212500D02*
X187500Y220000D01*
X191000Y211934D02*
Y229000D01*
X181500Y238500D02*
X191000Y229000D01*
X66379Y238500D02*
X181500D01*
X184500Y205434D02*
X191000Y211934D01*
X184500Y204000D02*
Y205434D01*
X62000Y215000D02*
X80500Y233500D01*
X58500Y215000D02*
X78500Y235000D01*
X180000Y198500D02*
X184500Y194000D01*
X180000Y198500D02*
Y212500D01*
X51000Y223121D02*
X66379Y238500D01*
X53000Y223000D02*
X67000Y237000D01*
X115000Y116500D02*
X117000Y114500D01*
X56500Y146000D02*
Y162500D01*
X172000Y159000D02*
X179500D01*
X184500Y154000D01*
X37000Y161000D02*
X42332Y155668D01*
X44232D01*
X44500Y155400D01*
X44300Y158300D02*
X44500D01*
X39500Y163100D02*
X44300Y158300D01*
X53000Y137500D02*
Y223000D01*
X62000Y211500D02*
Y215000D01*
X65000Y192000D02*
X69500D01*
X58500Y198500D02*
X65000Y192000D01*
X37500Y220000D02*
X39500Y218000D01*
Y163100D02*
Y218000D01*
X37000Y161000D02*
Y193947D01*
X79500Y212000D02*
X109500D01*
X58500Y198500D02*
Y215000D01*
X58098Y132402D02*
X65000D01*
X53000Y137500D02*
X58098Y132402D01*
X179500Y172500D02*
X183000Y169000D01*
X187368D01*
X179500Y172500D02*
Y179000D01*
X184500Y184000D01*
X171650Y148150D02*
X189564D01*
X184500Y174000D02*
X185934D01*
X187472Y172462D02*
X187538D01*
X185934Y174000D02*
X187472Y172462D01*
X109500Y212000D02*
X115500Y206000D01*
Y191906D02*
Y206000D01*
Y191906D02*
X118203Y189203D01*
X115000Y116500D02*
Y132000D01*
D67*
X159500Y32000D02*
X162000Y34500D01*
Y111500D02*
X174500Y124000D01*
X162000Y34500D02*
Y111500D01*
X156000Y32000D02*
X157957D01*
X159500D01*
X142000D02*
X144000D01*
X146000D01*
X150000D02*
X152000D01*
X148000D02*
X150000D01*
X154000D02*
X156000D01*
X146000D02*
X148000D01*
X152000D02*
X154000D01*
D69*
X36500Y15500D02*
D03*
Y34004D02*
D03*
Y-3004D02*
D03*
D70*
X174500Y204000D02*
D03*
D71*
X184500D02*
D03*
X174500Y194000D02*
D03*
X184500D02*
D03*
X174500Y184000D02*
D03*
X184500D02*
D03*
X174500Y174000D02*
D03*
X184500D02*
D03*
X174500Y164000D02*
D03*
X184500D02*
D03*
X174500Y154000D02*
D03*
X184500D02*
D03*
X174500Y144000D02*
D03*
X184500D02*
D03*
X174500Y134000D02*
D03*
X184500D02*
D03*
X174500Y124000D02*
D03*
X184500D02*
D03*
X174500Y114000D02*
D03*
X184500D02*
D03*
X174500Y104000D02*
D03*
X184500D02*
D03*
X174500Y94000D02*
D03*
X184500D02*
D03*
D72*
X-3000Y121500D02*
D03*
Y198370D02*
D03*
Y46500D02*
D03*
D73*
Y101815D02*
D03*
Y82130D02*
D03*
Y178685D02*
D03*
Y159000D02*
D03*
Y26500D02*
D03*
D74*
X66500Y207000D02*
D03*
X153000Y141000D02*
D03*
Y144120D02*
D03*
Y147000D02*
D03*
X152240Y150000D02*
D03*
X152681Y221319D02*
D03*
X152500Y224000D02*
D03*
Y215500D02*
D03*
Y218500D02*
D03*
X140000Y197099D02*
D03*
X143500Y197000D02*
D03*
X145500Y173500D02*
D03*
X148250D02*
D03*
X151000D02*
D03*
X130000Y182000D02*
D03*
X134500D02*
D03*
X139000D02*
D03*
X143000D02*
D03*
X147000D02*
D03*
X151500D02*
D03*
X155500D02*
D03*
X113000D02*
D03*
X62000D02*
D03*
X64500D02*
D03*
X67000D02*
D03*
X83000D02*
D03*
X80500D02*
D03*
X63000Y107500D02*
D03*
X59500D02*
D03*
X66500D02*
D03*
X83000D02*
D03*
X80500D02*
D03*
X155500D02*
D03*
X151500D02*
D03*
X147000D02*
D03*
X143000D02*
D03*
X139000D02*
D03*
X87000Y15500D02*
D03*
X90000D02*
D03*
X93000D02*
D03*
X96000D02*
D03*
X102000Y53500D02*
D03*
X98000D02*
D03*
X72500D02*
D03*
X69000D02*
D03*
X134500Y107500D02*
D03*
X130000D02*
D03*
X118000D02*
D03*
X113500D02*
D03*
X145500Y99000D02*
D03*
X151000D02*
D03*
X148250D02*
D03*
X184000Y25000D02*
D03*
X110500Y167000D02*
D03*
X118500Y162498D02*
D03*
X114500Y165000D02*
D03*
X122000Y160000D02*
D03*
X167500Y164698D02*
D03*
X94000Y169500D02*
D03*
X98000D02*
D03*
X102000D02*
D03*
X88000Y135000D02*
D03*
X98000Y141000D02*
D03*
X88000Y130000D02*
D03*
X102000Y146000D02*
D03*
X88000Y141000D02*
D03*
X93000D02*
D03*
Y135000D02*
D03*
X152240Y156500D02*
D03*
X88000Y189500D02*
D03*
Y194500D02*
D03*
Y209500D02*
D03*
Y204500D02*
D03*
Y199500D02*
D03*
Y115000D02*
D03*
Y120000D02*
D03*
Y125000D02*
D03*
X59500Y82000D02*
D03*
Y77000D02*
D03*
X29500Y52000D02*
D03*
Y82000D02*
D03*
X59500Y52000D02*
D03*
Y72000D02*
D03*
Y67000D02*
D03*
Y62000D02*
D03*
Y57000D02*
D03*
X34500Y52000D02*
D03*
X54500D02*
D03*
X49500D02*
D03*
X44500D02*
D03*
X39500D02*
D03*
X29500Y77000D02*
D03*
Y72000D02*
D03*
Y67000D02*
D03*
Y57000D02*
D03*
Y62000D02*
D03*
X34500Y57000D02*
D03*
Y62000D02*
D03*
Y67000D02*
D03*
Y72000D02*
D03*
Y77000D02*
D03*
X34589Y81927D02*
D03*
X54589D02*
D03*
X49589D02*
D03*
X44589D02*
D03*
X39589D02*
D03*
X39500Y67000D02*
D03*
X44500D02*
D03*
X49500D02*
D03*
Y72000D02*
D03*
X44500D02*
D03*
X39500D02*
D03*
X49500Y77000D02*
D03*
X44500D02*
D03*
X39500D02*
D03*
X44500Y62000D02*
D03*
X39500D02*
D03*
X49500D02*
D03*
Y57000D02*
D03*
X44500D02*
D03*
X39500D02*
D03*
X54500Y72000D02*
D03*
Y67000D02*
D03*
Y62000D02*
D03*
Y57000D02*
D03*
Y77000D02*
D03*
X108000Y141000D02*
D03*
X103000D02*
D03*
X93000Y125000D02*
D03*
X98000D02*
D03*
X103000D02*
D03*
Y130000D02*
D03*
X98000D02*
D03*
X93000D02*
D03*
X103000Y135000D02*
D03*
X98000D02*
D03*
Y120000D02*
D03*
X93000D02*
D03*
X103000D02*
D03*
Y115000D02*
D03*
X98000D02*
D03*
X93000D02*
D03*
X108000Y130000D02*
D03*
Y125000D02*
D03*
Y120000D02*
D03*
Y115000D02*
D03*
Y135000D02*
D03*
Y215500D02*
D03*
Y209500D02*
D03*
Y189500D02*
D03*
Y194500D02*
D03*
Y199500D02*
D03*
Y204500D02*
D03*
X98000Y173500D02*
D03*
X94000D02*
D03*
X102000D02*
D03*
X94000Y97500D02*
D03*
X102000D02*
D03*
X98000D02*
D03*
Y93500D02*
D03*
X94000D02*
D03*
X102000D02*
D03*
X98000Y146000D02*
D03*
X94000D02*
D03*
X98000Y154000D02*
D03*
X94000D02*
D03*
X102000D02*
D03*
X98000Y150000D02*
D03*
X94000D02*
D03*
X102000D02*
D03*
X98000Y220500D02*
D03*
X94000D02*
D03*
X102000D02*
D03*
X98000Y228500D02*
D03*
X94000D02*
D03*
X102000D02*
D03*
Y224500D02*
D03*
X94000D02*
D03*
X98000D02*
D03*
X103000Y215500D02*
D03*
X98000D02*
D03*
X88000D02*
D03*
X93000D02*
D03*
Y189500D02*
D03*
X98000D02*
D03*
X103000D02*
D03*
Y194500D02*
D03*
X93000D02*
D03*
X98000D02*
D03*
X93000Y209500D02*
D03*
X98000D02*
D03*
X103000D02*
D03*
X93000Y204500D02*
D03*
X98000D02*
D03*
X103000D02*
D03*
Y199500D02*
D03*
X98000D02*
D03*
X93000D02*
D03*
X68000Y117500D02*
D03*
X78000Y107500D02*
D03*
X57500Y-11000D02*
D03*
X166000Y184000D02*
D03*
X167904Y133596D02*
D03*
X164000Y145500D02*
D03*
X154500Y137500D02*
D03*
X169500Y142500D02*
D03*
X166500Y99000D02*
D03*
X166000Y173500D02*
D03*
X164000Y202000D02*
D03*
X154000Y212000D02*
D03*
X66000Y-11000D02*
D03*
X74000D02*
D03*
X57500Y-3500D02*
D03*
X66000D02*
D03*
X74000D02*
D03*
Y4500D02*
D03*
X66000D02*
D03*
X57500D02*
D03*
X178000Y57500D02*
D03*
X190500Y77000D02*
D03*
Y84500D02*
D03*
X185000Y77000D02*
D03*
Y84500D02*
D03*
X-9500Y218000D02*
D03*
X8500Y235000D02*
D03*
X44500Y202000D02*
D03*
X39500Y227000D02*
D03*
X22500Y216500D02*
D03*
Y190500D02*
D03*
X31000Y169000D02*
D03*
X23000D02*
D03*
X31000Y175500D02*
D03*
X23000D02*
D03*
X40000Y151500D02*
D03*
X63500Y148500D02*
D03*
X56500Y141500D02*
D03*
X49000Y129000D02*
D03*
X43000D02*
D03*
X174500Y25000D02*
D03*
X165000D02*
D03*
X167000Y-2000D02*
D03*
X160000D02*
D03*
X167000Y-8500D02*
D03*
X160000D02*
D03*
X142000Y32000D02*
D03*
X157957Y32043D02*
D03*
X154000Y32000D02*
D03*
X150000D02*
D03*
X146000D02*
D03*
X118203Y189203D02*
D03*
X117000Y114500D02*
D03*
X130500Y99000D02*
D03*
X123000Y15500D02*
D03*
X99000D02*
D03*
X76000Y53500D02*
D03*
X94000D02*
D03*
X142500Y122500D02*
D03*
X131000Y173500D02*
D03*
X118000Y182000D02*
D03*
X78000D02*
D03*
X39700Y119500D02*
D03*
X44500Y155400D02*
D03*
Y158300D02*
D03*
X67000Y156000D02*
D03*
X62977Y155800D02*
D03*
X37500Y145500D02*
D03*
X69500Y192000D02*
D03*
X79500Y212000D02*
D03*
X37000Y194000D02*
D03*
X37500Y220000D02*
D03*
X65000Y132402D02*
D03*
X79500Y137402D02*
D03*
M02*
