G04*
G04 #@! TF.GenerationSoftware,Altium Limited,Altium Designer,21.5.1 (32)*
G04*
G04 Layer_Color=65535*
%FSLAX25Y25*%
%MOIN*%
G70*
G04*
G04 #@! TF.SameCoordinates,4ADBACA6-D99A-42C5-8304-42A3838A2759*
G04*
G04*
G04 #@! TF.FilePolarity,Positive*
G04*
G01*
G75*
%ADD10C,0.00787*%
%ADD11C,0.01968*%
%ADD12C,0.01000*%
%ADD13C,0.00984*%
%ADD14C,0.00800*%
%ADD15C,0.00500*%
%ADD16C,0.00600*%
%ADD17C,0.02000*%
G36*
X59000Y-10044D02*
X50000D01*
Y41044D01*
X59000D01*
Y-10044D01*
D02*
G37*
G36*
X35037Y180776D02*
X48849D01*
Y159000D01*
X35000D01*
Y159033D01*
X21000D01*
Y188967D01*
X35037D01*
Y180776D01*
D02*
G37*
G36*
X22628Y57685D02*
X22518D01*
X22628D01*
Y54673D01*
X22614Y54833D01*
X22600Y54985D01*
X22579Y55131D01*
X22551Y55270D01*
X22524Y55395D01*
X22496Y55513D01*
X22468Y55617D01*
X22440Y55714D01*
X22412Y55797D01*
X22385Y55867D01*
X22357Y55929D01*
X22336Y55978D01*
X22322Y56012D01*
X22315Y56033D01*
X22308Y56040D01*
X22225Y56186D01*
X22135Y56325D01*
X22045Y56457D01*
X21948Y56575D01*
X21844Y56686D01*
X21746Y56783D01*
X21649Y56880D01*
X21552Y56956D01*
X21462Y57033D01*
X21378Y57095D01*
X21302Y57144D01*
X21240Y57192D01*
X21184Y57227D01*
X21143Y57248D01*
X21115Y57262D01*
X21108Y57269D01*
X20962Y57345D01*
X20809Y57407D01*
X20657Y57463D01*
X20504Y57512D01*
X20351Y57546D01*
X20206Y57581D01*
X20060Y57609D01*
X19928Y57630D01*
X19803Y57650D01*
X19692Y57664D01*
X19588Y57671D01*
X19498Y57678D01*
X19428Y57685D01*
X16000D01*
X19331D01*
X19158Y57678D01*
X18991Y57671D01*
X18832Y57650D01*
X18672Y57630D01*
X18526Y57595D01*
X18387Y57567D01*
X18256Y57532D01*
X18131Y57498D01*
X18020Y57463D01*
X17922Y57428D01*
X17832Y57393D01*
X17763Y57366D01*
X17700Y57345D01*
X17659Y57324D01*
X17631Y57317D01*
X17624Y57310D01*
X17478Y57234D01*
X17346Y57158D01*
X17221Y57067D01*
X17104Y56977D01*
X16999Y56887D01*
X16895Y56790D01*
X16805Y56700D01*
X16729Y56609D01*
X16652Y56526D01*
X16590Y56450D01*
X16541Y56373D01*
X16493Y56318D01*
X16458Y56262D01*
X16437Y56228D01*
X16423Y56200D01*
X16416Y56193D01*
X16340Y56047D01*
X16278Y55901D01*
X16222Y55756D01*
X16173Y55603D01*
X16139Y55450D01*
X16104Y55305D01*
X16076Y55166D01*
X16056Y55034D01*
X16035Y54909D01*
X16021Y54798D01*
X16014Y54694D01*
X16007Y54604D01*
X16000Y54534D01*
Y54437D01*
X16007Y54291D01*
X16014Y54146D01*
X16049Y53861D01*
X16069Y53722D01*
X16097Y53597D01*
X16125Y53472D01*
X16153Y53361D01*
X16180Y53257D01*
X16201Y53160D01*
X16229Y53077D01*
X16250Y53007D01*
X16271Y52952D01*
X16285Y52910D01*
X16298Y52882D01*
Y52876D01*
X16354Y52737D01*
X16416Y52605D01*
X16472Y52480D01*
X16534Y52369D01*
X16590Y52258D01*
X16645Y52161D01*
X16701Y52078D01*
X16757Y51994D01*
X16805Y51925D01*
X16847Y51862D01*
X16888Y51814D01*
X16923Y51772D01*
X16951Y51737D01*
X16972Y51717D01*
X16978Y51703D01*
X16985Y51696D01*
X19546D01*
Y54479D01*
X18464D01*
Y53000D01*
X17645D01*
X17561Y53118D01*
X17492Y53237D01*
X17430Y53354D01*
X17374Y53465D01*
X17325Y53563D01*
X17291Y53639D01*
X17277Y53667D01*
X17270Y53688D01*
X17263Y53701D01*
Y53708D01*
X17208Y53861D01*
X17173Y54007D01*
X17145Y54139D01*
X17124Y54264D01*
X17110Y54368D01*
Y54416D01*
X17104Y54451D01*
Y54520D01*
X17110Y54673D01*
X17131Y54812D01*
X17159Y54944D01*
X17194Y55076D01*
X17235Y55194D01*
X17284Y55298D01*
X17333Y55402D01*
X17388Y55492D01*
X17444Y55568D01*
X17492Y55645D01*
X17541Y55700D01*
X17582Y55756D01*
X17617Y55790D01*
X17652Y55825D01*
X17666Y55839D01*
X17673Y55846D01*
X17784Y55936D01*
X17909Y56012D01*
X18040Y56082D01*
X18179Y56137D01*
X18325Y56186D01*
X18464Y56228D01*
X18609Y56262D01*
X18741Y56290D01*
X18873Y56311D01*
X18998Y56325D01*
X19102Y56339D01*
X19199Y56346D01*
X19276D01*
X19338Y56353D01*
X19373D01*
X19387D01*
X19581Y56346D01*
X19761Y56332D01*
X19928Y56304D01*
X20081Y56276D01*
X20226Y56235D01*
X20358Y56193D01*
X20476Y56151D01*
X20580Y56103D01*
X20677Y56054D01*
X20754Y56012D01*
X20823Y55971D01*
X20879Y55929D01*
X20927Y55901D01*
X20955Y55874D01*
X20976Y55860D01*
X20983Y55853D01*
X21080Y55756D01*
X21163Y55652D01*
X21233Y55541D01*
X21295Y55430D01*
X21351Y55318D01*
X21392Y55207D01*
X21427Y55096D01*
X21455Y54992D01*
X21476Y54895D01*
X21497Y54798D01*
X21510Y54715D01*
X21517Y54645D01*
X21524Y54590D01*
Y54506D01*
X21510Y54305D01*
X21483Y54125D01*
X21434Y53965D01*
X21385Y53833D01*
X21358Y53778D01*
X21337Y53722D01*
X21309Y53681D01*
X21288Y53646D01*
X21274Y53611D01*
X21260Y53590D01*
X21247Y53584D01*
Y53576D01*
X21136Y53445D01*
X21018Y53341D01*
X20893Y53250D01*
X20775Y53181D01*
X20671Y53125D01*
X20622Y53105D01*
X20580Y53091D01*
X20553Y53077D01*
X20525Y53070D01*
X20511Y53063D01*
X20504D01*
X20747Y51779D01*
X20907Y51821D01*
X21059Y51869D01*
X21205Y51932D01*
X21337Y51994D01*
X21455Y52064D01*
X21573Y52140D01*
X21677Y52209D01*
X21767Y52286D01*
X21850Y52355D01*
X21927Y52425D01*
X21982Y52487D01*
X22038Y52535D01*
X22079Y52584D01*
X22107Y52619D01*
X22121Y52640D01*
X22128Y52647D01*
X22218Y52778D01*
X22295Y52917D01*
X22357Y53063D01*
X22420Y53216D01*
X22468Y53375D01*
X22503Y53528D01*
X22537Y53681D01*
X22565Y53826D01*
X22586Y53965D01*
X22600Y54090D01*
X22614Y54208D01*
X22621Y54312D01*
X22628Y54388D01*
Y51696D01*
D01*
Y29356D01*
X21390D01*
X22628D01*
Y26365D01*
X22621Y26608D01*
X22593Y26844D01*
X22544Y27066D01*
X22489Y27274D01*
X22420Y27468D01*
X22350Y27642D01*
X22267Y27808D01*
X22184Y27954D01*
X22100Y28086D01*
X22024Y28204D01*
X21948Y28301D01*
X21878Y28384D01*
X21823Y28454D01*
X21781Y28495D01*
X21746Y28530D01*
X21739Y28537D01*
X21566Y28683D01*
X21378Y28808D01*
X21184Y28919D01*
X20983Y29009D01*
X20775Y29092D01*
X20567Y29155D01*
X20365Y29210D01*
X20164Y29252D01*
X19984Y29287D01*
X19810Y29314D01*
X19650Y29328D01*
X19519Y29342D01*
X19408Y29349D01*
X19366Y29356D01*
X16007D01*
X19255D01*
X18977Y29349D01*
X18721Y29321D01*
X18478Y29280D01*
X18249Y29231D01*
X18033Y29168D01*
X17839Y29099D01*
X17659Y29023D01*
X17499Y28947D01*
X17353Y28870D01*
X17228Y28794D01*
X17124Y28724D01*
X17034Y28662D01*
X16965Y28613D01*
X16916Y28572D01*
X16881Y28544D01*
X16874Y28537D01*
X16722Y28377D01*
X16590Y28211D01*
X16472Y28037D01*
X16375Y27864D01*
X16292Y27690D01*
X16222Y27517D01*
X16160Y27343D01*
X16118Y27184D01*
X16076Y27031D01*
X16056Y26885D01*
X16035Y26760D01*
X16021Y26656D01*
X16014Y26566D01*
X16007Y26497D01*
Y26441D01*
X16014Y26254D01*
X16028Y26073D01*
X16056Y25900D01*
X16083Y25740D01*
X16125Y25587D01*
X16167Y25449D01*
X16215Y25317D01*
X16264Y25206D01*
X16305Y25095D01*
X16354Y25005D01*
X16396Y24928D01*
X16437Y24859D01*
X16465Y24810D01*
X16493Y24769D01*
X16507Y24748D01*
X16514Y24741D01*
X16618Y24616D01*
X16729Y24505D01*
X16847Y24401D01*
X16978Y24304D01*
X17104Y24220D01*
X17235Y24137D01*
X17367Y24068D01*
X17492Y24005D01*
X17610Y23950D01*
X17721Y23901D01*
X17825Y23866D01*
X17909Y23832D01*
X17985Y23804D01*
X18033Y23790D01*
X18068Y23776D01*
X16007D01*
X21644D01*
X18082D01*
X18471Y25032D01*
X18346Y25067D01*
X18221Y25102D01*
X18110Y25143D01*
X18013Y25185D01*
X17915Y25234D01*
X17832Y25275D01*
X17756Y25324D01*
X17686Y25365D01*
X17631Y25407D01*
X17575Y25449D01*
X17534Y25483D01*
X17499Y25511D01*
X17471Y25539D01*
X17450Y25560D01*
X17444Y25567D01*
X17437Y25574D01*
X17381Y25643D01*
X17333Y25719D01*
X17249Y25865D01*
X17194Y26011D01*
X17152Y26150D01*
X17131Y26275D01*
X17117Y26323D01*
Y26372D01*
X17110Y26406D01*
Y26455D01*
X17117Y26580D01*
X17131Y26705D01*
X17159Y26823D01*
X17194Y26927D01*
X17228Y27031D01*
X17270Y27121D01*
X17319Y27211D01*
X17367Y27288D01*
X17416Y27357D01*
X17464Y27420D01*
X17506Y27468D01*
X17541Y27517D01*
X17575Y27545D01*
X17603Y27572D01*
X17617Y27586D01*
X17624Y27593D01*
X17728Y27670D01*
X17846Y27732D01*
X17971Y27794D01*
X18110Y27843D01*
X18256Y27885D01*
X18394Y27919D01*
X18679Y27968D01*
X18818Y27989D01*
X18943Y28003D01*
X19054Y28010D01*
X19158Y28016D01*
X19234Y28023D01*
X19297D01*
X19338D01*
X19352D01*
X19560Y28016D01*
X19755Y28003D01*
X19928Y27982D01*
X20095Y27954D01*
X20247Y27919D01*
X20379Y27885D01*
X20504Y27843D01*
X20608Y27801D01*
X20705Y27767D01*
X20789Y27725D01*
X20858Y27690D01*
X20913Y27656D01*
X20955Y27628D01*
X20990Y27607D01*
X21004Y27593D01*
X21011Y27586D01*
X21101Y27503D01*
X21177Y27406D01*
X21247Y27316D01*
X21309Y27218D01*
X21358Y27121D01*
X21399Y27024D01*
X21434Y26927D01*
X21462Y26837D01*
X21483Y26753D01*
X21497Y26677D01*
X21510Y26608D01*
X21517Y26545D01*
X21524Y26497D01*
Y26427D01*
X21510Y26240D01*
X21476Y26073D01*
X21434Y25928D01*
X21378Y25796D01*
X21323Y25692D01*
X21302Y25650D01*
X21281Y25615D01*
X21260Y25587D01*
X21247Y25567D01*
X21240Y25560D01*
X21233Y25553D01*
X21115Y25428D01*
X20990Y25324D01*
X20858Y25240D01*
X20733Y25178D01*
X20622Y25130D01*
X20573Y25109D01*
X20532Y25095D01*
X20497Y25088D01*
X20469Y25081D01*
X20456Y25074D01*
X20448D01*
X20754Y23797D01*
X20893Y23839D01*
X21024Y23887D01*
X21143Y23943D01*
X21260Y23991D01*
X21365Y24047D01*
X21462Y24102D01*
X21545Y24158D01*
X21628Y24206D01*
X21698Y24262D01*
X21760Y24304D01*
X21809Y24345D01*
X21850Y24387D01*
X21885Y24415D01*
X21906Y24435D01*
X21920Y24449D01*
X21927Y24456D01*
X22052Y24602D01*
X22156Y24748D01*
X22253Y24907D01*
X22329Y25067D01*
X22399Y25227D01*
X22454Y25386D01*
X22503Y25539D01*
X22537Y25685D01*
X22572Y25824D01*
X22593Y25955D01*
X22607Y26073D01*
X22614Y26171D01*
X22621Y26254D01*
X22628Y26309D01*
Y23776D01*
D01*
Y22895D01*
X21180D01*
X22628D01*
Y19904D01*
X22621Y20146D01*
X22593Y20382D01*
X22544Y20605D01*
X22489Y20813D01*
X22420Y21007D01*
X22350Y21181D01*
X22267Y21347D01*
X22184Y21493D01*
X22100Y21625D01*
X22024Y21743D01*
X21948Y21840D01*
X21878Y21923D01*
X21823Y21993D01*
X21781Y22034D01*
X21746Y22069D01*
X21739Y22076D01*
X21566Y22222D01*
X21378Y22346D01*
X21184Y22458D01*
X20983Y22548D01*
X20775Y22631D01*
X20567Y22693D01*
X20365Y22749D01*
X20164Y22791D01*
X19984Y22825D01*
X19810Y22853D01*
X19650Y22867D01*
X19519Y22881D01*
X19408Y22888D01*
X19366Y22895D01*
X16007D01*
X19255D01*
X18977Y22888D01*
X18721Y22860D01*
X18478Y22818D01*
X18249Y22770D01*
X18033Y22707D01*
X17839Y22638D01*
X17659Y22562D01*
X17499Y22485D01*
X17353Y22409D01*
X17228Y22333D01*
X17124Y22263D01*
X17034Y22201D01*
X16965Y22152D01*
X16916Y22111D01*
X16881Y22083D01*
X16874Y22076D01*
X16722Y21916D01*
X16590Y21750D01*
X16472Y21576D01*
X16375Y21403D01*
X16292Y21229D01*
X16222Y21056D01*
X16160Y20882D01*
X16118Y20723D01*
X16076Y20570D01*
X16056Y20424D01*
X16035Y20299D01*
X16021Y20195D01*
X16014Y20105D01*
X16007Y20035D01*
Y19980D01*
X16014Y19793D01*
X16028Y19612D01*
X16056Y19439D01*
X16083Y19279D01*
X16125Y19126D01*
X16167Y18988D01*
X16215Y18856D01*
X16264Y18745D01*
X16305Y18634D01*
X16354Y18543D01*
X16396Y18467D01*
X16437Y18398D01*
X16465Y18349D01*
X16493Y18307D01*
X16507Y18287D01*
X16514Y18280D01*
X16618Y18155D01*
X16729Y18044D01*
X16847Y17940D01*
X16978Y17842D01*
X17104Y17759D01*
X17235Y17676D01*
X17367Y17606D01*
X17492Y17544D01*
X17610Y17489D01*
X17721Y17440D01*
X17825Y17405D01*
X17909Y17370D01*
X17985Y17343D01*
X18033Y17329D01*
X18068Y17315D01*
X16007D01*
X21495D01*
X18082D01*
X18471Y18571D01*
X18346Y18606D01*
X18221Y18641D01*
X18110Y18682D01*
X18013Y18724D01*
X17915Y18772D01*
X17832Y18814D01*
X17756Y18863D01*
X17686Y18904D01*
X17631Y18946D01*
X17575Y18988D01*
X17534Y19022D01*
X17499Y19050D01*
X17471Y19078D01*
X17450Y19099D01*
X17444Y19105D01*
X17437Y19113D01*
X17381Y19182D01*
X17333Y19258D01*
X17249Y19404D01*
X17194Y19550D01*
X17152Y19689D01*
X17131Y19813D01*
X17117Y19862D01*
Y19911D01*
X17110Y19945D01*
Y19994D01*
X17117Y20119D01*
X17131Y20244D01*
X17159Y20362D01*
X17194Y20466D01*
X17228Y20570D01*
X17270Y20660D01*
X17319Y20750D01*
X17367Y20827D01*
X17416Y20896D01*
X17464Y20958D01*
X17506Y21007D01*
X17541Y21056D01*
X17575Y21083D01*
X17603Y21111D01*
X17617Y21125D01*
X17624Y21132D01*
X17728Y21208D01*
X17846Y21271D01*
X17971Y21333D01*
X18110Y21382D01*
X18256Y21423D01*
X18394Y21458D01*
X18679Y21507D01*
X18818Y21528D01*
X18943Y21542D01*
X19054Y21548D01*
X19158Y21555D01*
X19234Y21562D01*
X19297D01*
X19338D01*
X19352D01*
X19560Y21555D01*
X19755Y21542D01*
X19928Y21521D01*
X20095Y21493D01*
X20247Y21458D01*
X20379Y21423D01*
X20504Y21382D01*
X20608Y21340D01*
X20705Y21305D01*
X20789Y21264D01*
X20858Y21229D01*
X20913Y21194D01*
X20955Y21167D01*
X20990Y21146D01*
X21004Y21132D01*
X21011Y21125D01*
X21101Y21042D01*
X21177Y20945D01*
X21247Y20854D01*
X21309Y20757D01*
X21358Y20660D01*
X21399Y20563D01*
X21434Y20466D01*
X21462Y20376D01*
X21483Y20292D01*
X21497Y20216D01*
X21510Y20146D01*
X21517Y20084D01*
X21524Y20035D01*
Y19966D01*
X21510Y19779D01*
X21476Y19612D01*
X21434Y19466D01*
X21378Y19335D01*
X21323Y19230D01*
X21302Y19189D01*
X21281Y19154D01*
X21260Y19126D01*
X21247Y19105D01*
X21240Y19099D01*
X21233Y19092D01*
X21115Y18967D01*
X20990Y18863D01*
X20858Y18779D01*
X20733Y18717D01*
X20622Y18668D01*
X20573Y18647D01*
X20532Y18634D01*
X20497Y18627D01*
X20469Y18620D01*
X20456Y18613D01*
X20448D01*
X20754Y17336D01*
X20893Y17378D01*
X21024Y17426D01*
X21143Y17482D01*
X21260Y17530D01*
X21365Y17586D01*
X21462Y17641D01*
X21545Y17697D01*
X21628Y17745D01*
X21698Y17801D01*
X21760Y17842D01*
X21809Y17884D01*
X21850Y17926D01*
X21885Y17954D01*
X21906Y17974D01*
X21920Y17988D01*
X21927Y17995D01*
X22052Y18141D01*
X22156Y18287D01*
X22253Y18446D01*
X22329Y18606D01*
X22399Y18766D01*
X22454Y18925D01*
X22503Y19078D01*
X22537Y19223D01*
X22572Y19362D01*
X22593Y19494D01*
X22607Y19612D01*
X22614Y19709D01*
X22621Y19793D01*
X22628Y19848D01*
Y17315D01*
D01*
Y15908D01*
X16000D01*
Y59092D01*
X22628D01*
Y57685D01*
D02*
G37*
G36*
X35037Y116467D02*
Y108388D01*
X48932D01*
Y86612D01*
X35037D01*
Y86533D01*
X21000D01*
Y116467D01*
X35037D01*
D02*
G37*
%LPC*%
G36*
X57219Y37806D02*
Y37444D01*
X56350D01*
Y36263D01*
X54719D01*
Y37806D01*
X51000D01*
X53856D01*
Y36300D01*
X53688Y36312D01*
X53525Y36338D01*
X53381Y36369D01*
X53244Y36400D01*
X53119Y36437D01*
X53000Y36475D01*
X52900Y36519D01*
X52806Y36562D01*
X52725Y36600D01*
X52650Y36644D01*
X52594Y36675D01*
X52544Y36706D01*
X52506Y36737D01*
X52481Y36756D01*
X52463Y36769D01*
X52456Y36775D01*
X52294Y36937D01*
X52144Y37106D01*
X52006Y37275D01*
X51894Y37437D01*
X51844Y37512D01*
X51800Y37581D01*
X51762Y37637D01*
X51731Y37694D01*
X51706Y37731D01*
X51688Y37769D01*
X51681Y37788D01*
X51675Y37794D01*
X51544Y37625D01*
X51425Y37469D01*
X51306Y37325D01*
X51206Y37200D01*
X51162Y37150D01*
X51119Y37100D01*
X51087Y37056D01*
X51056Y37019D01*
X51031Y36994D01*
X51012Y36975D01*
X51006Y36963D01*
X51000Y36956D01*
X51081Y36812D01*
X51169Y36675D01*
X51256Y36550D01*
X51350Y36437D01*
X51437Y36331D01*
X51519Y36231D01*
X51606Y36144D01*
X51681Y36069D01*
X51756Y36000D01*
X51825Y35938D01*
X51888Y35888D01*
X51938Y35850D01*
X51981Y35819D01*
X52012Y35794D01*
X52031Y35781D01*
X52038Y35775D01*
X52156Y35706D01*
X52288Y35644D01*
X52431Y35587D01*
X52575Y35537D01*
X52881Y35456D01*
X53031Y35425D01*
X53175Y35400D01*
X53312Y35375D01*
X53444Y35356D01*
X53556Y35344D01*
X53656Y35337D01*
X53737Y35325D01*
X53806D01*
X53825Y35319D01*
X53844D01*
X53850D01*
X53856D01*
Y33531D01*
X51131D01*
Y32569D01*
X53856D01*
Y31212D01*
X57219D01*
Y37806D01*
D02*
G37*
G36*
X54256Y30181D02*
X53719D01*
X52181Y26856D01*
X53000D01*
X53981Y29237D01*
X54000D01*
X55056Y26856D01*
X55875D01*
X54256Y30181D01*
D02*
G37*
G36*
X54281Y25406D02*
X53525D01*
Y23444D01*
X54281D01*
Y25406D01*
D02*
G37*
G36*
Y22431D02*
X53525D01*
Y20469D01*
X54281D01*
Y22431D01*
D02*
G37*
G36*
Y19456D02*
X53525D01*
Y17494D01*
X54281D01*
Y19456D01*
D02*
G37*
G36*
Y16481D02*
X53525D01*
Y14519D01*
X54281D01*
Y16481D01*
D02*
G37*
G36*
Y13506D02*
X53525D01*
Y11544D01*
X54281D01*
Y13506D01*
D02*
G37*
G36*
Y10531D02*
X53525D01*
Y8569D01*
X54281D01*
Y10531D01*
D02*
G37*
G36*
Y7556D02*
X53525D01*
Y5594D01*
X54281D01*
Y7556D01*
D02*
G37*
G36*
X55913Y4163D02*
X52219D01*
D01*
X53756Y838D01*
X53450D01*
X55913D01*
X54294D01*
X55913Y4163D01*
D02*
G37*
G36*
X57619Y-194D02*
X51012D01*
Y-6806D01*
X54316D01*
X52006D01*
X51012D01*
Y-931D01*
X51087Y-1106D01*
X51162Y-1281D01*
X51244Y-1444D01*
X51325Y-1600D01*
X51406Y-1750D01*
X51494Y-1887D01*
X51575Y-2025D01*
X51662Y-2150D01*
X51744Y-2275D01*
X51831Y-2387D01*
X51912Y-2500D01*
X51994Y-2600D01*
X52156Y-2788D01*
X52312Y-2950D01*
X52463Y-3087D01*
X52594Y-3206D01*
X52719Y-3306D01*
X52819Y-3381D01*
X52906Y-3438D01*
X52969Y-3481D01*
X52994Y-3494D01*
X53013Y-3506D01*
X53019Y-3512D01*
X53025D01*
X52894Y-3588D01*
X52769Y-3663D01*
X52538Y-3838D01*
X52325Y-4031D01*
X52125Y-4237D01*
X51950Y-4450D01*
X51794Y-4669D01*
X51650Y-4888D01*
X51525Y-5100D01*
X51419Y-5306D01*
X51331Y-5500D01*
X51250Y-5675D01*
X51219Y-5756D01*
X51194Y-5825D01*
X51169Y-5894D01*
X51144Y-5956D01*
X51125Y-6006D01*
X51113Y-6050D01*
X51100Y-6087D01*
X51094Y-6112D01*
X51087Y-6125D01*
Y-6131D01*
X51150Y-6175D01*
X51219Y-6219D01*
X51363Y-6325D01*
X51519Y-6437D01*
X51662Y-6544D01*
X51731Y-6600D01*
X51800Y-6650D01*
X51856Y-6694D01*
X51906Y-6731D01*
X51950Y-6763D01*
X51981Y-6787D01*
X52000Y-6800D01*
X52006Y-6806D01*
X52044Y-6625D01*
X52087Y-6444D01*
X52138Y-6275D01*
X52194Y-6119D01*
X52250Y-5962D01*
X52306Y-5819D01*
X52369Y-5681D01*
X52438Y-5550D01*
X52506Y-5425D01*
X52575Y-5306D01*
X52644Y-5194D01*
X52713Y-5088D01*
X52788Y-4987D01*
X52856Y-4900D01*
X53000Y-4731D01*
X53137Y-4588D01*
X53263Y-4469D01*
X53381Y-4369D01*
X53487Y-4294D01*
X53575Y-4237D01*
X53637Y-4194D01*
X53663Y-4181D01*
X53681Y-4169D01*
X53688Y-4163D01*
X53694D01*
Y-6756D01*
X54550D01*
Y-4000D01*
X54656D01*
X54756D01*
X54850D01*
X54931Y-4006D01*
X55006D01*
X55081D01*
X55144D01*
X55200D01*
X55250D01*
X55287D01*
X55325D01*
X55356D01*
X55375D01*
X55394D01*
X55406D01*
Y-6425D01*
X56262D01*
Y-4944D01*
X57119Y-5669D01*
X57619Y-4713D01*
D01*
X57375Y-4563D01*
X57131Y-4412D01*
X56906Y-4262D01*
X56800Y-4188D01*
X56700Y-4119D01*
X56606Y-4056D01*
X56519Y-4000D01*
X56444Y-3944D01*
X56381Y-3900D01*
X56331Y-3862D01*
X56294Y-3838D01*
X56269Y-3819D01*
X56262Y-3813D01*
Y-2662D01*
X56563Y-3094D01*
X56700Y-2975D01*
X56825Y-2863D01*
X56937Y-2756D01*
X57044Y-2662D01*
X57138Y-2581D01*
X57225Y-2500D01*
X57306Y-2431D01*
X57375Y-2369D01*
X57431Y-2319D01*
X57481Y-2275D01*
X57525Y-2238D01*
X57563Y-2206D01*
X57587Y-2181D01*
X57606Y-2162D01*
X57613Y-2156D01*
X57619Y-2150D01*
D01*
X57087Y-1394D01*
X56956Y-1500D01*
X56819Y-1612D01*
X56681Y-1725D01*
X56556Y-1825D01*
X56437Y-1912D01*
X56388Y-1956D01*
X56344Y-1987D01*
X56313Y-2012D01*
X56287Y-2031D01*
X56269Y-2044D01*
X56262Y-2050D01*
Y-612D01*
X55406D01*
Y-3019D01*
X55263D01*
X55131Y-3012D01*
X55019D01*
X54925Y-3006D01*
X54844D01*
X54775D01*
X54712D01*
X54669Y-3000D01*
X54631D01*
X54606D01*
X54581D01*
X54569D01*
X54556D01*
X54550D01*
Y-262D01*
X53694D01*
Y-2819D01*
X53581Y-2763D01*
X53475Y-2700D01*
X53375Y-2631D01*
X53275Y-2556D01*
X53175Y-2469D01*
X53081Y-2381D01*
X52906Y-2187D01*
X52744Y-1975D01*
X52594Y-1756D01*
X52456Y-1531D01*
X52331Y-1312D01*
X52219Y-1094D01*
X52125Y-888D01*
X52044Y-700D01*
X52006Y-612D01*
X51975Y-531D01*
X51950Y-456D01*
X51925Y-394D01*
X51906Y-331D01*
X51888Y-288D01*
X51875Y-244D01*
X51863Y-219D01*
X51856Y-200D01*
Y-194D01*
X51688Y-350D01*
X51531Y-488D01*
X51388Y-612D01*
X51262Y-725D01*
X51206Y-769D01*
X51156Y-812D01*
X51113Y-844D01*
X51081Y-875D01*
X51050Y-900D01*
X51031Y-919D01*
X51019Y-925D01*
X51012Y-931D01*
Y-194D01*
X57619D01*
D02*
G37*
%LPD*%
G36*
X56350Y33531D02*
X54719D01*
Y35300D01*
X56350D01*
Y33531D01*
D02*
G37*
G36*
Y31494D02*
X57219D01*
Y31212D01*
X54719D01*
Y32569D01*
X56350D01*
Y31494D01*
D02*
G37*
G36*
X54031Y1769D02*
X54019D01*
X53038Y4163D01*
X55094D01*
X54031Y1769D01*
D02*
G37*
%LPC*%
G36*
X32037Y185581D02*
X26817D01*
X32037D01*
Y183239D01*
X32026Y183395D01*
X32016Y183530D01*
X31995Y183645D01*
X31984Y183749D01*
X31964Y183822D01*
X31953Y183863D01*
Y183884D01*
X31922Y184020D01*
X31891Y184144D01*
X31860Y184249D01*
X31828Y184353D01*
X31808Y184426D01*
X31787Y184488D01*
X31776Y184530D01*
X31766Y184540D01*
X31724Y184644D01*
X31693Y184728D01*
X31651Y184811D01*
X31620Y184884D01*
X31589Y184936D01*
X31568Y184977D01*
X31558Y184998D01*
X31547Y185009D01*
X31506Y185071D01*
X31474Y185123D01*
X31422Y185196D01*
X31391Y185238D01*
X31381Y185248D01*
X31339Y185290D01*
X31308Y185321D01*
X31287Y185331D01*
X31277Y185342D01*
X31204Y185373D01*
X31172Y185383D01*
X31162D01*
X31110Y185394D01*
X31058D01*
X31016Y185404D01*
X30996D01*
X30912D01*
X30839D01*
X30777D01*
X30756D01*
X30746D01*
X30621D01*
X30538Y185394D01*
X30475D01*
X30465D01*
X30454D01*
X30381Y185383D01*
X30319Y185373D01*
X30288Y185363D01*
X30277D01*
X30246Y185342D01*
X30225Y185331D01*
X30204Y185310D01*
X30184Y185248D01*
Y185217D01*
X30194Y185154D01*
X30236Y185081D01*
X30267Y185019D01*
X30277Y185009D01*
Y184998D01*
X30350Y184873D01*
X30413Y184748D01*
X30444Y184696D01*
X30465Y184655D01*
X30485Y184634D01*
Y184623D01*
X30569Y184457D01*
X30631Y184301D01*
X30662Y184228D01*
X30673Y184176D01*
X30694Y184144D01*
Y184134D01*
X30746Y183926D01*
X30766Y183822D01*
X30777Y183728D01*
X30787Y183655D01*
Y183541D01*
X30777Y183353D01*
X30766Y183270D01*
X30746Y183208D01*
X30735Y183145D01*
X30714Y183104D01*
X30704Y183083D01*
Y183072D01*
X30642Y182937D01*
X30569Y182823D01*
X30548Y182791D01*
X30517Y182760D01*
X30506Y182750D01*
X30496Y182739D01*
X30392Y182656D01*
X30298Y182594D01*
X30256Y182573D01*
X30225Y182552D01*
X30204Y182541D01*
X30194D01*
X30059Y182500D01*
X29944Y182479D01*
X29892Y182468D01*
X29850D01*
X29830D01*
X29819D01*
X29632Y182489D01*
X29548Y182500D01*
X29486Y182521D01*
X29424Y182541D01*
X29382Y182552D01*
X29351Y182573D01*
X29340D01*
X29195Y182656D01*
X29080Y182750D01*
X29038Y182791D01*
X29007Y182823D01*
X28986Y182843D01*
X28976Y182854D01*
X28882Y182999D01*
X28809Y183145D01*
X28778Y183208D01*
X28768Y183260D01*
X28747Y183291D01*
Y183301D01*
X28705Y183510D01*
X28695Y183614D01*
X28684Y183707D01*
X28674Y183791D01*
Y184644D01*
X28664Y184686D01*
X28653Y184707D01*
X28643Y184717D01*
X28622Y184748D01*
X28591Y184769D01*
X28570Y184790D01*
X28560Y184800D01*
X28508Y184821D01*
X28445Y184832D01*
X28403Y184842D01*
X28393D01*
X28383D01*
X28299Y184852D01*
X28206D01*
X28164D01*
X28133D01*
X28112D01*
X28102D01*
X27977D01*
X27883Y184842D01*
X27821D01*
X27810D01*
X27800D01*
X27727Y184832D01*
X27664Y184821D01*
X27633Y184800D01*
X27623D01*
X27581Y184769D01*
X27560Y184738D01*
X27539Y184717D01*
Y184707D01*
X27529Y184655D01*
X27519Y184613D01*
Y183739D01*
X27508Y183603D01*
X27487Y183478D01*
X27477Y183374D01*
X27456Y183291D01*
X27435Y183218D01*
X27425Y183176D01*
Y183166D01*
X27394Y183052D01*
X27352Y182947D01*
X27310Y182864D01*
X27279Y182781D01*
X27237Y182729D01*
X27217Y182677D01*
X27196Y182656D01*
X27185Y182645D01*
X27071Y182510D01*
X26946Y182406D01*
X26894Y182375D01*
X26863Y182354D01*
X26831Y182333D01*
X26821D01*
X26738Y182292D01*
X26655Y182271D01*
X26509Y182229D01*
X26436D01*
X26384Y182219D01*
X26353D01*
X26342D01*
X26165Y182229D01*
X26092Y182250D01*
X26030Y182260D01*
X25967Y182281D01*
X25926Y182302D01*
X25905Y182312D01*
X25895D01*
X25759Y182385D01*
X25645Y182468D01*
X25603Y182510D01*
X25582Y182541D01*
X25561Y182562D01*
X25551Y182573D01*
X25457Y182718D01*
X25385Y182854D01*
X25364Y182916D01*
X25343Y182968D01*
X25332Y182999D01*
Y183010D01*
X25291Y183208D01*
X25280Y183301D01*
X25270Y183385D01*
X25260Y183468D01*
Y183728D01*
X25270Y183853D01*
X25280Y183978D01*
X25301Y184082D01*
X25312Y184165D01*
X25322Y184228D01*
X25332Y184269D01*
Y184280D01*
X25364Y184384D01*
X25395Y184488D01*
X25426Y184582D01*
X25457Y184655D01*
X25478Y184717D01*
X25499Y184769D01*
X25510Y184800D01*
Y184811D01*
X25572Y184967D01*
X25603Y185029D01*
X25634Y185081D01*
X25655Y185123D01*
X25676Y185154D01*
X25686Y185175D01*
Y185186D01*
X25738Y185279D01*
X25759Y185342D01*
X25770Y185383D01*
Y185425D01*
X25749Y185456D01*
X25718Y185498D01*
X25676Y185529D01*
X25666Y185539D01*
X25655D01*
X25603Y185550D01*
X25541Y185560D01*
X25405Y185571D01*
X25343Y185581D01*
X24000D01*
X24958D01*
X24874Y185571D01*
X24812Y185560D01*
X24760Y185550D01*
X24749D01*
X24687Y185529D01*
X24645Y185519D01*
X24614Y185508D01*
X24604D01*
X24531Y185456D01*
X24510Y185435D01*
X24500Y185425D01*
X24458Y185363D01*
X24416Y185290D01*
X24385Y185227D01*
X24364Y185206D01*
Y185196D01*
X24302Y185050D01*
X24239Y184915D01*
X24219Y184852D01*
X24198Y184800D01*
X24187Y184769D01*
Y184759D01*
X24135Y184550D01*
X24114Y184446D01*
X24094Y184353D01*
X24083Y184269D01*
X24073Y184207D01*
X24062Y184155D01*
Y184144D01*
X24031Y183874D01*
X24010Y183749D01*
Y183634D01*
X24000Y183541D01*
Y183395D01*
X24010Y183156D01*
X24021Y182927D01*
X24052Y182729D01*
X24083Y182541D01*
X24104Y182396D01*
X24135Y182281D01*
X24146Y182239D01*
Y182208D01*
X24156Y182198D01*
Y182187D01*
X24219Y181990D01*
X24292Y181802D01*
X24375Y181646D01*
X24448Y181511D01*
X24510Y181396D01*
X24562Y181313D01*
X24604Y181261D01*
X24614Y181240D01*
X24739Y181105D01*
X24864Y180980D01*
X24989Y180876D01*
X25114Y180782D01*
X25218Y180720D01*
X25301Y180668D01*
X25353Y180636D01*
X25374Y180626D01*
X25551Y180553D01*
X25728Y180491D01*
X25895Y180449D01*
X26061Y180428D01*
X26197Y180407D01*
X26311Y180397D01*
X24000D01*
X26530D01*
X26655Y180418D01*
X26759Y180439D01*
X26852Y180459D01*
X26936Y180480D01*
X26998Y180501D01*
X27040Y180511D01*
X27050Y180522D01*
X27258Y180626D01*
X27352Y180688D01*
X27435Y180740D01*
X27498Y180792D01*
X27550Y180834D01*
X27581Y180865D01*
X27591Y180876D01*
X27758Y181053D01*
X27831Y181147D01*
X27893Y181230D01*
X27935Y181303D01*
X27966Y181365D01*
X27987Y181407D01*
X27997Y181417D01*
X28091Y181667D01*
X28133Y181792D01*
X28164Y181906D01*
X28185Y182000D01*
X28195Y182073D01*
X28206Y182125D01*
Y182146D01*
X28216D01*
X28247Y182021D01*
X28289Y181906D01*
X28331Y181802D01*
X28372Y181719D01*
X28414Y181646D01*
X28435Y181584D01*
X28455Y181552D01*
X28466Y181542D01*
X28539Y181448D01*
X28601Y181365D01*
X28674Y181292D01*
X28736Y181230D01*
X28799Y181178D01*
X28841Y181147D01*
X28872Y181126D01*
X28882Y181115D01*
X29070Y181001D01*
X29163Y180949D01*
X29247Y180917D01*
X29320Y180886D01*
X29372Y180865D01*
X29413Y180845D01*
X29424D01*
X29663Y180792D01*
X29767Y180772D01*
X29871Y180761D01*
X29965Y180751D01*
X30027D01*
X30079D01*
X30090D01*
X30256Y180761D01*
X30413Y180772D01*
X30548Y180803D01*
X30673Y180824D01*
X30766Y180855D01*
X30839Y180886D01*
X30881Y180897D01*
X30902Y180907D01*
X31037Y180970D01*
X31152Y181042D01*
X31256Y181115D01*
X31350Y181199D01*
X31422Y181261D01*
X31474Y181313D01*
X31506Y181355D01*
X31516Y181365D01*
X31610Y181480D01*
X31683Y181605D01*
X31745Y181719D01*
X31808Y181834D01*
X31849Y181938D01*
X31880Y182021D01*
X31891Y182073D01*
X31901Y182094D01*
X31943Y182260D01*
X31984Y182427D01*
X32005Y182594D01*
X32016Y182750D01*
X32026Y182885D01*
X32037Y182989D01*
Y180397D01*
D01*
Y185581D01*
D02*
G37*
G36*
X45797Y177664D02*
D01*
Y177081D01*
X45787Y177175D01*
X45776Y177258D01*
X45745Y177331D01*
X45714Y177394D01*
X45683Y177446D01*
X45662Y177477D01*
X45641Y177498D01*
X45630Y177508D01*
X45568Y177560D01*
X45485Y177602D01*
X45412Y177623D01*
X45339Y177644D01*
X45266Y177654D01*
X45214Y177664D01*
X38250D01*
X38208Y177654D01*
X38167Y177644D01*
X38146Y177633D01*
X38135D01*
X38104Y177602D01*
X38083Y177560D01*
X38073Y177529D01*
X38063Y177519D01*
X38042Y177446D01*
X38031Y177373D01*
X38021Y177310D01*
Y177290D01*
X38010Y177175D01*
X38000Y177050D01*
Y176779D01*
X38010Y176665D01*
Y176623D01*
X38021Y176592D01*
Y176571D01*
X38031Y176478D01*
X38042Y176405D01*
X38063Y176353D01*
Y176342D01*
X38083Y176280D01*
X38115Y176249D01*
X38125Y176228D01*
X38135Y176217D01*
X38177Y176197D01*
X38208Y176176D01*
X38239D01*
X38250D01*
X44569D01*
Y176165D01*
X38250Y173990D01*
X38208Y173979D01*
X38167Y173958D01*
X38146Y173938D01*
X38135Y173927D01*
X38104Y173875D01*
X38083Y173823D01*
X38073Y173782D01*
X38063Y173771D01*
X38042Y173698D01*
X38031Y173625D01*
X38021Y173563D01*
Y173542D01*
X38010Y173427D01*
X38000Y173313D01*
Y173053D01*
X38010Y172938D01*
Y172845D01*
X38021Y172740D01*
X38031Y172668D01*
X38042Y172626D01*
Y172605D01*
X38073Y172543D01*
X38094Y172501D01*
X38115Y172470D01*
X38125Y172459D01*
X38208Y172397D01*
X38239Y172387D01*
X38250Y172376D01*
X44569Y170127D01*
Y170107D01*
X38250D01*
X38208Y170096D01*
X38167Y170086D01*
X38146Y170076D01*
X38135D01*
X38104Y170044D01*
X38083Y170003D01*
X38073Y169971D01*
X38063Y169961D01*
X38042Y169888D01*
X38031Y169815D01*
X38021Y169753D01*
Y169732D01*
X38010Y169617D01*
X38000Y169492D01*
Y169222D01*
X38010Y169107D01*
Y169066D01*
X38021Y169024D01*
Y169003D01*
X38031Y168910D01*
X38042Y168837D01*
X38063Y168785D01*
Y168774D01*
X38083Y168722D01*
X38115Y168681D01*
X38125Y168670D01*
X38135Y168660D01*
X38177Y168639D01*
X38208Y168618D01*
X38000D01*
D01*
X45797D01*
Y177664D01*
D02*
G37*
G36*
X32037Y176556D02*
X25084D01*
X32037D01*
D01*
D02*
G37*
G36*
X25020D02*
X24135D01*
X24645D01*
X24541Y176545D01*
X24500D01*
X24468Y176535D01*
X24458D01*
X24448D01*
X24354Y176504D01*
X24292Y176483D01*
X24250Y176462D01*
X24239Y176452D01*
X24198Y176400D01*
X24177Y176347D01*
X24156Y176306D01*
Y176295D01*
X24146Y176212D01*
X24135Y176139D01*
Y176176D01*
Y171600D01*
X24146Y171559D01*
X24156Y171528D01*
X24167Y171507D01*
Y171496D01*
X24198Y171465D01*
X24229Y171434D01*
X24260Y171423D01*
X24271Y171413D01*
X24343Y171392D01*
X24406Y171382D01*
X24458Y171371D01*
X24479D01*
X24573Y171361D01*
X24677Y171351D01*
X24135D01*
X24885D01*
X24979Y171361D01*
X25041Y171371D01*
X25051D01*
X25062D01*
X25145Y171392D01*
X25208Y171413D01*
X25249Y171423D01*
X25260Y171434D01*
X25312Y171455D01*
X25353Y171486D01*
X25364Y171507D01*
X25374Y171517D01*
X25395Y171559D01*
X25416Y171590D01*
Y174682D01*
X26342Y173776D01*
X26592Y173537D01*
X26811Y173318D01*
X27019Y173131D01*
X27185Y172975D01*
X27331Y172850D01*
X27435Y172756D01*
X27477Y172725D01*
X27508Y172704D01*
X27519Y172683D01*
X27529D01*
X27716Y172537D01*
X27893Y172402D01*
X28049Y172298D01*
X28185Y172204D01*
X28299Y172131D01*
X28393Y172079D01*
X28445Y172048D01*
X28466Y172038D01*
X28622Y171954D01*
X28768Y171892D01*
X28903Y171840D01*
X29018Y171798D01*
X29122Y171767D01*
X29195Y171746D01*
X29236Y171736D01*
X29257D01*
X29528Y171694D01*
X29653Y171684D01*
X29767Y171673D01*
X29861Y171663D01*
X29934D01*
X29975D01*
X29996D01*
X30152Y171673D01*
X30308Y171684D01*
X30444Y171715D01*
X30569Y171736D01*
X30662Y171767D01*
X30746Y171798D01*
X30787Y171809D01*
X30808Y171819D01*
X30944Y171882D01*
X31068Y171954D01*
X31172Y172027D01*
X31277Y172100D01*
X31350Y172163D01*
X31402Y172215D01*
X31443Y172256D01*
X31454Y172267D01*
X31547Y172381D01*
X31631Y172506D01*
X31703Y172631D01*
X31766Y172746D01*
X31818Y172860D01*
X31849Y172943D01*
X31870Y172995D01*
X31880Y173006D01*
Y173016D01*
X31932Y173193D01*
X31974Y173370D01*
X31995Y173547D01*
X32016Y173714D01*
X32026Y173849D01*
X32037Y173964D01*
Y174213D01*
X32026Y174349D01*
X32016Y174474D01*
X32005Y174578D01*
X31984Y174671D01*
X31974Y174744D01*
X31964Y174786D01*
Y174807D01*
X31932Y174932D01*
X31901Y175057D01*
X31880Y175171D01*
X31849Y175265D01*
X31828Y175348D01*
X31808Y175410D01*
X31787Y175452D01*
Y175463D01*
X31745Y175567D01*
X31714Y175660D01*
X31672Y175744D01*
X31641Y175817D01*
X31610Y175869D01*
X31589Y175921D01*
X31578Y175942D01*
X31568Y175952D01*
X31526Y176025D01*
X31495Y176077D01*
X31443Y176171D01*
X31402Y176212D01*
X31391Y176233D01*
X31339Y176275D01*
X31297Y176316D01*
X31277Y176327D01*
X31266Y176337D01*
X31183Y176368D01*
X31152Y176379D01*
X31141D01*
X31089Y176389D01*
X31037Y176400D01*
X31006Y176410D01*
X30985D01*
X30912D01*
X30829D01*
X30766D01*
X30756D01*
X30746D01*
X30610D01*
X30496Y176400D01*
X30454D01*
X30433D01*
X30413D01*
X30402D01*
X30308Y176389D01*
X30236Y176379D01*
X30194Y176368D01*
X30173D01*
X30121Y176347D01*
X30090Y176327D01*
X30069Y176306D01*
X30059D01*
X30038Y176275D01*
X30027Y176233D01*
Y176202D01*
X30038Y176139D01*
X30069Y176066D01*
X30100Y176014D01*
X30111Y176004D01*
Y175994D01*
X30184Y175879D01*
X30246Y175765D01*
X30267Y175723D01*
X30288Y175681D01*
X30308Y175660D01*
Y175650D01*
X30392Y175483D01*
X30454Y175327D01*
X30485Y175265D01*
X30496Y175213D01*
X30517Y175181D01*
Y175171D01*
X30569Y174952D01*
X30590Y174848D01*
X30600Y174744D01*
X30610Y174661D01*
Y174536D01*
X30600Y174359D01*
X30590Y174286D01*
X30569Y174224D01*
X30558Y174172D01*
X30538Y174130D01*
X30527Y174109D01*
Y174099D01*
X30465Y173974D01*
X30392Y173880D01*
X30340Y173818D01*
X30329Y173797D01*
X30319D01*
X30215Y173714D01*
X30121Y173651D01*
X30079Y173630D01*
X30048Y173620D01*
X30027Y173610D01*
X30017D01*
X29882Y173568D01*
X29767Y173547D01*
X29715Y173537D01*
X29673D01*
X29653D01*
X29642D01*
X29476Y173547D01*
X29330Y173558D01*
X29267Y173568D01*
X29226Y173578D01*
X29195Y173589D01*
X29184D01*
X29007Y173641D01*
X28914Y173672D01*
X28830Y173703D01*
X28768Y173734D01*
X28716Y173766D01*
X28674Y173776D01*
X28664Y173787D01*
X28560Y173839D01*
X28445Y173901D01*
X28341Y173964D01*
X28237Y174026D01*
X28154Y174089D01*
X28091Y174130D01*
X28049Y174161D01*
X28029Y174172D01*
X27893Y174266D01*
X27768Y174370D01*
X27633Y174484D01*
X27519Y174588D01*
X27415Y174671D01*
X27342Y174755D01*
X27290Y174796D01*
X27269Y174817D01*
X25832Y176160D01*
X25749Y176243D01*
X25676Y176306D01*
X25624Y176347D01*
X25603Y176358D01*
X25530Y176410D01*
X25457Y176452D01*
X25405Y176472D01*
X25395Y176483D01*
X25385D01*
X25291Y176514D01*
X25208Y176524D01*
X25145Y176545D01*
X25135D01*
X25124D01*
X25020Y176556D01*
D02*
G37*
G36*
X31953Y167197D02*
X24135D01*
X29986D01*
X29934Y167187D01*
X29892D01*
X29861D01*
X29850D01*
X29840D01*
X29757Y167166D01*
X29705Y167145D01*
X29673Y167124D01*
X29663Y167114D01*
X29632Y167072D01*
X29621Y167031D01*
Y166978D01*
X29642Y166906D01*
X29673Y166833D01*
X29705Y166770D01*
X29715Y166760D01*
Y166749D01*
X30402Y165500D01*
X25353D01*
Y166947D01*
X25343Y166978D01*
X25332Y167010D01*
X25322Y167031D01*
X25312Y167041D01*
X25280Y167072D01*
X25249Y167093D01*
X25218Y167114D01*
X25208Y167124D01*
X25145Y167145D01*
X25083Y167155D01*
X25041Y167166D01*
X25031D01*
X25020D01*
X24927Y167176D01*
X24833D01*
X24791D01*
X24760D01*
X24739D01*
X24729D01*
X24614D01*
X24531Y167166D01*
X24468D01*
X24458D01*
X24448D01*
X24375Y167145D01*
X24312Y167135D01*
X24271Y167114D01*
X24260D01*
X24219Y167093D01*
X24177Y167062D01*
X24167Y167051D01*
X24156Y167041D01*
X24135Y166978D01*
Y167010D01*
Y162419D01*
Y162627D01*
X24146Y162596D01*
X24156Y162575D01*
Y162565D01*
X24187Y162533D01*
X24219Y162513D01*
X24250Y162492D01*
X24260D01*
X24323Y162471D01*
X24385Y162450D01*
X24427Y162440D01*
X24448D01*
X24541Y162429D01*
X24635Y162419D01*
X24854D01*
X24937Y162429D01*
X24999Y162440D01*
X25020D01*
X25093Y162450D01*
X25155Y162471D01*
X25197Y162481D01*
X25208Y162492D01*
X25260Y162513D01*
X25291Y162544D01*
X25301Y162554D01*
X25312Y162565D01*
X25332Y162596D01*
X25353Y162627D01*
Y163928D01*
X31766D01*
X31797D01*
X31828Y163939D01*
X31839Y163949D01*
X31849Y163960D01*
X31880Y163980D01*
X31901Y164012D01*
X31912Y164043D01*
Y164053D01*
X31922Y164116D01*
X31932Y164189D01*
X31943Y164251D01*
Y164272D01*
X31953Y164386D01*
Y163939D01*
Y164855D01*
X31943Y164917D01*
Y165073D01*
X31932Y165115D01*
Y165126D01*
X31922Y165178D01*
X31912Y165219D01*
X31901Y165240D01*
Y165250D01*
X31880Y165302D01*
X31870Y165313D01*
Y165323D01*
X30787Y166989D01*
X30756Y167041D01*
X30735Y167072D01*
X30714Y167093D01*
X30704Y167103D01*
X30673Y167135D01*
X30631Y167145D01*
X30600Y167166D01*
X30590D01*
X30538Y167176D01*
X30485Y167187D01*
X30454Y167197D01*
X31953D01*
D02*
G37*
G36*
X44350Y166890D02*
X43882D01*
X43830Y166880D01*
X43788D01*
X43757D01*
X43746D01*
X43736D01*
X43653Y166859D01*
X43601Y166838D01*
X43569Y166817D01*
X43559Y166807D01*
X43528Y166765D01*
X43517Y166724D01*
Y166671D01*
X43538Y166599D01*
X43569Y166526D01*
X43601Y166463D01*
X43611Y166453D01*
Y166442D01*
X44298Y165193D01*
X39249D01*
Y166640D01*
X39239Y166671D01*
X39228Y166703D01*
X39218Y166724D01*
X39208Y166734D01*
X39176Y166765D01*
X39145Y166786D01*
X39114Y166807D01*
X39103Y166817D01*
X39041Y166838D01*
X38979Y166848D01*
X38937Y166859D01*
X38927D01*
X38916D01*
X38822Y166869D01*
X38729D01*
X38687D01*
X38656D01*
X38635D01*
X38625D01*
X38510D01*
X38427Y166859D01*
X38364D01*
X38354D01*
X38344D01*
X38271Y166838D01*
X38208Y166828D01*
X38167Y166807D01*
X38156D01*
X38115Y166786D01*
X38073Y166755D01*
X38063Y166744D01*
X38052Y166734D01*
X38031Y166671D01*
Y166703D01*
Y162112D01*
X45849D01*
D01*
X38750D01*
X38833Y162122D01*
X38895Y162133D01*
X38916D01*
X38989Y162143D01*
X39051Y162164D01*
X39093Y162174D01*
X39103Y162185D01*
X39156Y162206D01*
X39187Y162237D01*
X39197Y162247D01*
X39208Y162258D01*
X39228Y162289D01*
X39249Y162320D01*
Y163621D01*
X45662D01*
X45693D01*
X45724Y163632D01*
X45735Y163642D01*
X45745Y163653D01*
X45776Y163673D01*
X45797Y163705D01*
X45807Y163736D01*
Y163746D01*
X45818Y163809D01*
X45828Y163882D01*
X45839Y163944D01*
Y163965D01*
X45849Y164079D01*
Y164548D01*
X45839Y164610D01*
Y164766D01*
X45828Y164808D01*
Y164819D01*
X45818Y164871D01*
X45807Y164912D01*
X45797Y164933D01*
Y164943D01*
X45776Y164995D01*
X45766Y165006D01*
Y165016D01*
X44683Y166682D01*
X44652Y166734D01*
X44631Y166765D01*
X44610Y166786D01*
X44600Y166796D01*
X44569Y166828D01*
X44527Y166838D01*
X44496Y166859D01*
X44485D01*
X44433Y166869D01*
X44381Y166880D01*
X44350Y166890D01*
D02*
G37*
%LPD*%
G36*
X45797Y170305D02*
X45787Y170461D01*
X45776Y170586D01*
X45766Y170627D01*
X45755Y170669D01*
X45745Y170690D01*
Y170700D01*
X45703Y170815D01*
X45651Y170908D01*
X45610Y170971D01*
X45599Y170981D01*
X45589Y170992D01*
X45506Y171075D01*
X45412Y171137D01*
X45370Y171169D01*
X45339Y171179D01*
X45318Y171200D01*
X45308D01*
X45173Y171262D01*
X45037Y171314D01*
X44975Y171335D01*
X44933Y171356D01*
X44902Y171366D01*
X44891D01*
X40269Y173115D01*
Y173136D01*
X44902Y174822D01*
X45068Y174885D01*
X45141Y174906D01*
X45204Y174937D01*
X45256Y174958D01*
X45287Y174979D01*
X45308Y174999D01*
X45318D01*
X45433Y175072D01*
X45526Y175156D01*
X45579Y175218D01*
X45599Y175228D01*
Y175239D01*
X45662Y175343D01*
X45714Y175458D01*
X45724Y175499D01*
X45735Y175541D01*
X45745Y175562D01*
Y175572D01*
X45776Y175728D01*
X45787Y175884D01*
X45797Y175947D01*
Y170305D01*
D02*
G37*
G36*
Y168618D02*
X45162D01*
X45266Y168629D01*
X45349Y168639D01*
X45401Y168649D01*
X45422Y168660D01*
X45506Y168691D01*
X45568Y168733D01*
X45610Y168764D01*
X45620Y168774D01*
X45672Y168837D01*
X45714Y168899D01*
X45735Y168951D01*
X45745Y168962D01*
Y168972D01*
X45776Y169066D01*
X45787Y169149D01*
X45797Y169211D01*
Y168618D01*
D02*
G37*
G36*
X38042Y162289D02*
X38052Y162268D01*
Y162258D01*
X38083Y162226D01*
X38115Y162206D01*
X38146Y162185D01*
X38156D01*
X38219Y162164D01*
X38281Y162143D01*
X38323Y162133D01*
X38344D01*
X38437Y162122D01*
X38531Y162112D01*
X38031D01*
Y162320D01*
X38042Y162289D01*
D02*
G37*
%LPC*%
G36*
X22524Y50488D02*
X16118D01*
Y45408D01*
X22524D01*
Y46602D01*
X18221D01*
X22524Y49239D01*
Y50488D01*
D02*
G37*
G36*
Y44041D02*
X16118D01*
Y41480D01*
X16125Y41355D01*
X16132Y41237D01*
X16139Y41133D01*
X16146Y41029D01*
X16160Y40932D01*
X16173Y40849D01*
X16187Y40772D01*
X16194Y40703D01*
X16208Y40640D01*
X16222Y40585D01*
X16229Y40543D01*
X16236Y40508D01*
X16243Y40488D01*
X16250Y40474D01*
Y40467D01*
X16326Y40266D01*
X16409Y40085D01*
X16493Y39933D01*
X16576Y39801D01*
X16611Y39745D01*
X16645Y39696D01*
X16680Y39662D01*
X16708Y39627D01*
X16729Y39599D01*
X16749Y39579D01*
X16757Y39572D01*
X16763Y39565D01*
X16937Y39405D01*
X17124Y39266D01*
X17312Y39148D01*
X17492Y39051D01*
X17575Y39009D01*
X17652Y38975D01*
X17721Y38947D01*
X17777Y38919D01*
X17825Y38905D01*
X17867Y38892D01*
X17888Y38878D01*
X17895D01*
X18117Y38808D01*
X18346Y38760D01*
X18575Y38725D01*
X18790Y38704D01*
X18887Y38690D01*
X18977Y38683D01*
X19054D01*
X19123Y38676D01*
X19421D01*
X19581Y38683D01*
X19727Y38697D01*
X19873Y38711D01*
X20004Y38725D01*
X20129Y38746D01*
X20247Y38767D01*
X20351Y38780D01*
X20442Y38801D01*
X20525Y38822D01*
X20601Y38843D01*
X20657Y38857D01*
X20705Y38871D01*
X20740Y38884D01*
X20761Y38892D01*
X20768D01*
X20990Y38975D01*
X21191Y39072D01*
X21372Y39176D01*
X21448Y39225D01*
X21517Y39273D01*
X21587Y39322D01*
X21642Y39363D01*
X21691Y39405D01*
X21732Y39433D01*
X21767Y39461D01*
X21788Y39481D01*
X21802Y39495D01*
X21809Y39502D01*
X21955Y39662D01*
X22079Y39821D01*
X22184Y39981D01*
X22260Y40134D01*
X22322Y40266D01*
X22350Y40321D01*
X22364Y40370D01*
X22378Y40411D01*
X22392Y40439D01*
X22399Y40460D01*
Y40467D01*
X22420Y40550D01*
X22440Y40640D01*
X22468Y40835D01*
X22496Y41036D01*
X22510Y41230D01*
X22517Y41320D01*
Y41480D01*
X22524Y41550D01*
Y38857D01*
Y44041D01*
D02*
G37*
G36*
Y35748D02*
D01*
X16118Y33464D01*
Y32076D01*
X22524Y29786D01*
Y35748D01*
D02*
G37*
%LPD*%
G36*
X16118Y46699D02*
Y49294D01*
X20324D01*
X16118Y46699D01*
D02*
G37*
G36*
X21441Y41903D02*
X21434Y41785D01*
Y41674D01*
X21427Y41577D01*
X21420Y41487D01*
X21413Y41411D01*
Y41348D01*
X21406Y41286D01*
X21399Y41237D01*
X21392Y41196D01*
X21385Y41168D01*
Y41140D01*
X21378Y41126D01*
Y41112D01*
X21344Y40980D01*
X21295Y40862D01*
X21247Y40758D01*
X21198Y40675D01*
X21149Y40606D01*
X21108Y40550D01*
X21080Y40522D01*
X21073Y40508D01*
X20983Y40425D01*
X20886Y40349D01*
X20782Y40286D01*
X20685Y40238D01*
X20594Y40196D01*
X20518Y40161D01*
X20497Y40155D01*
X20476Y40148D01*
X20462Y40141D01*
X20456D01*
X20379Y40120D01*
X20296Y40099D01*
X20109Y40064D01*
X19921Y40044D01*
X19741Y40023D01*
X19650D01*
X19574Y40016D01*
X19505D01*
X19442Y40009D01*
X19387D01*
X19352D01*
X19324D01*
X19317D01*
X19185D01*
X19054Y40016D01*
X18936Y40023D01*
X18818Y40030D01*
X18713Y40037D01*
X18623Y40051D01*
X18533Y40064D01*
X18450Y40071D01*
X18380Y40085D01*
X18318Y40099D01*
X18269Y40113D01*
X18221Y40120D01*
X18186Y40127D01*
X18165Y40134D01*
X18151Y40141D01*
X18145D01*
X17992Y40196D01*
X17867Y40252D01*
X17763Y40307D01*
X17673Y40363D01*
X17610Y40404D01*
X17561Y40446D01*
X17534Y40474D01*
X17527Y40481D01*
X17464Y40564D01*
X17409Y40647D01*
X17360Y40738D01*
X17319Y40821D01*
X17291Y40890D01*
X17270Y40946D01*
X17263Y40987D01*
X17256Y40994D01*
Y41001D01*
X17249Y41050D01*
X17235Y41105D01*
X17221Y41223D01*
X17214Y41355D01*
X17208Y41487D01*
X17201Y41598D01*
Y42750D01*
X21441D01*
Y41903D01*
D02*
G37*
G36*
X22524Y31160D02*
X17784Y32729D01*
X22524Y34353D01*
Y31160D01*
D02*
G37*
%LPC*%
G36*
X32037Y113081D02*
X24000D01*
X24958D01*
X24874Y113071D01*
X24812Y113060D01*
X24760Y113050D01*
X24749D01*
X24687Y113029D01*
X24645Y113019D01*
X24614Y113008D01*
X24604D01*
X24531Y112956D01*
X24510Y112935D01*
X24500Y112925D01*
X24458Y112863D01*
X24416Y112790D01*
X24385Y112727D01*
X24364Y112706D01*
Y112696D01*
X24302Y112550D01*
X24239Y112415D01*
X24219Y112352D01*
X24198Y112300D01*
X24187Y112269D01*
Y112259D01*
X24135Y112050D01*
X24114Y111946D01*
X24094Y111853D01*
X24083Y111769D01*
X24073Y111707D01*
X24062Y111655D01*
Y111644D01*
X24031Y111374D01*
X24010Y111249D01*
Y111134D01*
X24000Y111041D01*
Y110895D01*
X24010Y110656D01*
X24021Y110427D01*
X24052Y110229D01*
X24083Y110041D01*
X24104Y109896D01*
X24135Y109781D01*
X24146Y109739D01*
Y109708D01*
X24156Y109698D01*
Y109687D01*
X24219Y109490D01*
X24292Y109302D01*
X24375Y109146D01*
X24448Y109011D01*
X24510Y108896D01*
X24562Y108813D01*
X24604Y108761D01*
X24614Y108740D01*
X24739Y108605D01*
X24864Y108480D01*
X24989Y108376D01*
X25114Y108282D01*
X25218Y108220D01*
X25301Y108168D01*
X25353Y108136D01*
X25374Y108126D01*
X25551Y108053D01*
X25728Y107991D01*
X25895Y107949D01*
X26061Y107928D01*
X26197Y107907D01*
X26311Y107897D01*
X24000D01*
X32037D01*
X26530D01*
X26655Y107918D01*
X26759Y107939D01*
X26852Y107959D01*
X26936Y107980D01*
X26998Y108001D01*
X27040Y108011D01*
X27050Y108022D01*
X27258Y108126D01*
X27352Y108188D01*
X27435Y108240D01*
X27498Y108292D01*
X27550Y108334D01*
X27581Y108365D01*
X27591Y108376D01*
X27758Y108553D01*
X27831Y108647D01*
X27893Y108730D01*
X27935Y108803D01*
X27966Y108865D01*
X27987Y108907D01*
X27997Y108917D01*
X28091Y109167D01*
X28133Y109292D01*
X28164Y109406D01*
X28185Y109500D01*
X28195Y109573D01*
X28206Y109625D01*
Y109646D01*
X28216D01*
X28247Y109521D01*
X28289Y109406D01*
X28331Y109302D01*
X28372Y109219D01*
X28414Y109146D01*
X28435Y109084D01*
X28455Y109052D01*
X28466Y109042D01*
X28539Y108948D01*
X28601Y108865D01*
X28674Y108792D01*
X28736Y108730D01*
X28799Y108678D01*
X28841Y108647D01*
X28872Y108626D01*
X28882Y108615D01*
X29070Y108501D01*
X29163Y108449D01*
X29247Y108417D01*
X29320Y108386D01*
X29372Y108365D01*
X29413Y108345D01*
X29424D01*
X29663Y108292D01*
X29767Y108272D01*
X29871Y108261D01*
X29965Y108251D01*
X30027D01*
X30079D01*
X30090D01*
X30256Y108261D01*
X30413Y108272D01*
X30548Y108303D01*
X30673Y108324D01*
X30766Y108355D01*
X30839Y108386D01*
X30881Y108397D01*
X30902Y108407D01*
X31037Y108469D01*
X31152Y108542D01*
X31256Y108615D01*
X31350Y108698D01*
X31422Y108761D01*
X31474Y108813D01*
X31506Y108855D01*
X31516Y108865D01*
X31610Y108980D01*
X31683Y109105D01*
X31745Y109219D01*
X31808Y109334D01*
X31849Y109438D01*
X31880Y109521D01*
X31891Y109573D01*
X31901Y109594D01*
X31943Y109760D01*
X31984Y109927D01*
X32005Y110093D01*
X32016Y110250D01*
X32026Y110385D01*
X32037Y110489D01*
Y110739D01*
X32026Y110895D01*
X32016Y111030D01*
X31995Y111145D01*
X31984Y111249D01*
X31964Y111322D01*
X31953Y111363D01*
Y111384D01*
X31922Y111520D01*
X31891Y111644D01*
X31860Y111749D01*
X31828Y111853D01*
X31808Y111926D01*
X31787Y111988D01*
X31776Y112030D01*
X31766Y112040D01*
X31724Y112144D01*
X31693Y112227D01*
X31651Y112311D01*
X31620Y112384D01*
X31589Y112436D01*
X31568Y112477D01*
X31558Y112498D01*
X31547Y112509D01*
X31506Y112571D01*
X31474Y112623D01*
X31422Y112696D01*
X31391Y112738D01*
X31381Y112748D01*
X31339Y112790D01*
X31308Y112821D01*
X31287Y112831D01*
X31277Y112842D01*
X31204Y112873D01*
X31172Y112883D01*
X31162D01*
X31110Y112894D01*
X31058D01*
X31016Y112904D01*
X30996D01*
X30912D01*
X30839D01*
X30777D01*
X30756D01*
X30746D01*
X30621D01*
X30538Y112894D01*
X30475D01*
X30465D01*
X30454D01*
X30381Y112883D01*
X30319Y112873D01*
X30288Y112863D01*
X30277D01*
X30246Y112842D01*
X30225Y112831D01*
X30204Y112811D01*
X30184Y112748D01*
Y112717D01*
X30194Y112654D01*
X30236Y112581D01*
X30267Y112519D01*
X30277Y112509D01*
Y112498D01*
X30350Y112373D01*
X30413Y112248D01*
X30444Y112196D01*
X30465Y112155D01*
X30485Y112134D01*
Y112123D01*
X30569Y111957D01*
X30631Y111801D01*
X30662Y111728D01*
X30673Y111676D01*
X30694Y111644D01*
Y111634D01*
X30746Y111426D01*
X30766Y111322D01*
X30777Y111228D01*
X30787Y111155D01*
Y111041D01*
X30777Y110853D01*
X30766Y110770D01*
X30746Y110708D01*
X30735Y110645D01*
X30714Y110603D01*
X30704Y110583D01*
Y110572D01*
X30642Y110437D01*
X30569Y110322D01*
X30548Y110291D01*
X30517Y110260D01*
X30506Y110250D01*
X30496Y110239D01*
X30392Y110156D01*
X30298Y110093D01*
X30256Y110073D01*
X30225Y110052D01*
X30204Y110041D01*
X30194D01*
X30059Y110000D01*
X29944Y109979D01*
X29892Y109968D01*
X29850D01*
X29830D01*
X29819D01*
X29632Y109989D01*
X29548Y110000D01*
X29486Y110021D01*
X29424Y110041D01*
X29382Y110052D01*
X29351Y110073D01*
X29340D01*
X29195Y110156D01*
X29080Y110250D01*
X29038Y110291D01*
X29007Y110322D01*
X28986Y110343D01*
X28976Y110354D01*
X28882Y110499D01*
X28809Y110645D01*
X28778Y110708D01*
X28768Y110760D01*
X28747Y110791D01*
Y110801D01*
X28705Y111010D01*
X28695Y111114D01*
X28684Y111207D01*
X28674Y111291D01*
Y112144D01*
X28664Y112186D01*
X28653Y112207D01*
X28643Y112217D01*
X28622Y112248D01*
X28591Y112269D01*
X28570Y112290D01*
X28560Y112300D01*
X28508Y112321D01*
X28445Y112332D01*
X28403Y112342D01*
X28393D01*
X28383D01*
X28299Y112352D01*
X28206D01*
X28164D01*
X28133D01*
X28112D01*
X28102D01*
X27977D01*
X27883Y112342D01*
X27821D01*
X27810D01*
X27800D01*
X27727Y112332D01*
X27664Y112321D01*
X27633Y112300D01*
X27623D01*
X27581Y112269D01*
X27560Y112238D01*
X27539Y112217D01*
Y112207D01*
X27529Y112155D01*
X27519Y112113D01*
Y111239D01*
X27508Y111103D01*
X27487Y110978D01*
X27477Y110874D01*
X27456Y110791D01*
X27435Y110718D01*
X27425Y110676D01*
Y110666D01*
X27394Y110552D01*
X27352Y110447D01*
X27310Y110364D01*
X27279Y110281D01*
X27237Y110229D01*
X27217Y110177D01*
X27196Y110156D01*
X27185Y110145D01*
X27071Y110010D01*
X26946Y109906D01*
X26894Y109875D01*
X26863Y109854D01*
X26831Y109833D01*
X26821D01*
X26738Y109792D01*
X26655Y109771D01*
X26509Y109729D01*
X26436D01*
X26384Y109719D01*
X26353D01*
X26342D01*
X26165Y109729D01*
X26092Y109750D01*
X26030Y109760D01*
X25967Y109781D01*
X25926Y109802D01*
X25905Y109812D01*
X25895D01*
X25759Y109885D01*
X25645Y109968D01*
X25603Y110010D01*
X25582Y110041D01*
X25561Y110062D01*
X25551Y110073D01*
X25457Y110218D01*
X25385Y110354D01*
X25364Y110416D01*
X25343Y110468D01*
X25332Y110499D01*
Y110510D01*
X25291Y110708D01*
X25280Y110801D01*
X25270Y110885D01*
X25260Y110968D01*
Y111228D01*
X25270Y111353D01*
X25280Y111478D01*
X25301Y111582D01*
X25312Y111665D01*
X25322Y111728D01*
X25332Y111769D01*
Y111780D01*
X25364Y111884D01*
X25395Y111988D01*
X25426Y112082D01*
X25457Y112155D01*
X25478Y112217D01*
X25499Y112269D01*
X25510Y112300D01*
Y112311D01*
X25572Y112467D01*
X25603Y112529D01*
X25634Y112581D01*
X25655Y112623D01*
X25676Y112654D01*
X25686Y112675D01*
Y112686D01*
X25738Y112779D01*
X25759Y112842D01*
X25770Y112883D01*
Y112925D01*
X25749Y112956D01*
X25718Y112998D01*
X25676Y113029D01*
X25666Y113040D01*
X25655D01*
X25603Y113050D01*
X25541Y113060D01*
X25405Y113071D01*
X25343Y113081D01*
X32037D01*
D02*
G37*
G36*
X25020Y104056D02*
X24645D01*
X24541Y104045D01*
X24500D01*
X24468Y104035D01*
X24458D01*
X24448D01*
X24354Y104004D01*
X24292Y103983D01*
X24250Y103962D01*
X24239Y103952D01*
X24198Y103900D01*
X24177Y103848D01*
X24156Y103806D01*
Y103795D01*
X24146Y103712D01*
X24135Y103639D01*
Y103733D01*
Y99101D01*
X24146Y99059D01*
X24156Y99028D01*
X24167Y99007D01*
Y98996D01*
X24198Y98965D01*
X24229Y98934D01*
X24260Y98923D01*
X24271Y98913D01*
X24343Y98892D01*
X24406Y98882D01*
X24458Y98871D01*
X24479D01*
X24573Y98861D01*
X24677Y98851D01*
X24135D01*
X32037D01*
X24885D01*
X24979Y98861D01*
X25041Y98871D01*
X25051D01*
X25062D01*
X25145Y98892D01*
X25208Y98913D01*
X25249Y98923D01*
X25260Y98934D01*
X25312Y98955D01*
X25353Y98986D01*
X25364Y99007D01*
X25374Y99017D01*
X25395Y99059D01*
X25416Y99090D01*
Y102182D01*
X26342Y101276D01*
X26592Y101037D01*
X26811Y100818D01*
X27019Y100631D01*
X27185Y100475D01*
X27331Y100350D01*
X27435Y100256D01*
X27477Y100225D01*
X27508Y100204D01*
X27519Y100183D01*
X27529D01*
X27716Y100037D01*
X27893Y99902D01*
X28049Y99798D01*
X28185Y99704D01*
X28299Y99631D01*
X28393Y99579D01*
X28445Y99548D01*
X28466Y99538D01*
X28622Y99454D01*
X28768Y99392D01*
X28903Y99340D01*
X29018Y99298D01*
X29122Y99267D01*
X29195Y99246D01*
X29236Y99236D01*
X29257D01*
X29528Y99194D01*
X29653Y99184D01*
X29767Y99173D01*
X29861Y99163D01*
X29934D01*
X29975D01*
X29996D01*
X30152Y99173D01*
X30308Y99184D01*
X30444Y99215D01*
X30569Y99236D01*
X30662Y99267D01*
X30746Y99298D01*
X30787Y99309D01*
X30808Y99319D01*
X30944Y99382D01*
X31068Y99454D01*
X31172Y99527D01*
X31277Y99600D01*
X31350Y99663D01*
X31402Y99715D01*
X31443Y99756D01*
X31454Y99767D01*
X31547Y99881D01*
X31631Y100006D01*
X31703Y100131D01*
X31766Y100246D01*
X31818Y100360D01*
X31849Y100443D01*
X31870Y100495D01*
X31880Y100506D01*
Y100516D01*
X31932Y100693D01*
X31974Y100870D01*
X31995Y101047D01*
X32016Y101214D01*
X32026Y101349D01*
X32037Y101464D01*
Y101713D01*
X32026Y101849D01*
X32016Y101974D01*
X32005Y102078D01*
X31984Y102171D01*
X31974Y102244D01*
X31964Y102286D01*
Y102307D01*
X31932Y102432D01*
X31901Y102557D01*
X31880Y102671D01*
X31849Y102765D01*
X31828Y102848D01*
X31808Y102910D01*
X31787Y102952D01*
Y102963D01*
X31745Y103067D01*
X31714Y103160D01*
X31672Y103244D01*
X31641Y103316D01*
X31610Y103369D01*
X31589Y103421D01*
X31578Y103442D01*
X31568Y103452D01*
X31526Y103525D01*
X31495Y103577D01*
X31443Y103671D01*
X31402Y103712D01*
X31391Y103733D01*
X31339Y103775D01*
X31297Y103816D01*
X31277Y103827D01*
X31266Y103837D01*
X31183Y103868D01*
X31152Y103879D01*
X31141D01*
X31089Y103889D01*
X31037Y103900D01*
X31006Y103910D01*
X30985D01*
X30912D01*
X30829D01*
X30766D01*
X30756D01*
X30746D01*
X30610D01*
X30496Y103900D01*
X30454D01*
X30433D01*
X30413D01*
X30402D01*
X30308Y103889D01*
X30236Y103879D01*
X30194Y103868D01*
X30173D01*
X30121Y103848D01*
X30090Y103827D01*
X30069Y103806D01*
X30059D01*
X30038Y103775D01*
X30027Y103733D01*
Y103702D01*
X30038Y103639D01*
X30069Y103566D01*
X30100Y103514D01*
X30111Y103504D01*
Y103493D01*
X30184Y103379D01*
X30246Y103264D01*
X30267Y103223D01*
X30288Y103181D01*
X30308Y103160D01*
Y103150D01*
X30392Y102983D01*
X30454Y102827D01*
X30485Y102765D01*
X30496Y102713D01*
X30517Y102682D01*
Y102671D01*
X30569Y102453D01*
X30590Y102348D01*
X30600Y102244D01*
X30610Y102161D01*
Y102036D01*
X30600Y101859D01*
X30590Y101786D01*
X30569Y101724D01*
X30558Y101672D01*
X30538Y101630D01*
X30527Y101609D01*
Y101599D01*
X30465Y101474D01*
X30392Y101380D01*
X30340Y101318D01*
X30329Y101297D01*
X30319D01*
X30215Y101214D01*
X30121Y101151D01*
X30079Y101130D01*
X30048Y101120D01*
X30027Y101110D01*
X30017D01*
X29882Y101068D01*
X29767Y101047D01*
X29715Y101037D01*
X29673D01*
X29653D01*
X29642D01*
X29476Y101047D01*
X29330Y101058D01*
X29267Y101068D01*
X29226Y101078D01*
X29195Y101089D01*
X29184D01*
X29007Y101141D01*
X28914Y101172D01*
X28830Y101203D01*
X28768Y101234D01*
X28716Y101266D01*
X28674Y101276D01*
X28664Y101287D01*
X28560Y101339D01*
X28445Y101401D01*
X28341Y101464D01*
X28237Y101526D01*
X28154Y101588D01*
X28091Y101630D01*
X28049Y101661D01*
X28029Y101672D01*
X27893Y101765D01*
X27768Y101870D01*
X27633Y101984D01*
X27519Y102088D01*
X27415Y102171D01*
X27342Y102255D01*
X27290Y102296D01*
X27269Y102317D01*
X25832Y103660D01*
X25749Y103743D01*
X25676Y103806D01*
X25624Y103848D01*
X25603Y103858D01*
X25530Y103910D01*
X25457Y103952D01*
X25405Y103972D01*
X25395Y103983D01*
X25385D01*
X25291Y104014D01*
X25208Y104024D01*
X25145Y104045D01*
X25135D01*
X25124D01*
X25020Y104056D01*
D02*
G37*
G36*
X45214Y105313D02*
X38000D01*
X38250D01*
X38208Y105302D01*
X38167Y105292D01*
X38146Y105281D01*
X38135D01*
X38104Y105250D01*
X38083Y105209D01*
X38073Y105177D01*
X38063Y105167D01*
X38042Y105094D01*
X38031Y105021D01*
X38021Y104959D01*
Y104938D01*
X38010Y104823D01*
X38000Y104699D01*
Y101076D01*
Y104428D01*
X38010Y104313D01*
Y104272D01*
X38021Y104241D01*
Y104220D01*
X38031Y104126D01*
X38042Y104053D01*
X38063Y104001D01*
Y103991D01*
X38083Y103928D01*
X38115Y103897D01*
X38125Y103876D01*
X38135Y103866D01*
X38177Y103845D01*
X38208Y103824D01*
X38239D01*
X38250D01*
X44569D01*
Y103814D01*
X38250Y101638D01*
X38208Y101628D01*
X38167Y101607D01*
X38146Y101586D01*
X38135Y101576D01*
X38104Y101523D01*
X38083Y101471D01*
X38073Y101430D01*
X38063Y101419D01*
X38042Y101347D01*
X38031Y101274D01*
X38021Y101211D01*
Y101190D01*
X38010Y101076D01*
X38000Y100961D01*
Y96266D01*
D01*
Y96870D01*
X38010Y96756D01*
Y96714D01*
X38021Y96672D01*
Y96652D01*
X38031Y96558D01*
X38042Y96485D01*
X38063Y96433D01*
Y96422D01*
X38083Y96371D01*
X38115Y96329D01*
X38125Y96318D01*
X38135Y96308D01*
X38177Y96287D01*
X38208Y96266D01*
X45162D01*
X45266Y96277D01*
X45349Y96287D01*
X45401Y96298D01*
X45422Y96308D01*
X45506Y96339D01*
X45568Y96381D01*
X45610Y96412D01*
X45620Y96422D01*
X45672Y96485D01*
X45714Y96548D01*
X45735Y96600D01*
X45745Y96610D01*
Y96620D01*
X45776Y96714D01*
X45787Y96797D01*
X45797Y96860D01*
Y97953D01*
X45787Y98109D01*
X45776Y98234D01*
X45766Y98276D01*
X45755Y98317D01*
X45745Y98338D01*
Y98348D01*
X45703Y98463D01*
X45651Y98557D01*
X45610Y98619D01*
X45599Y98629D01*
X45589Y98640D01*
X45506Y98723D01*
X45412Y98786D01*
X45370Y98817D01*
X45339Y98827D01*
X45318Y98848D01*
X45308D01*
X45173Y98910D01*
X45037Y98963D01*
X44975Y98983D01*
X44933Y99004D01*
X44902Y99015D01*
X44891D01*
X40269Y100763D01*
Y100784D01*
X44902Y102471D01*
X45068Y102533D01*
X45141Y102554D01*
X45204Y102585D01*
X45256Y102606D01*
X45287Y102627D01*
X45308Y102648D01*
X45318D01*
X45433Y102721D01*
X45526Y102804D01*
X45579Y102866D01*
X45599Y102877D01*
Y102887D01*
X45662Y102991D01*
X45714Y103106D01*
X45724Y103147D01*
X45735Y103189D01*
X45745Y103210D01*
Y103220D01*
X45776Y103376D01*
X45787Y103533D01*
X45797Y103595D01*
Y104730D01*
X45787Y104823D01*
X45776Y104907D01*
X45745Y104980D01*
X45714Y105042D01*
X45683Y105094D01*
X45662Y105125D01*
X45641Y105146D01*
X45630Y105157D01*
X45568Y105209D01*
X45485Y105250D01*
X45412Y105271D01*
X45339Y105292D01*
X45266Y105302D01*
X45214Y105313D01*
D02*
G37*
G36*
X38916Y94892D02*
X38541D01*
X38437Y94882D01*
X38396D01*
X38364Y94871D01*
X38354D01*
X38344D01*
X38250Y94840D01*
X38187Y94819D01*
X38146Y94799D01*
X38135Y94788D01*
X38094Y94736D01*
X38073Y94684D01*
X38052Y94642D01*
Y94632D01*
X38042Y94549D01*
X38031Y94476D01*
Y94538D01*
Y89937D01*
X38042Y89895D01*
X38052Y89864D01*
X38063Y89843D01*
Y89833D01*
X38094Y89802D01*
X38125Y89771D01*
X38156Y89760D01*
X38167Y89750D01*
X38239Y89729D01*
X38302Y89719D01*
X38354Y89708D01*
X38375D01*
X38469Y89698D01*
X38573Y89687D01*
X38031D01*
X45932D01*
X38781D01*
X38875Y89698D01*
X38937Y89708D01*
X38947D01*
X38958D01*
X39041Y89729D01*
X39103Y89750D01*
X39145Y89760D01*
X39156Y89771D01*
X39208Y89791D01*
X39249Y89823D01*
X39260Y89843D01*
X39270Y89854D01*
X39291Y89895D01*
X39312Y89927D01*
Y93019D01*
X40238Y92113D01*
X40488Y91873D01*
X40707Y91655D01*
X40915Y91467D01*
X41081Y91311D01*
X41227Y91186D01*
X41331Y91093D01*
X41373Y91061D01*
X41404Y91041D01*
X41414Y91020D01*
X41425D01*
X41612Y90874D01*
X41789Y90739D01*
X41945Y90635D01*
X42081Y90541D01*
X42195Y90468D01*
X42289Y90416D01*
X42341Y90385D01*
X42362Y90374D01*
X42518Y90291D01*
X42664Y90229D01*
X42799Y90176D01*
X42913Y90135D01*
X43018Y90104D01*
X43091Y90083D01*
X43132Y90072D01*
X43153D01*
X43424Y90031D01*
X43549Y90020D01*
X43663Y90010D01*
X43757Y90000D01*
X43830D01*
X43871D01*
X43892D01*
X44048Y90010D01*
X44204Y90020D01*
X44340Y90052D01*
X44465Y90072D01*
X44558Y90104D01*
X44642Y90135D01*
X44683Y90145D01*
X44704Y90156D01*
X44839Y90218D01*
X44964Y90291D01*
X45068Y90364D01*
X45173Y90437D01*
X45245Y90499D01*
X45297Y90551D01*
X45339Y90593D01*
X45349Y90603D01*
X45443Y90718D01*
X45526Y90843D01*
X45599Y90968D01*
X45662Y91082D01*
X45714Y91197D01*
X45745Y91280D01*
X45766Y91332D01*
X45776Y91343D01*
Y91353D01*
X45828Y91530D01*
X45870Y91707D01*
X45891Y91884D01*
X45912Y92050D01*
X45922Y92186D01*
X45932Y92300D01*
Y92550D01*
X45922Y92685D01*
X45912Y92810D01*
X45901Y92914D01*
X45880Y93008D01*
X45870Y93081D01*
X45860Y93123D01*
Y93143D01*
X45828Y93268D01*
X45797Y93393D01*
X45776Y93508D01*
X45745Y93601D01*
X45724Y93685D01*
X45703Y93747D01*
X45683Y93789D01*
Y93799D01*
X45641Y93903D01*
X45610Y93997D01*
X45568Y94080D01*
X45537Y94153D01*
X45506Y94205D01*
X45485Y94257D01*
X45474Y94278D01*
X45464Y94288D01*
X45422Y94361D01*
X45391Y94413D01*
X45339Y94507D01*
X45297Y94549D01*
X45287Y94570D01*
X45235Y94611D01*
X45193Y94653D01*
X45173Y94663D01*
X45162Y94674D01*
X45079Y94705D01*
X45048Y94715D01*
X45037D01*
X44985Y94726D01*
X44933Y94736D01*
X44902Y94747D01*
X44881D01*
X44808D01*
X44725D01*
X44662D01*
X44652D01*
X44642D01*
X44506D01*
X44392Y94736D01*
X44350D01*
X44329D01*
X44309D01*
X44298D01*
X44204Y94726D01*
X44131Y94715D01*
X44090Y94705D01*
X44069D01*
X44017Y94684D01*
X43986Y94663D01*
X43965Y94642D01*
X43955D01*
X43934Y94611D01*
X43923Y94570D01*
Y94538D01*
X43934Y94476D01*
X43965Y94403D01*
X43996Y94351D01*
X44007Y94340D01*
Y94330D01*
X44080Y94216D01*
X44142Y94101D01*
X44163Y94059D01*
X44184Y94018D01*
X44204Y93997D01*
Y93987D01*
X44288Y93820D01*
X44350Y93664D01*
X44381Y93601D01*
X44392Y93549D01*
X44413Y93518D01*
Y93508D01*
X44465Y93289D01*
X44485Y93185D01*
X44496Y93081D01*
X44506Y92998D01*
Y92873D01*
X44496Y92696D01*
X44485Y92623D01*
X44465Y92560D01*
X44454Y92508D01*
X44433Y92467D01*
X44423Y92446D01*
Y92435D01*
X44361Y92311D01*
X44288Y92217D01*
X44236Y92154D01*
X44225Y92134D01*
X44215D01*
X44111Y92050D01*
X44017Y91988D01*
X43975Y91967D01*
X43944Y91957D01*
X43923Y91946D01*
X43913D01*
X43778Y91905D01*
X43663Y91884D01*
X43611Y91873D01*
X43569D01*
X43549D01*
X43538D01*
X43372Y91884D01*
X43226Y91894D01*
X43163Y91905D01*
X43122Y91915D01*
X43091Y91925D01*
X43080D01*
X42903Y91978D01*
X42809Y92009D01*
X42726Y92040D01*
X42664Y92071D01*
X42612Y92102D01*
X42570Y92113D01*
X42560Y92123D01*
X42456Y92175D01*
X42341Y92238D01*
X42237Y92300D01*
X42133Y92363D01*
X42050Y92425D01*
X41987Y92467D01*
X41945Y92498D01*
X41925Y92508D01*
X41789Y92602D01*
X41664Y92706D01*
X41529Y92821D01*
X41414Y92925D01*
X41310Y93008D01*
X41238Y93091D01*
X41186Y93133D01*
X41165Y93154D01*
X39728Y94497D01*
X39645Y94580D01*
X39572Y94642D01*
X39520Y94684D01*
X39499Y94695D01*
X39426Y94747D01*
X39353Y94788D01*
X39301Y94809D01*
X39291Y94819D01*
X39281D01*
X39187Y94851D01*
X39103Y94861D01*
X39041Y94882D01*
X39031D01*
X39020D01*
X38916Y94892D01*
D02*
G37*
G36*
X31953Y94697D02*
X24135D01*
X29986D01*
X29934Y94687D01*
X29892D01*
X29861D01*
X29850D01*
X29840D01*
X29757Y94666D01*
X29705Y94645D01*
X29673Y94624D01*
X29663Y94614D01*
X29632Y94572D01*
X29621Y94530D01*
Y94478D01*
X29642Y94406D01*
X29673Y94333D01*
X29705Y94270D01*
X29715Y94260D01*
Y94249D01*
X30402Y93000D01*
X25353D01*
Y94447D01*
X25343Y94478D01*
X25332Y94510D01*
X25322Y94530D01*
X25312Y94541D01*
X25280Y94572D01*
X25249Y94593D01*
X25218Y94614D01*
X25208Y94624D01*
X25145Y94645D01*
X25083Y94655D01*
X25041Y94666D01*
X25031D01*
X25020D01*
X24927Y94676D01*
X24833D01*
X24791D01*
X24760D01*
X24739D01*
X24729D01*
X24614D01*
X24531Y94666D01*
X24468D01*
X24458D01*
X24448D01*
X24375Y94645D01*
X24312Y94635D01*
X24271Y94614D01*
X24260D01*
X24219Y94593D01*
X24177Y94562D01*
X24167Y94551D01*
X24156Y94541D01*
X24135Y94478D01*
Y94510D01*
Y89919D01*
Y90127D01*
X24146Y90096D01*
X24156Y90075D01*
Y90065D01*
X24187Y90033D01*
X24219Y90013D01*
X24250Y89992D01*
X24260D01*
X24323Y89971D01*
X24385Y89950D01*
X24427Y89940D01*
X24448D01*
X24541Y89929D01*
X24635Y89919D01*
X24135D01*
X24854D01*
X24937Y89929D01*
X24999Y89940D01*
X25020D01*
X25093Y89950D01*
X25155Y89971D01*
X25197Y89981D01*
X25208Y89992D01*
X25260Y90013D01*
X25291Y90044D01*
X25301Y90054D01*
X25312Y90065D01*
X25332Y90096D01*
X25353Y90127D01*
Y91428D01*
X31766D01*
X31797D01*
X31828Y91439D01*
X31839Y91449D01*
X31849Y91460D01*
X31880Y91480D01*
X31901Y91512D01*
X31912Y91543D01*
Y91553D01*
X31922Y91616D01*
X31932Y91689D01*
X31943Y91751D01*
Y91772D01*
X31953Y91886D01*
Y91439D01*
Y92355D01*
X31943Y92417D01*
Y92573D01*
X31932Y92615D01*
Y92625D01*
X31922Y92677D01*
X31912Y92719D01*
X31901Y92740D01*
Y92750D01*
X31880Y92802D01*
X31870Y92813D01*
Y92823D01*
X30787Y94489D01*
X30756Y94541D01*
X30735Y94572D01*
X30714Y94593D01*
X30704Y94603D01*
X30673Y94635D01*
X30631Y94645D01*
X30600Y94666D01*
X30590D01*
X30538Y94676D01*
X30485Y94687D01*
X30454Y94697D01*
X31953D01*
D02*
G37*
%LPD*%
G36*
X38010Y100586D02*
Y100493D01*
X38021Y100389D01*
X38031Y100316D01*
X38042Y100274D01*
Y100253D01*
X38073Y100191D01*
X38094Y100149D01*
X38115Y100118D01*
X38125Y100108D01*
X38208Y100045D01*
X38239Y100035D01*
X38250Y100024D01*
X44569Y97776D01*
Y97755D01*
X38250D01*
X38208Y97745D01*
X38167Y97734D01*
X38146Y97724D01*
X38135D01*
X38104Y97693D01*
X38083Y97651D01*
X38073Y97620D01*
X38063Y97609D01*
X38042Y97536D01*
X38031Y97464D01*
X38021Y97401D01*
Y97380D01*
X38010Y97266D01*
X38000Y97141D01*
Y100701D01*
X38010Y100586D01*
D02*
G37*
D10*
X64906Y152165D02*
G03*
X64906Y152165I-394J0D01*
G01*
Y226665D02*
G03*
X64906Y226665I-394J0D01*
G01*
X162402Y173598D02*
G03*
X162402Y173598I-12402J0D01*
G01*
X190402Y58500D02*
G03*
X190402Y58500I-12402J0D01*
G01*
X162213Y99000D02*
G03*
X162213Y99000I-12402J0D01*
G01*
X37012Y230102D02*
X50988D01*
X37012Y217898D02*
X50988D01*
X37012Y129504D02*
X50988D01*
X37012Y117299D02*
X50988D01*
X37012Y155504D02*
X50988D01*
X37012Y143299D02*
X50988D01*
X37012Y204102D02*
X50988D01*
X37012Y191898D02*
X50988D01*
X154405Y221744D02*
Y224500D01*
X151256Y221744D02*
X154405D01*
X142595D02*
Y224500D01*
Y221744D02*
X145744D01*
X154405Y147244D02*
Y150000D01*
X151256Y147244D02*
X154405D01*
X142595D02*
Y150000D01*
Y147244D02*
X145744D01*
X110098Y36169D02*
Y39319D01*
X108539Y37744D02*
X111689D01*
X155189Y15094D02*
Y26906D01*
X128811Y15094D02*
Y26906D01*
X155189D01*
X128811Y15094D02*
X155189D01*
X169500Y89000D02*
X189500D01*
X169500Y209000D02*
X189500D01*
Y89000D02*
Y209000D01*
X169500Y89000D02*
Y209000D01*
D11*
X87287Y48000D02*
G03*
X87287Y48000I-787J0D01*
G01*
D12*
X115000Y54500D02*
G03*
X115000Y54500I-500J0D01*
G01*
X131000Y53000D02*
G03*
X151000Y53000I10000J6000D01*
G01*
X126000Y47000D02*
G03*
X129000Y44000I3000J0D01*
G01*
X153000D02*
G03*
X156000Y47000I0J3000D01*
G01*
X129000Y74000D02*
G03*
X126000Y71000I0J-3000D01*
G01*
X156000D02*
G03*
X153000Y74000I-3000J0D01*
G01*
X151000Y65000D02*
G03*
X131000Y65000I-10000J-6000D01*
G01*
X143000Y59000D02*
G03*
X139000Y59000I-2000J0D01*
G01*
X147000D02*
G03*
X143000Y59000I-2000J0D01*
G01*
X139000D02*
G03*
X135000Y59000I-2000J0D01*
G01*
X110606Y15500D02*
G03*
X110606Y15500I-24606J0D01*
G01*
X-15000Y210370D02*
X15000D01*
X-15000Y148370D02*
Y210370D01*
X15000Y148370D02*
Y210370D01*
X62231Y88500D02*
X71089D01*
Y45500D02*
Y88500D01*
X62231Y45500D02*
X71089D01*
X115000Y58000D02*
Y78630D01*
X103000D02*
X104650D01*
X103000Y58000D02*
Y78630D01*
X113252D02*
X115000D01*
X103000Y58000D02*
X105000D01*
X103685Y61500D02*
X105000D01*
X113000Y58000D02*
X115000D01*
X113000Y61500D02*
X114315D01*
X109000Y66800D02*
X110200Y69300D01*
X107800Y69000D02*
X109000Y66800D01*
X107800Y69000D02*
X109200D01*
X109000Y67910D02*
X109200Y69000D01*
X137008Y180882D02*
X142717Y186591D01*
X162992Y160606D02*
Y186591D01*
X142717D02*
X162992D01*
X137008Y166512D02*
Y180882D01*
Y166512D02*
X142913Y160606D01*
X162992D01*
X185284Y71492D02*
X190992Y65784D01*
X165008Y45508D02*
X190992D01*
Y65784D01*
X170913Y71492D02*
X185284D01*
X165008Y65587D02*
X170913Y71492D01*
X165008Y45508D02*
Y65587D01*
X156000Y47000D02*
Y54000D01*
X129000Y44000D02*
X153000D01*
X126000Y47000D02*
Y54000D01*
X156000Y64000D02*
Y71000D01*
X129000Y74000D02*
X153000D01*
X126000Y64000D02*
Y71000D01*
X147000Y59000D02*
X151000D01*
X131000D02*
X135000D01*
X136819Y106283D02*
X142528Y111992D01*
X162803Y86008D02*
Y111992D01*
X142528D02*
X162803D01*
X136819Y91913D02*
Y106283D01*
Y91913D02*
X142724Y86008D01*
X162803D01*
X23000Y-12059D02*
X50000D01*
Y43059D01*
X23000D02*
X50000D01*
X23000Y-12059D02*
Y43059D01*
X-15000Y133500D02*
X15000D01*
Y71500D02*
Y133500D01*
X-15000Y71500D02*
X15000D01*
X-15000D02*
Y133500D01*
X7000Y71500D02*
Y133500D01*
X-15000Y123500D02*
X-10000D01*
Y119500D02*
Y123500D01*
X-15000Y119500D02*
X-10000D01*
X-15000Y99815D02*
X-10000D01*
Y103815D01*
X-15000D02*
X-10000D01*
X-15000Y83815D02*
X-10000D01*
Y79815D02*
Y83815D01*
X-15000Y79815D02*
X-10000D01*
X-15000Y148370D02*
X15000D01*
X7000D02*
Y210370D01*
X-15000Y200370D02*
X-10000D01*
Y196370D02*
Y200370D01*
X-15000Y196370D02*
X-10000D01*
X-15000Y176685D02*
X-10000D01*
Y180685D01*
X-15000D02*
X-10000D01*
X-15000Y160685D02*
X-10000D01*
Y156685D02*
Y160685D01*
X-15000Y156685D02*
X-10000D01*
X-15000Y24500D02*
X-10000D01*
Y28500D01*
X-15000D02*
X-10000D01*
X-15000Y58500D02*
X15000D01*
Y16500D02*
Y58500D01*
X-15000Y16500D02*
X15000D01*
X-15000D02*
Y58500D01*
X7000Y16500D02*
Y58500D01*
X-15000Y48500D02*
X-10000D01*
Y44500D02*
Y48500D01*
X-15000Y44500D02*
X-10000D01*
X55084Y190500D02*
Y191333D01*
X55917D01*
Y190500D01*
X55084D01*
X71583Y150500D02*
Y151333D01*
X72417D01*
Y150500D01*
X71583D01*
X55084Y142500D02*
Y143333D01*
X55917D01*
Y142500D01*
X55084D01*
X71583Y225000D02*
Y225833D01*
X72417D01*
Y225000D01*
X71583D01*
X55084Y217000D02*
Y217833D01*
X55917D01*
Y217000D01*
X55084D01*
Y116500D02*
Y117333D01*
X55917D01*
Y116500D01*
X55084D01*
X137499Y156493D02*
X131501D01*
Y152494D01*
X137499Y146496D02*
X136499Y148495D01*
X134500Y150495D01*
X132501D01*
X131501Y149495D01*
Y147495D01*
X132501Y146496D01*
X133500D01*
X134500Y147495D01*
Y150495D01*
X131501Y140498D02*
Y144496D01*
X135500Y140498D01*
X136499D01*
X137499Y141497D01*
Y143497D01*
X136499Y144496D01*
Y138498D02*
X137499Y137499D01*
Y135499D01*
X136499Y134500D01*
X135500D01*
X134500Y135499D01*
Y136499D01*
Y135499D01*
X133500Y134500D01*
X132501D01*
X131501Y135499D01*
Y137499D01*
X132501Y138498D01*
X131501Y129501D02*
X137499D01*
X134500Y132500D01*
Y128502D01*
X130501Y126502D02*
Y122503D01*
X131501Y120504D02*
X137499D01*
X135500Y118505D01*
X137499Y116506D01*
X131501D01*
Y110507D02*
Y114506D01*
X135500Y110507D01*
X136499D01*
X137499Y111507D01*
Y113506D01*
X136499Y114506D01*
X138499Y230493D02*
X132501D01*
Y226494D01*
X138499Y220496D02*
X137499Y222496D01*
X135500Y224495D01*
X133501D01*
X132501Y223495D01*
Y221496D01*
X133501Y220496D01*
X134500D01*
X135500Y221496D01*
Y224495D01*
X132501Y214498D02*
Y218497D01*
X136500Y214498D01*
X137499D01*
X138499Y215498D01*
Y217497D01*
X137499Y218497D01*
Y212499D02*
X138499Y211499D01*
Y209500D01*
X137499Y208500D01*
X136500D01*
X135500Y209500D01*
Y210499D01*
Y209500D01*
X134500Y208500D01*
X133501D01*
X132501Y209500D01*
Y211499D01*
X133501Y212499D01*
X132501Y203502D02*
X138499D01*
X135500Y206501D01*
Y202502D01*
X131501Y200503D02*
Y196504D01*
X132501Y194504D02*
X138499D01*
X136500Y192505D01*
X138499Y190506D01*
X132501D01*
Y188506D02*
Y186507D01*
Y187507D01*
X138499D01*
X137499Y188506D01*
D13*
X156079Y228634D02*
G03*
X156079Y228634I-492J0D01*
G01*
Y154134D02*
G03*
X156079Y154134I-492J0D01*
G01*
X129500Y9780D02*
G03*
X129500Y9780I-492J0D01*
G01*
D14*
X51193Y106302D02*
Y113502D01*
X37807Y106302D02*
X51193D01*
X37807D02*
Y113502D01*
X51193D01*
Y132302D02*
Y139502D01*
X37807Y132302D02*
X51193D01*
X37807D02*
Y139502D01*
X51193D01*
Y206900D02*
Y214100D01*
X37807Y206900D02*
X51193D01*
X37807D02*
Y214100D01*
X51193D01*
Y180900D02*
Y188100D01*
X37807Y180900D02*
X51193D01*
X37807D02*
Y188100D01*
X51193D01*
X25059Y199598D02*
Y203216D01*
X19941Y199598D02*
Y203216D01*
X25059Y192980D02*
Y196598D01*
X19941Y192980D02*
Y196598D01*
Y192980D02*
X25059D01*
X19941Y203216D02*
X25059D01*
Y225598D02*
Y229216D01*
X19941Y225598D02*
Y229216D01*
X25059Y218980D02*
Y222598D01*
X19941Y218980D02*
Y222598D01*
Y218980D02*
X25059D01*
X19941Y229216D02*
X25059D01*
X109000Y66055D02*
X111000Y69555D01*
X107000D02*
X111000D01*
X107000D02*
X109000Y66055D01*
X107000D02*
X111000D01*
X143429Y114941D02*
Y120059D01*
X153666D01*
Y114941D02*
Y120059D01*
X143429Y114941D02*
X153666D01*
X143429Y125059D02*
X147047D01*
X143429Y119941D02*
X147047D01*
X150047Y125059D02*
X153666D01*
X150047Y119941D02*
X153666D01*
Y125059D01*
X143429Y119941D02*
Y125059D01*
Y130059D02*
X147047D01*
X143429Y124941D02*
X147047D01*
X150047Y130059D02*
X153666D01*
X150047Y124941D02*
X153666D01*
Y130059D01*
X143429Y124941D02*
Y130059D01*
X150047Y129941D02*
X153665D01*
X150047Y135059D02*
X153665D01*
X143429Y129941D02*
X147047D01*
X143429Y135059D02*
X147047D01*
X143429Y129941D02*
Y135059D01*
X153665Y129941D02*
Y135059D01*
X150047Y134941D02*
X153665D01*
X150047Y140059D02*
X153665D01*
X143429Y134941D02*
X147047D01*
X143429Y140059D02*
X147047D01*
X143429Y134941D02*
Y140059D01*
X153665Y134941D02*
Y140059D01*
X143429Y189539D02*
Y194658D01*
X153666D01*
Y189539D02*
Y194658D01*
X143429Y189539D02*
X153666D01*
X143429Y199658D02*
X147047D01*
X143429Y194540D02*
X147047D01*
X150047Y199658D02*
X153666D01*
X150047Y194540D02*
X153666D01*
Y199658D01*
X143429Y194540D02*
Y199658D01*
Y204658D02*
X147047D01*
X143429Y199540D02*
X147047D01*
X150047Y204658D02*
X153666D01*
X150047Y199540D02*
X153666D01*
Y204658D01*
X143429Y199540D02*
Y204658D01*
X150047Y204539D02*
X153665D01*
X150047Y209657D02*
X153665D01*
X143429Y204539D02*
X147047D01*
X143429Y209657D02*
X147047D01*
X143429Y204539D02*
Y209657D01*
X153665Y204539D02*
Y209657D01*
X150047Y209539D02*
X153665D01*
X150047Y214657D02*
X153665D01*
X143429Y209539D02*
X147047D01*
X143429Y214657D02*
X147047D01*
X143429Y209539D02*
Y214657D01*
X153665Y209539D02*
Y214657D01*
X25059Y125000D02*
Y128618D01*
X19941Y125000D02*
Y128618D01*
X25059Y118382D02*
Y122000D01*
X19941Y118382D02*
Y122000D01*
Y118382D02*
X25059D01*
X19941Y128618D02*
X25059D01*
Y151000D02*
Y154618D01*
X19941Y151000D02*
Y154618D01*
X25059Y144382D02*
Y148000D01*
X19941Y144382D02*
Y148000D01*
Y144382D02*
X25059D01*
X19941Y154618D02*
X25059D01*
X162882Y16441D02*
Y21559D01*
X173118D01*
Y16441D02*
Y21559D01*
X162882Y16441D02*
X173118D01*
X155059Y-4000D02*
Y-382D01*
X149941Y-4000D02*
Y-382D01*
X155059Y-10618D02*
Y-7000D01*
X149941Y-10618D02*
Y-7000D01*
Y-10618D02*
X155059D01*
X149941Y-382D02*
X155059D01*
X148059Y-4000D02*
Y-382D01*
X142941Y-4000D02*
Y-382D01*
X148059Y-10618D02*
Y-7000D01*
X142941Y-10618D02*
Y-7000D01*
Y-10618D02*
X148059D01*
X142941Y-382D02*
X148059D01*
X141059Y-4000D02*
Y-382D01*
X135941Y-4000D02*
Y-382D01*
X141059Y-10618D02*
Y-7000D01*
X135941Y-10618D02*
Y-7000D01*
Y-10618D02*
X141059D01*
X135941Y-382D02*
X141059D01*
X134059Y-4000D02*
Y-382D01*
X128941Y-4000D02*
Y-382D01*
X134059Y-10618D02*
Y-7000D01*
X128941Y-10618D02*
Y-7000D01*
Y-10618D02*
X134059D01*
X128941Y-382D02*
X134059D01*
X186913Y16637D02*
Y21362D01*
X176086D02*
X179999D01*
X176086Y16637D02*
X179999D01*
X176086D02*
Y21362D01*
X188000Y16637D02*
Y21362D01*
X182999D02*
X188000D01*
X182999Y16637D02*
X188000D01*
X170970Y34559D02*
X186059D01*
X170970Y29441D02*
Y34559D01*
Y29441D02*
X186059D01*
Y34559D01*
X60168Y150519D02*
Y154517D01*
X61501Y153184D01*
X62834Y154517D01*
Y150519D01*
X66832D02*
X64166D01*
X66832Y153184D01*
Y153851D01*
X66166Y154517D01*
X64833D01*
X64166Y153851D01*
X62167Y147799D02*
X60834D01*
X60168Y147132D01*
Y144466D01*
X60834Y143800D01*
X62167D01*
X62834Y144466D01*
Y147132D01*
X62167Y147799D01*
X66832Y143800D02*
X64166D01*
X66832Y146466D01*
Y147132D01*
X66166Y147799D01*
X64833D01*
X64166Y147132D01*
X60334Y200518D02*
Y204517D01*
X61667Y203184D01*
X63000Y204517D01*
Y200518D01*
X64333D02*
X65666D01*
X64999D01*
Y204517D01*
X64333Y203851D01*
X62334Y197799D02*
X61001D01*
X60334Y197132D01*
Y194466D01*
X61001Y193800D01*
X62334D01*
X63000Y194466D01*
Y197132D01*
X62334Y197799D01*
X64333Y193800D02*
X65666D01*
X64999D01*
Y197799D01*
X64333Y197132D01*
X60334Y225018D02*
Y229017D01*
X61667Y227684D01*
X63000Y229017D01*
Y225018D01*
X64333D02*
X65666D01*
X64999D01*
Y229017D01*
X64333Y228351D01*
X61667Y222299D02*
X60334D01*
X59668Y221632D01*
Y218966D01*
X60334Y218300D01*
X61667D01*
X62334Y218966D01*
Y221632D01*
X61667Y222299D01*
X66332Y218300D02*
X63666D01*
X66332Y220966D01*
Y221632D01*
X65666Y222299D01*
X64333D01*
X63666Y221632D01*
X59168Y125019D02*
Y129017D01*
X60501Y127684D01*
X61834Y129017D01*
Y125019D01*
X65832D02*
X63166D01*
X65832Y127684D01*
Y128351D01*
X65166Y129017D01*
X63833D01*
X63166Y128351D01*
X61834Y122299D02*
X60501D01*
X59834Y121632D01*
Y118966D01*
X60501Y118300D01*
X61834D01*
X62500Y118966D01*
Y121632D01*
X61834Y122299D01*
X63833Y118300D02*
X65166D01*
X64499D01*
Y122299D01*
X63833Y121632D01*
X130171Y18800D02*
Y21466D01*
X131503Y22799D01*
X132836Y21466D01*
Y18800D01*
Y20799D01*
X130171D01*
X134169Y18800D02*
Y22799D01*
X135502Y21466D01*
X136835Y22799D01*
Y18800D01*
X140834Y22132D02*
X140167Y22799D01*
X138835D01*
X138168Y22132D01*
Y21466D01*
X138835Y20799D01*
X140167D01*
X140834Y20133D01*
Y19466D01*
X140167Y18800D01*
X138835D01*
X138168Y19466D01*
X142167Y18800D02*
X143500D01*
X142833D01*
Y22799D01*
X142167Y22132D01*
X145499Y18800D02*
X146832D01*
X146166D01*
Y22799D01*
X145499Y22132D01*
X148831Y18800D02*
X150164D01*
X149498D01*
Y22799D01*
X148831Y22132D01*
X152164Y22799D02*
X154829D01*
Y22132D01*
X152164Y19466D01*
Y18800D01*
X176668Y27299D02*
Y23300D01*
X179334D01*
X183333Y27299D02*
X180667D01*
Y23300D01*
X183333D01*
X180667Y25299D02*
X182000D01*
X184666Y27299D02*
Y23300D01*
X186665D01*
X187332Y23967D01*
Y26632D01*
X186665Y27299D01*
X184666D01*
X162005Y39632D02*
X162671Y40299D01*
X164004D01*
X164671Y39632D01*
Y38966D01*
X164004Y38299D01*
X163338D01*
X164004D01*
X164671Y37633D01*
Y36966D01*
X164004Y36300D01*
X162671D01*
X162005Y36966D01*
X166004Y40299D02*
Y37633D01*
X167336Y36300D01*
X168669Y37633D01*
Y40299D01*
X170002Y39632D02*
X170669Y40299D01*
X172002D01*
X172668Y39632D01*
Y38966D01*
X172002Y38299D01*
X171335D01*
X172002D01*
X172668Y37633D01*
Y36966D01*
X172002Y36300D01*
X170669D01*
X170002Y36966D01*
X176000Y36300D02*
X174001Y38299D01*
X176000Y40299D01*
X178000Y38299D02*
X180666D01*
X181998Y36300D02*
X183998Y38299D01*
X181998Y40299D01*
X187996D02*
X185331D01*
Y38299D01*
X186664Y38966D01*
X187330D01*
X187996Y38299D01*
Y36966D01*
X187330Y36300D01*
X185997D01*
X185331Y36966D01*
X189329Y40299D02*
Y37633D01*
X190662Y36300D01*
X191995Y37633D01*
Y40299D01*
X20667Y133333D02*
X20001Y133999D01*
X18668D01*
X18002Y133333D01*
Y130667D01*
X18668Y130001D01*
X20001D01*
X20667Y130667D01*
X22000Y130001D02*
X23333D01*
X22667D01*
Y133999D01*
X22000Y133333D01*
X27998Y133999D02*
X25333D01*
Y132000D01*
X26665Y132667D01*
X27332D01*
X27998Y132000D01*
Y130667D01*
X27332Y130001D01*
X25999D01*
X25333Y130667D01*
X20667Y142833D02*
X20001Y143499D01*
X18668D01*
X18002Y142833D01*
Y140167D01*
X18668Y139501D01*
X20001D01*
X20667Y140167D01*
X22000Y139501D02*
X23333D01*
X22667D01*
Y143499D01*
X22000Y142833D01*
X27998Y143499D02*
X26665Y142833D01*
X25333Y141500D01*
Y140167D01*
X25999Y139501D01*
X27332D01*
X27998Y140167D01*
Y140833D01*
X27332Y141500D01*
X25333D01*
X52668Y107501D02*
Y111499D01*
X54667D01*
X55334Y110833D01*
Y109500D01*
X54667Y108834D01*
X52668D01*
X54001D02*
X55334Y107501D01*
X59332Y111499D02*
X57999Y110833D01*
X56666Y109500D01*
Y108167D01*
X57333Y107501D01*
X58666D01*
X59332Y108167D01*
Y108834D01*
X58666Y109500D01*
X56666D01*
X52668Y134001D02*
Y137999D01*
X54667D01*
X55334Y137333D01*
Y136000D01*
X54667Y135334D01*
X52668D01*
X54001D02*
X55334Y134001D01*
X56666Y137999D02*
X59332D01*
Y137333D01*
X56666Y134667D01*
Y134001D01*
X158334Y138833D02*
X157667Y139499D01*
X156334D01*
X155668Y138833D01*
Y136167D01*
X156334Y135501D01*
X157667D01*
X158334Y136167D01*
X162332Y139499D02*
X160999Y138833D01*
X159667Y137500D01*
Y136167D01*
X160333Y135501D01*
X161666D01*
X162332Y136167D01*
Y136834D01*
X161666Y137500D01*
X159667D01*
X158334Y133333D02*
X157667Y133999D01*
X156334D01*
X155668Y133333D01*
Y130667D01*
X156334Y130001D01*
X157667D01*
X158334Y130667D01*
X159667Y133333D02*
X160333Y133999D01*
X161666D01*
X162332Y133333D01*
Y132667D01*
X161666Y132000D01*
X162332Y131333D01*
Y130667D01*
X161666Y130001D01*
X160333D01*
X159667Y130667D01*
Y131333D01*
X160333Y132000D01*
X159667Y132667D01*
Y133333D01*
X160333Y132000D02*
X161666D01*
X158167Y128333D02*
X157501Y128999D01*
X156168D01*
X155502Y128333D01*
Y125667D01*
X156168Y125001D01*
X157501D01*
X158167Y125667D01*
X159500Y125001D02*
X160833D01*
X160167D01*
Y128999D01*
X159500Y128333D01*
X162833D02*
X163499Y128999D01*
X164832D01*
X165498Y128333D01*
Y125667D01*
X164832Y125001D01*
X163499D01*
X162833Y125667D01*
Y128333D01*
X158167Y123333D02*
X157501Y123999D01*
X156168D01*
X155502Y123333D01*
Y120667D01*
X156168Y120001D01*
X157501D01*
X158167Y120667D01*
X159500Y120001D02*
X160833D01*
X160167D01*
Y123999D01*
X159500Y123333D01*
X165498Y120001D02*
X162833D01*
X165498Y122667D01*
Y123333D01*
X164832Y123999D01*
X163499D01*
X162833Y123333D01*
X156168Y151999D02*
Y148001D01*
X158167D01*
X158834Y148667D01*
Y151333D01*
X158167Y151999D01*
X156168D01*
X160167Y151333D02*
X160833Y151999D01*
X162166D01*
X162832Y151333D01*
Y150666D01*
X162166Y150000D01*
X161499D01*
X162166D01*
X162832Y149334D01*
Y148667D01*
X162166Y148001D01*
X160833D01*
X160167Y148667D01*
X130001Y97834D02*
Y95168D01*
X133999D01*
Y97834D01*
X132000Y95168D02*
Y96501D01*
X133999Y101166D02*
X130001D01*
X132000Y99167D01*
Y101832D01*
X52668Y208501D02*
Y212499D01*
X54667D01*
X55334Y211833D01*
Y210500D01*
X54667Y209834D01*
X52668D01*
X54001D02*
X55334Y208501D01*
X59332Y212499D02*
X56666D01*
Y210500D01*
X57999Y211166D01*
X58666D01*
X59332Y210500D01*
Y209167D01*
X58666Y208501D01*
X57333D01*
X56666Y209167D01*
X52668Y182501D02*
Y186499D01*
X54667D01*
X55334Y185833D01*
Y184500D01*
X54667Y183834D01*
X52668D01*
X54001D02*
X55334Y182501D01*
X58666D02*
Y186499D01*
X56666Y184500D01*
X59332D01*
X155668Y115001D02*
Y118999D01*
X157667D01*
X158334Y118333D01*
Y117000D01*
X157667Y116333D01*
X155668D01*
X157001D02*
X158334Y115001D01*
X159667Y118333D02*
X160333Y118999D01*
X161666D01*
X162332Y118333D01*
Y117666D01*
X161666Y117000D01*
X160999D01*
X161666D01*
X162332Y116333D01*
Y115667D01*
X161666Y115001D01*
X160333D01*
X159667Y115667D01*
X155668Y189501D02*
Y193499D01*
X157667D01*
X158334Y192833D01*
Y191500D01*
X157667Y190833D01*
X155668D01*
X157001D02*
X158334Y189501D01*
X162332D02*
X159667D01*
X162332Y192166D01*
Y192833D01*
X161666Y193499D01*
X160333D01*
X159667Y192833D01*
X165334Y23501D02*
Y27499D01*
X167333D01*
X168000Y26833D01*
Y25500D01*
X167333Y24834D01*
X165334D01*
X166667D02*
X168000Y23501D01*
X169333D02*
X170666D01*
X169999D01*
Y27499D01*
X169333Y26833D01*
X97999Y81829D02*
X94001D01*
Y79163D01*
Y77830D02*
X97999D01*
X96666Y76497D01*
X97999Y75165D01*
X94001D01*
Y71166D02*
Y73832D01*
X96666Y71166D01*
X97333D01*
X97999Y71832D01*
Y73165D01*
X97333Y73832D01*
X97999Y67167D02*
Y69833D01*
X96000D01*
X96666Y68500D01*
Y67834D01*
X96000Y67167D01*
X94667D01*
X94001Y67834D01*
Y69166D01*
X94667Y69833D01*
Y65834D02*
X94001Y65168D01*
Y63835D01*
X94667Y63168D01*
X97333D01*
X97999Y63835D01*
Y65168D01*
X97333Y65834D01*
X96666D01*
X96000Y65168D01*
Y63168D01*
X97999Y59170D02*
X97333Y60503D01*
X96000Y61835D01*
X94667D01*
X94001Y61169D01*
Y59836D01*
X94667Y59170D01*
X95334D01*
X96000Y59836D01*
Y61835D01*
X97333Y55171D02*
X97999Y55837D01*
Y57170D01*
X97333Y57837D01*
X96666D01*
X96000Y57170D01*
Y55837D01*
X95334Y55171D01*
X94667D01*
X94001Y55837D01*
Y57170D01*
X94667Y57837D01*
X138334Y79499D02*
Y75501D01*
X141000D01*
X142333D02*
X143666D01*
X142999D01*
Y79499D01*
X142333Y78833D01*
X130501Y172834D02*
Y170168D01*
X134499D01*
Y172834D01*
X132500Y170168D02*
Y171501D01*
X131167Y174167D02*
X130501Y174833D01*
Y176166D01*
X131167Y176832D01*
X131834D01*
X132500Y176166D01*
Y175499D01*
Y176166D01*
X133167Y176832D01*
X133833D01*
X134499Y176166D01*
Y174833D01*
X133833Y174167D01*
X119499Y25666D02*
Y28332D01*
X115501D01*
Y25666D01*
X117500Y28332D02*
Y26999D01*
X115501Y21668D02*
Y24333D01*
X118166Y21668D01*
X118833D01*
X119499Y22334D01*
Y23667D01*
X118833Y24333D01*
X178500Y77499D02*
X175834D01*
Y73501D01*
X178500D01*
X175834Y75500D02*
X177167D01*
X179833Y73501D02*
X181166D01*
X180499D01*
Y77499D01*
X179833Y76833D01*
X157168Y226499D02*
Y222501D01*
X159167D01*
X159834Y223167D01*
Y225833D01*
X159167Y226499D01*
X157168D01*
X163832Y222501D02*
X161167D01*
X163832Y225166D01*
Y225833D01*
X163166Y226499D01*
X161833D01*
X161167Y225833D01*
X120499Y70166D02*
X116501D01*
Y68166D01*
X117167Y67500D01*
X119833D01*
X120499Y68166D01*
Y70166D01*
X116501Y66167D02*
Y64834D01*
Y65501D01*
X120499D01*
X119833Y66167D01*
X20167Y233333D02*
X19501Y233999D01*
X18168D01*
X17502Y233333D01*
Y230667D01*
X18168Y230001D01*
X19501D01*
X20167Y230667D01*
X21500Y230001D02*
X22833D01*
X22167D01*
Y233999D01*
X21500Y233333D01*
X26832Y230001D02*
Y233999D01*
X24833Y232000D01*
X27498D01*
X20667Y207833D02*
X20001Y208499D01*
X18668D01*
X18002Y207833D01*
Y205167D01*
X18668Y204501D01*
X20001D01*
X20667Y205167D01*
X22000Y204501D02*
X23333D01*
X22667D01*
Y208499D01*
X22000Y207833D01*
X25333D02*
X25999Y208499D01*
X27332D01*
X27998Y207833D01*
Y207166D01*
X27332Y206500D01*
X26665D01*
X27332D01*
X27998Y205834D01*
Y205167D01*
X27332Y204501D01*
X25999D01*
X25333Y205167D01*
X158334Y197833D02*
X157667Y198499D01*
X156334D01*
X155668Y197833D01*
Y195167D01*
X156334Y194501D01*
X157667D01*
X158334Y195167D01*
X159667Y194501D02*
X161000D01*
X160333D01*
Y198499D01*
X159667Y197833D01*
X162999Y194501D02*
X164332D01*
X163665D01*
Y198499D01*
X162999Y197833D01*
X158334Y202833D02*
X157667Y203499D01*
X156334D01*
X155668Y202833D01*
Y200167D01*
X156334Y199501D01*
X157667D01*
X158334Y200167D01*
X159667D02*
X160333Y199501D01*
X161666D01*
X162332Y200167D01*
Y202833D01*
X161666Y203499D01*
X160333D01*
X159667Y202833D01*
Y202167D01*
X160333Y201500D01*
X162332D01*
X158334Y208333D02*
X157667Y208999D01*
X156334D01*
X155668Y208333D01*
Y205667D01*
X156334Y205001D01*
X157667D01*
X158334Y205667D01*
X159667Y208999D02*
X162332D01*
Y208333D01*
X159667Y205667D01*
Y205001D01*
X158334Y213333D02*
X157667Y213999D01*
X156334D01*
X155668Y213333D01*
Y210667D01*
X156334Y210001D01*
X157667D01*
X158334Y210667D01*
X162332Y213999D02*
X159667D01*
Y212000D01*
X160999Y212666D01*
X161666D01*
X162332Y212000D01*
Y210667D01*
X161666Y210001D01*
X160333D01*
X159667Y210667D01*
X130167Y4334D02*
X129501Y3667D01*
Y2334D01*
X130167Y1668D01*
X132833D01*
X133499Y2334D01*
Y3667D01*
X132833Y4334D01*
X133499Y7666D02*
X129501D01*
X131500Y5666D01*
Y8332D01*
X137167Y4334D02*
X136501Y3667D01*
Y2334D01*
X137167Y1668D01*
X139833D01*
X140499Y2334D01*
Y3667D01*
X139833Y4334D01*
X137167Y5666D02*
X136501Y6333D01*
Y7666D01*
X137167Y8332D01*
X137833D01*
X138500Y7666D01*
Y6999D01*
Y7666D01*
X139166Y8332D01*
X139833D01*
X140499Y7666D01*
Y6333D01*
X139833Y5666D01*
X144667Y4834D02*
X144001Y4167D01*
Y2834D01*
X144667Y2168D01*
X147333D01*
X147999Y2834D01*
Y4167D01*
X147333Y4834D01*
X147999Y8832D02*
Y6166D01*
X145334Y8832D01*
X144667D01*
X144001Y8166D01*
Y6833D01*
X144667Y6166D01*
X151167Y5000D02*
X150501Y4334D01*
Y3001D01*
X151167Y2334D01*
X153833D01*
X154499Y3001D01*
Y4334D01*
X153833Y5000D01*
X154499Y6333D02*
Y7666D01*
Y6999D01*
X150501D01*
X151167Y6333D01*
D15*
X76323Y93701D02*
Y100197D01*
Y93701D02*
X91087D01*
X104866D02*
X119630D01*
Y100197D01*
X76323Y149803D02*
Y156299D01*
X90890D01*
X104866D02*
X119630D01*
Y149803D02*
Y156299D01*
X76323Y168201D02*
Y174697D01*
Y168201D02*
X91087D01*
X104866D02*
X119630D01*
Y174697D01*
X76323Y224303D02*
Y230799D01*
X90890D01*
X104866D02*
X119630D01*
Y224303D02*
Y230799D01*
D16*
X22500Y198098D02*
Y198398D01*
Y197798D02*
Y198098D01*
X21600D02*
X23400D01*
X22500Y224098D02*
Y224398D01*
Y223798D02*
Y224098D01*
X21600D02*
X23400D01*
X148247Y122500D02*
X148547D01*
X148847D01*
X148547Y121600D02*
Y123400D01*
X148247Y127500D02*
X148547D01*
X148847D01*
X148547Y126600D02*
Y128400D01*
Y132500D02*
X148847D01*
X148247D02*
X148547D01*
Y131600D02*
Y133400D01*
Y137500D02*
X148847D01*
X148247D02*
X148547D01*
Y136600D02*
Y138400D01*
X148247Y197098D02*
X148547D01*
X148847D01*
X148547Y196198D02*
Y197998D01*
X148247Y202098D02*
X148547D01*
X148847D01*
X148547Y201198D02*
Y202998D01*
Y207098D02*
X148847D01*
X148247D02*
X148547D01*
Y206198D02*
Y207998D01*
Y212098D02*
X148847D01*
X148247D02*
X148547D01*
Y211198D02*
Y212998D01*
X137697Y160886D02*
Y163264D01*
X136500Y162083D02*
X138862D01*
X165287Y70803D02*
X167665D01*
X166484Y69638D02*
Y72000D01*
X137508Y86287D02*
Y88665D01*
X136311Y87484D02*
X138673D01*
X22500Y123500D02*
Y123800D01*
Y123200D02*
Y123500D01*
X21600D02*
X23400D01*
X22500Y149500D02*
Y149800D01*
Y149200D02*
Y149500D01*
X21600D02*
X23400D01*
X152500Y-5500D02*
Y-5200D01*
Y-5800D02*
Y-5500D01*
X151600D02*
X153400D01*
X145500D02*
Y-5200D01*
Y-5800D02*
Y-5500D01*
X144600D02*
X146400D01*
X138500D02*
Y-5200D01*
Y-5800D02*
Y-5500D01*
X137600D02*
X139400D01*
X131500D02*
Y-5200D01*
Y-5800D02*
Y-5500D01*
X130600D02*
X132400D01*
D17*
X60016Y-10484D02*
Y41091D01*
X99779Y-10484D02*
X111984Y1720D01*
X60016Y41091D02*
X99779D01*
X111984Y28886D01*
X60016Y-10484D02*
X99779D01*
X111984Y1720D02*
Y28886D01*
M02*
