M48
;Layer_Color=9474304
;FILE_FORMAT=2:5
INCH,TZ
;TYPE=PLATED
T1F00S00C0.01200
T2F00S00C0.03543
T3F00S00C0.04724
T4F00S00C0.12598
%
T01
X123000Y15500
X142000Y32000
X146000
X150000
X154000
X157957Y32043
X165000Y25000
X174500
X184000
X178000Y57500
X185000Y77000
X190500
Y84500
X185000
X166500Y99000
X151000
X148250
X145500
X147000Y107500
X143000
X139000
X134500
X130000
X130500Y99000
X151500Y107500
X155500
X142500Y122500
X167904Y133596
X167000Y-2000
Y-8500
X160000
Y-2000
X99000Y15500
X96000
X93000
X90000
X87000
X74000Y4500
Y-3500
Y-11000
X66000
Y-3500
Y4500
X57500
Y-3500
Y-11000
X59500Y52000
Y57000
Y62000
Y67000
Y72000
Y77000
Y82000
X54589Y81927
X49589
X44589
X39589
X34589
X34500Y77000
X29500
Y82000
Y72000
Y67000
Y62000
Y57000
Y52000
X34500
X39500
X44500
X49500
X54500
Y57000
X49500
Y62000
Y67000
X44500
X39500
X34500
Y62000
Y57000
X39500
Y62000
X44500
Y57000
Y72000
X49500
Y77000
X44500
X39500
Y72000
X34500
X54500
Y67000
Y62000
Y77000
X59500Y107500
X63000
X66500
X68000Y117500
X65000Y132402
X49000Y129000
X43000
X39700Y119500
X88000Y120000
Y115000
X93000
Y120000
Y125000
X88000
Y130000
Y135000
X93000
Y130000
X98000
Y125000
X103000
Y130000
Y135000
X98000
X108000
Y130000
Y125000
Y120000
X103000
X98000
Y115000
X103000
X108000
X117000Y114500
X118000Y107500
X113500
X102000Y97500
X98000
X94000
Y93500
X98000
X102000
X83000Y107500
X80500
X78000
X76000Y53500
X72500
X69000
X94000
X98000
X102000
X103000Y141000
X98000
X93000
X88000
X94000Y146000
X98000
X102000
Y150000
Y154000
X98000
X94000
Y150000
X98000
X108000Y141000
X110500Y167000
X114500Y165000
X118500Y162498
X122000Y160000
X118000Y182000
X113000
X118203Y189203
X108000Y189500
Y194500
Y199500
Y204500
Y209500
X103000
X98000
X93000
X88000
Y204500
Y199500
Y194500
Y189500
X93000
X98000
X103000
Y194500
X98000
X93000
Y199500
Y204500
X98000
X103000
Y199500
X98000
Y215500
Y220500
X94000
Y224500
Y228500
X98000
X102000
Y224500
Y220500
X103000Y215500
X108000
X93000
X88000
X79500Y212000
X66500Y207000
X69500Y192000
X67000Y182000
X64500
X62000
X78000
X80500
X83000
X94000Y173500
Y169500
X98000
X102000
Y173500
X98000
X67000Y156000
X62977Y155800
X63500Y148500
X56500Y141500
X37500Y145500
X40000Y151500
X44500Y155400
Y158300
X31000Y169000
Y175500
X23000
Y169000
X22500Y190500
X37000Y194000
X44500Y202000
X37500Y220000
X39500Y227000
X22500Y216500
X8500Y235000
X-9500Y218000
X98000Y224500
X79500Y137402
X154500Y137500
X153000Y141000
Y144120
Y147000
X152240Y150000
Y156500
X151000Y173500
X148250
X145500
X147000Y182000
X143000
X139000
X134500
X130000
X131000Y173500
X151500Y182000
X155500
X166000Y184000
Y173500
X167500Y164698
X164000Y145500
X169500Y142500
X164000Y202000
X154000Y212000
X152500Y215500
Y218500
X152681Y221319
X152500Y224000
X143500Y197000
X140000Y197099
T02
X174500Y94000
Y104000
Y114000
Y124000
Y134000
X184500
Y124000
Y114000
Y104000
Y94000
Y144000
Y154000
Y164000
Y174000
Y184000
Y194000
Y204000
X174500
Y194000
Y184000
Y174000
Y164000
Y154000
Y144000
T03
X-3000Y26500
Y46500
Y82130
Y101815
Y121500
X36500Y34004
Y15500
Y-3004
X-3000Y159000
Y178685
Y198370
T04
X179000Y0
X0
Y226000
X179000
M30
