G04*
G04 #@! TF.GenerationSoftware,Altium Limited,Altium Designer,21.5.1 (32)*
G04*
G04 Layer_Color=2752767*
%FSLAX25Y25*%
%MOIN*%
G70*
G04*
G04 #@! TF.SameCoordinates,52493D02-2A3A-4F25-9154-F1016A9AFAB1*
G04*
G04*
G04 #@! TF.FilePolarity,Positive*
G04*
G01*
G75*
%ADD10C,0.02000*%
%ADD11C,0.00787*%
%ADD12C,0.00394*%
%ADD13C,0.00500*%
%ADD14C,0.00197*%
%ADD15C,0.00100*%
%ADD16C,0.00200*%
%ADD17C,0.00267*%
D10*
X-15000Y0D02*
G03*
X0Y-15000I15000J0D01*
G01*
X179000D02*
G03*
X194000Y0I0J15000D01*
G01*
Y226000D02*
G03*
X179000Y241000I-15000J0D01*
G01*
X0D02*
G03*
X-15000Y226000I0J-15000D01*
G01*
X0Y241000D02*
X179000D01*
X0Y-15000D02*
X179000D01*
X-15000Y-0D02*
Y226000D01*
X194000Y0D02*
Y226000D01*
D11*
X52858Y217898D02*
Y230102D01*
X35142D02*
X52858D01*
X35142Y217898D02*
Y230102D01*
Y217898D02*
X52858D01*
Y117299D02*
Y129504D01*
X35142D02*
X52858D01*
X35142Y117299D02*
Y129504D01*
Y117299D02*
X52858D01*
Y143299D02*
Y155504D01*
X35142D02*
X52858D01*
X35142Y143299D02*
Y155504D01*
Y143299D02*
X52858D01*
Y191898D02*
Y204102D01*
X35142D02*
X52858D01*
X35142Y191898D02*
Y204102D01*
Y191898D02*
X52858D01*
X58764Y216913D02*
Y231087D01*
X29236D02*
X58764D01*
X29236Y216913D02*
Y231087D01*
Y216913D02*
X58764D01*
Y116315D02*
Y130488D01*
X29236D02*
X58764D01*
X29236Y116315D02*
Y130488D01*
Y116315D02*
X58764D01*
Y142315D02*
Y156488D01*
X29236D02*
X58764D01*
X29236Y142315D02*
Y156488D01*
Y142315D02*
X58764D01*
Y190913D02*
Y205087D01*
X29236D02*
X58764D01*
X29236Y190913D02*
Y205087D01*
Y190913D02*
X58764D01*
Y216913D02*
Y231087D01*
X29236D02*
X58764D01*
X29236Y216913D02*
Y231087D01*
Y216913D02*
X58764D01*
Y116315D02*
Y130488D01*
X29236D02*
X58764D01*
X29236Y116315D02*
Y130488D01*
Y116315D02*
X58764D01*
Y142315D02*
Y156488D01*
X29236D02*
X58764D01*
X29236Y142315D02*
Y156488D01*
Y142315D02*
X58764D01*
Y190913D02*
Y205087D01*
X29236D02*
X58764D01*
X29236Y190913D02*
Y205087D01*
Y190913D02*
X58764D01*
X79512Y147500D02*
G03*
X79512Y147500I-394J0D01*
G01*
Y222000D02*
G03*
X79512Y222000I-394J0D01*
G01*
D12*
X44000Y222031D02*
Y225969D01*
X42031Y224000D02*
X45968D01*
X44000Y121433D02*
Y125370D01*
X42031Y123402D02*
X45968D01*
X44000Y147433D02*
Y151370D01*
X42031Y149402D02*
X45968D01*
X44000Y196031D02*
Y199969D01*
X42031Y198000D02*
X45968D01*
X142516Y227256D02*
X154484D01*
X142516Y221744D02*
X154484D01*
Y227256D01*
X142516Y221744D02*
Y227256D01*
Y152756D02*
X154484D01*
X142516Y147244D02*
X154484D01*
Y152756D01*
X142516Y147244D02*
Y152756D01*
X155189Y13716D02*
Y28284D01*
X128811Y13716D02*
Y28284D01*
X155189D01*
X128811Y13716D02*
X155189D01*
X148500Y222532D02*
Y226468D01*
X146531Y224500D02*
X150469D01*
X148500Y148031D02*
Y151969D01*
X146531Y150000D02*
X150469D01*
X140032Y21000D02*
X143968D01*
X142000Y19031D02*
Y22968D01*
X155583Y5252D02*
Y36748D01*
X128417Y5252D02*
Y36748D01*
X155583D01*
X128417Y5252D02*
X155583D01*
D13*
X76323Y156299D02*
X119630D01*
X76323Y93701D02*
X119630D01*
X76323D02*
Y156299D01*
X119630Y93701D02*
Y156299D01*
X76323Y230799D02*
X119630D01*
X76323Y168201D02*
X119630D01*
X76323D02*
Y230799D01*
X119630Y168201D02*
Y230799D01*
D14*
X45878Y109902D02*
G03*
X45878Y109902I-1378J0D01*
G01*
Y135902D02*
G03*
X45878Y135902I-1378J0D01*
G01*
Y210500D02*
G03*
X45878Y210500I-1378J0D01*
G01*
Y184500D02*
G03*
X45878Y184500I-1378J0D01*
G01*
X110378Y68000D02*
G03*
X110378Y68000I-1378J0D01*
G01*
X151378Y173598D02*
G03*
X151378Y173598I-1378J0D01*
G01*
X179378Y58500D02*
G03*
X179378Y58500I-1378J0D01*
G01*
X151189Y99000D02*
G03*
X151189Y99000I-1378J0D01*
G01*
X87378Y15500D02*
G03*
X87378Y15500I-1378J0D01*
G01*
X-1622Y101815D02*
G03*
X-1622Y101815I-1378J0D01*
G01*
Y178685D02*
G03*
X-1622Y178685I-1378J0D01*
G01*
Y36342D02*
G03*
X-1622Y36342I-1378J0D01*
G01*
X44500Y107933D02*
Y111870D01*
X42531Y109902D02*
X46468D01*
X44500Y133933D02*
Y137870D01*
X42531Y135902D02*
X46468D01*
X44500Y208531D02*
Y212469D01*
X42531Y210500D02*
X46468D01*
X44500Y182531D02*
Y186469D01*
X42531Y184500D02*
X46468D01*
X67032Y157283D02*
X128921D01*
X67032Y92716D02*
X128921D01*
X67032D02*
Y157283D01*
X128921Y92716D02*
Y157283D01*
X67032Y231784D02*
X128921D01*
X67032Y167217D02*
X128921D01*
X67032D02*
Y231784D01*
X128921Y167217D02*
Y231784D01*
X109000Y66031D02*
Y69968D01*
X107032Y68000D02*
X110968D01*
X141610Y232177D02*
X155390D01*
X141610Y216823D02*
X155390D01*
Y232177D01*
X141610Y216823D02*
Y232177D01*
Y157677D02*
X155390D01*
X141610Y142323D02*
X155390D01*
Y157677D01*
X141610Y142323D02*
Y157677D01*
X150000Y171630D02*
Y175567D01*
X148031Y173598D02*
X151969D01*
X176031Y58500D02*
X179969D01*
X178000Y56532D02*
Y60469D01*
X149811Y97031D02*
Y100969D01*
X147843Y99000D02*
X151779D01*
X86000Y13532D02*
Y17469D01*
X84031Y15500D02*
X87968D01*
X-4969Y101815D02*
X-1032D01*
X-3000Y99847D02*
Y103784D01*
X-4969Y178685D02*
X-1032D01*
X-3000Y176716D02*
Y180654D01*
Y34374D02*
Y38311D01*
X-4969Y36342D02*
X-1032D01*
D15*
X23000Y198098D02*
G03*
X23000Y198098I-500J0D01*
G01*
Y224098D02*
G03*
X23000Y224098I-500J0D01*
G01*
X149048Y117500D02*
G03*
X149048Y117500I-500J0D01*
G01*
X149047Y122500D02*
G03*
X149047Y122500I-500J0D01*
G01*
Y127500D02*
G03*
X149047Y127500I-500J0D01*
G01*
Y132500D02*
G03*
X149047Y132500I-500J0D01*
G01*
Y137500D02*
G03*
X149047Y137500I-500J0D01*
G01*
X149048Y192099D02*
G03*
X149048Y192099I-500J0D01*
G01*
X149047Y197098D02*
G03*
X149047Y197098I-500J0D01*
G01*
Y202098D02*
G03*
X149047Y202098I-500J0D01*
G01*
Y207098D02*
G03*
X149047Y207098I-500J0D01*
G01*
Y212098D02*
G03*
X149047Y212098I-500J0D01*
G01*
X23000Y123500D02*
G03*
X23000Y123500I-500J0D01*
G01*
Y149500D02*
G03*
X23000Y149500I-500J0D01*
G01*
X168500Y19000D02*
G03*
X168500Y19000I-500J0D01*
G01*
X153000Y-5500D02*
G03*
X153000Y-5500I-500J0D01*
G01*
X146000D02*
G03*
X146000Y-5500I-500J0D01*
G01*
X139000D02*
G03*
X139000Y-5500I-500J0D01*
G01*
X132000D02*
G03*
X132000Y-5500I-500J0D01*
G01*
X182000Y19000D02*
G03*
X182000Y19000I-500J0D01*
G01*
X21713Y198098D02*
X23287D01*
X22500Y197311D02*
Y198886D01*
X21713Y224098D02*
X23287D01*
X22500Y223311D02*
Y224886D01*
X148548Y116713D02*
Y118287D01*
X147760Y117500D02*
X149335D01*
X148547Y121713D02*
Y123287D01*
X147760Y122500D02*
X149335D01*
X148547Y126713D02*
Y128287D01*
X147760Y127500D02*
X149335D01*
X148547Y131713D02*
Y133287D01*
X147760Y132500D02*
X149335D01*
X148547Y136713D02*
Y138287D01*
X147760Y137500D02*
X149335D01*
X148548Y191311D02*
Y192886D01*
X147760Y192099D02*
X149335D01*
X148547Y196311D02*
Y197886D01*
X147760Y197098D02*
X149335D01*
X148547Y201311D02*
Y202886D01*
X147760Y202098D02*
X149335D01*
X148547Y206311D02*
Y207886D01*
X147760Y207098D02*
X149335D01*
X148547Y211311D02*
Y212886D01*
X147760Y212098D02*
X149335D01*
X21713Y123500D02*
X23287D01*
X22500Y122713D02*
Y124287D01*
X21713Y149500D02*
X23287D01*
X22500Y148713D02*
Y150287D01*
X168000Y18213D02*
Y19787D01*
X167213Y19000D02*
X168787D01*
X151713Y-5500D02*
X153287D01*
X152500Y-6287D02*
Y-4713D01*
X144713Y-5500D02*
X146287D01*
X145500Y-6287D02*
Y-4713D01*
X137713Y-5500D02*
X139287D01*
X138500Y-6287D02*
Y-4713D01*
X130713Y-5500D02*
X132287D01*
X131500Y-6287D02*
Y-4713D01*
X181500Y18212D02*
Y19787D01*
X180712Y19000D02*
X182287D01*
D16*
X35700Y33204D02*
Y34804D01*
X37300D01*
Y33204D01*
X35700D01*
Y14700D02*
Y16300D01*
X37300D01*
Y14700D01*
X35700D01*
Y-3804D02*
Y-2204D01*
X37300D01*
Y-3804D01*
X35700D01*
X179000Y-800D02*
X178200Y800D01*
X179800D01*
X179000Y-800D01*
X0Y225200D02*
X-800Y226800D01*
X800D01*
X0Y225200D01*
X179000D02*
X178200Y226800D01*
X179800D01*
X179000Y225200D01*
X0Y-800D02*
X-800Y800D01*
X800D01*
X0Y-800D01*
X-3000Y120700D02*
X-2600Y121100D01*
X-2200D01*
X-2600Y121500D01*
X-2200Y121900D01*
X-2600D01*
X-3000Y122300D01*
X-3400Y121900D01*
X-3800D01*
X-3400Y121500D01*
X-3800Y121100D01*
X-3400D01*
X-3000Y120700D01*
Y101015D02*
X-2600Y101415D01*
X-2200D01*
X-2600Y101815D01*
X-2200Y102215D01*
X-2600D01*
X-3000Y102615D01*
X-3400Y102215D01*
X-3800D01*
X-3400Y101815D01*
X-3800Y101415D01*
X-3400D01*
X-3000Y101015D01*
Y81330D02*
X-2600Y81730D01*
X-2200D01*
X-2600Y82130D01*
X-2200Y82530D01*
X-2600D01*
X-3000Y82930D01*
X-3400Y82530D01*
X-3800D01*
X-3400Y82130D01*
X-3800Y81730D01*
X-3400D01*
X-3000Y81330D01*
Y197570D02*
X-2600Y197970D01*
X-2200D01*
X-2600Y198370D01*
X-2200Y198770D01*
X-2600D01*
X-3000Y199170D01*
X-3400Y198770D01*
X-3800D01*
X-3400Y198370D01*
X-3800Y197970D01*
X-3400D01*
X-3000Y197570D01*
Y177885D02*
X-2600Y178285D01*
X-2200D01*
X-2600Y178685D01*
X-2200Y179085D01*
X-2600D01*
X-3000Y179485D01*
X-3400Y179085D01*
X-3800D01*
X-3400Y178685D01*
X-3800Y178285D01*
X-3400D01*
X-3000Y177885D01*
Y158200D02*
X-2600Y158600D01*
X-2200D01*
X-2600Y159000D01*
X-2200Y159400D01*
X-2600D01*
X-3000Y159800D01*
X-3400Y159400D01*
X-3800D01*
X-3400Y159000D01*
X-3800Y158600D01*
X-3400D01*
X-3000Y158200D01*
Y45700D02*
X-2600Y46100D01*
X-2200D01*
X-2600Y46500D01*
X-2200Y46900D01*
X-2600D01*
X-3000Y47300D01*
X-3400Y46900D01*
X-3800D01*
X-3400Y46500D01*
X-3800Y46100D01*
X-3400D01*
X-3000Y45700D01*
Y25700D02*
X-2600Y26100D01*
X-2200D01*
X-2600Y26500D01*
X-2200Y26900D01*
X-2600D01*
X-3000Y27300D01*
X-3400Y26900D01*
X-3800D01*
X-3400Y26500D01*
X-3800Y26100D01*
X-3400D01*
X-3000Y25700D01*
X65700Y206200D02*
X66100Y207000D01*
X65700Y207800D01*
X66500Y207400D01*
X67300Y207800D01*
X66900Y207000D01*
X67300Y206200D01*
X66500Y206600D01*
X65700Y206200D01*
X152200Y140200D02*
X152600Y141000D01*
X152200Y141800D01*
X153000Y141400D01*
X153800Y141800D01*
X153400Y141000D01*
X153800Y140200D01*
X153000Y140600D01*
X152200Y140200D01*
Y143320D02*
X152600Y144120D01*
X152200Y144920D01*
X153000Y144520D01*
X153800Y144920D01*
X153400Y144120D01*
X153800Y143320D01*
X153000Y143720D01*
X152200Y143320D01*
Y146200D02*
X152600Y147000D01*
X152200Y147800D01*
X153000Y147400D01*
X153800Y147800D01*
X153400Y147000D01*
X153800Y146200D01*
X153000Y146600D01*
X152200Y146200D01*
X151440Y149200D02*
X151840Y150000D01*
X151440Y150800D01*
X152240Y150400D01*
X153040Y150800D01*
X152640Y150000D01*
X153040Y149200D01*
X152240Y149600D01*
X151440Y149200D01*
X151881Y220519D02*
X152281Y221319D01*
X151881Y222119D01*
X152681Y221719D01*
X153481Y222119D01*
X153081Y221319D01*
X153481Y220519D01*
X152681Y220919D01*
X151881Y220519D01*
X151700Y223200D02*
X152100Y224000D01*
X151700Y224800D01*
X152500Y224400D01*
X153300Y224800D01*
X152900Y224000D01*
X153300Y223200D01*
X152500Y223600D01*
X151700Y223200D01*
Y214700D02*
X152100Y215500D01*
X151700Y216300D01*
X152500Y215900D01*
X153300Y216300D01*
X152900Y215500D01*
X153300Y214700D01*
X152500Y215100D01*
X151700Y214700D01*
Y217700D02*
X152100Y218500D01*
X151700Y219300D01*
X152500Y218900D01*
X153300Y219300D01*
X152900Y218500D01*
X153300Y217700D01*
X152500Y218100D01*
X151700Y217700D01*
X139200Y196299D02*
X139600Y197099D01*
X139200Y197899D01*
X140000Y197499D01*
X140800Y197899D01*
X140400Y197099D01*
X140800Y196299D01*
X140000Y196699D01*
X139200Y196299D01*
X142700Y196200D02*
X143100Y197000D01*
X142700Y197800D01*
X143500Y197400D01*
X144300Y197800D01*
X143900Y197000D01*
X144300Y196200D01*
X143500Y196600D01*
X142700Y196200D01*
X144700Y172700D02*
X145100Y173500D01*
X144700Y174300D01*
X145500Y173900D01*
X146300Y174300D01*
X145900Y173500D01*
X146300Y172700D01*
X145500Y173100D01*
X144700Y172700D01*
X147450D02*
X147850Y173500D01*
X147450Y174300D01*
X148250Y173900D01*
X149050Y174300D01*
X148650Y173500D01*
X149050Y172700D01*
X148250Y173100D01*
X147450Y172700D01*
X150200D02*
X150600Y173500D01*
X150200Y174300D01*
X151000Y173900D01*
X151800Y174300D01*
X151400Y173500D01*
X151800Y172700D01*
X151000Y173100D01*
X150200Y172700D01*
X129200Y181200D02*
X129600Y182000D01*
X129200Y182800D01*
X130000Y182400D01*
X130800Y182800D01*
X130400Y182000D01*
X130800Y181200D01*
X130000Y181600D01*
X129200Y181200D01*
X133700D02*
X134100Y182000D01*
X133700Y182800D01*
X134500Y182400D01*
X135300Y182800D01*
X134900Y182000D01*
X135300Y181200D01*
X134500Y181600D01*
X133700Y181200D01*
X138200D02*
X138600Y182000D01*
X138200Y182800D01*
X139000Y182400D01*
X139800Y182800D01*
X139400Y182000D01*
X139800Y181200D01*
X139000Y181600D01*
X138200Y181200D01*
X142200D02*
X142600Y182000D01*
X142200Y182800D01*
X143000Y182400D01*
X143800Y182800D01*
X143400Y182000D01*
X143800Y181200D01*
X143000Y181600D01*
X142200Y181200D01*
X146200D02*
X146600Y182000D01*
X146200Y182800D01*
X147000Y182400D01*
X147800Y182800D01*
X147400Y182000D01*
X147800Y181200D01*
X147000Y181600D01*
X146200Y181200D01*
X150700D02*
X151100Y182000D01*
X150700Y182800D01*
X151500Y182400D01*
X152300Y182800D01*
X151900Y182000D01*
X152300Y181200D01*
X151500Y181600D01*
X150700Y181200D01*
X154700D02*
X155100Y182000D01*
X154700Y182800D01*
X155500Y182400D01*
X156300Y182800D01*
X155900Y182000D01*
X156300Y181200D01*
X155500Y181600D01*
X154700Y181200D01*
X112200D02*
X112600Y182000D01*
X112200Y182800D01*
X113000Y182400D01*
X113800Y182800D01*
X113400Y182000D01*
X113800Y181200D01*
X113000Y181600D01*
X112200Y181200D01*
X61200D02*
X61600Y182000D01*
X61200Y182800D01*
X62000Y182400D01*
X62800Y182800D01*
X62400Y182000D01*
X62800Y181200D01*
X62000Y181600D01*
X61200Y181200D01*
X63700D02*
X64100Y182000D01*
X63700Y182800D01*
X64500Y182400D01*
X65300Y182800D01*
X64900Y182000D01*
X65300Y181200D01*
X64500Y181600D01*
X63700Y181200D01*
X66200D02*
X66600Y182000D01*
X66200Y182800D01*
X67000Y182400D01*
X67800Y182800D01*
X67400Y182000D01*
X67800Y181200D01*
X67000Y181600D01*
X66200Y181200D01*
X82200D02*
X82600Y182000D01*
X82200Y182800D01*
X83000Y182400D01*
X83800Y182800D01*
X83400Y182000D01*
X83800Y181200D01*
X83000Y181600D01*
X82200Y181200D01*
X79700D02*
X80100Y182000D01*
X79700Y182800D01*
X80500Y182400D01*
X81300Y182800D01*
X80900Y182000D01*
X81300Y181200D01*
X80500Y181600D01*
X79700Y181200D01*
X62200Y106700D02*
X62600Y107500D01*
X62200Y108300D01*
X63000Y107900D01*
X63800Y108300D01*
X63400Y107500D01*
X63800Y106700D01*
X63000Y107100D01*
X62200Y106700D01*
X58700D02*
X59100Y107500D01*
X58700Y108300D01*
X59500Y107900D01*
X60300Y108300D01*
X59900Y107500D01*
X60300Y106700D01*
X59500Y107100D01*
X58700Y106700D01*
X65700D02*
X66100Y107500D01*
X65700Y108300D01*
X66500Y107900D01*
X67300Y108300D01*
X66900Y107500D01*
X67300Y106700D01*
X66500Y107100D01*
X65700Y106700D01*
X82200D02*
X82600Y107500D01*
X82200Y108300D01*
X83000Y107900D01*
X83800Y108300D01*
X83400Y107500D01*
X83800Y106700D01*
X83000Y107100D01*
X82200Y106700D01*
X79700D02*
X80100Y107500D01*
X79700Y108300D01*
X80500Y107900D01*
X81300Y108300D01*
X80900Y107500D01*
X81300Y106700D01*
X80500Y107100D01*
X79700Y106700D01*
X154700D02*
X155100Y107500D01*
X154700Y108300D01*
X155500Y107900D01*
X156300Y108300D01*
X155900Y107500D01*
X156300Y106700D01*
X155500Y107100D01*
X154700Y106700D01*
X150700D02*
X151100Y107500D01*
X150700Y108300D01*
X151500Y107900D01*
X152300Y108300D01*
X151900Y107500D01*
X152300Y106700D01*
X151500Y107100D01*
X150700Y106700D01*
X146200D02*
X146600Y107500D01*
X146200Y108300D01*
X147000Y107900D01*
X147800Y108300D01*
X147400Y107500D01*
X147800Y106700D01*
X147000Y107100D01*
X146200Y106700D01*
X142200D02*
X142600Y107500D01*
X142200Y108300D01*
X143000Y107900D01*
X143800Y108300D01*
X143400Y107500D01*
X143800Y106700D01*
X143000Y107100D01*
X142200Y106700D01*
X138200D02*
X138600Y107500D01*
X138200Y108300D01*
X139000Y107900D01*
X139800Y108300D01*
X139400Y107500D01*
X139800Y106700D01*
X139000Y107100D01*
X138200Y106700D01*
X86200Y14700D02*
X86600Y15500D01*
X86200Y16300D01*
X87000Y15900D01*
X87800Y16300D01*
X87400Y15500D01*
X87800Y14700D01*
X87000Y15100D01*
X86200Y14700D01*
X89200D02*
X89600Y15500D01*
X89200Y16300D01*
X90000Y15900D01*
X90800Y16300D01*
X90400Y15500D01*
X90800Y14700D01*
X90000Y15100D01*
X89200Y14700D01*
X92200D02*
X92600Y15500D01*
X92200Y16300D01*
X93000Y15900D01*
X93800Y16300D01*
X93400Y15500D01*
X93800Y14700D01*
X93000Y15100D01*
X92200Y14700D01*
X95200D02*
X95600Y15500D01*
X95200Y16300D01*
X96000Y15900D01*
X96800Y16300D01*
X96400Y15500D01*
X96800Y14700D01*
X96000Y15100D01*
X95200Y14700D01*
X101200Y52700D02*
X101600Y53500D01*
X101200Y54300D01*
X102000Y53900D01*
X102800Y54300D01*
X102400Y53500D01*
X102800Y52700D01*
X102000Y53100D01*
X101200Y52700D01*
X97200D02*
X97600Y53500D01*
X97200Y54300D01*
X98000Y53900D01*
X98800Y54300D01*
X98400Y53500D01*
X98800Y52700D01*
X98000Y53100D01*
X97200Y52700D01*
X71700D02*
X72100Y53500D01*
X71700Y54300D01*
X72500Y53900D01*
X73300Y54300D01*
X72900Y53500D01*
X73300Y52700D01*
X72500Y53100D01*
X71700Y52700D01*
X68200D02*
X68600Y53500D01*
X68200Y54300D01*
X69000Y53900D01*
X69800Y54300D01*
X69400Y53500D01*
X69800Y52700D01*
X69000Y53100D01*
X68200Y52700D01*
X133700Y106700D02*
X134100Y107500D01*
X133700Y108300D01*
X134500Y107900D01*
X135300Y108300D01*
X134900Y107500D01*
X135300Y106700D01*
X134500Y107100D01*
X133700Y106700D01*
X129200D02*
X129600Y107500D01*
X129200Y108300D01*
X130000Y107900D01*
X130800Y108300D01*
X130400Y107500D01*
X130800Y106700D01*
X130000Y107100D01*
X129200Y106700D01*
X117200D02*
X117600Y107500D01*
X117200Y108300D01*
X118000Y107900D01*
X118800Y108300D01*
X118400Y107500D01*
X118800Y106700D01*
X118000Y107100D01*
X117200Y106700D01*
X112700D02*
X113100Y107500D01*
X112700Y108300D01*
X113500Y107900D01*
X114300Y108300D01*
X113900Y107500D01*
X114300Y106700D01*
X113500Y107100D01*
X112700Y106700D01*
X144700Y98200D02*
X145100Y99000D01*
X144700Y99800D01*
X145500Y99400D01*
X146300Y99800D01*
X145900Y99000D01*
X146300Y98200D01*
X145500Y98600D01*
X144700Y98200D01*
X150200D02*
X150600Y99000D01*
X150200Y99800D01*
X151000Y99400D01*
X151800Y99800D01*
X151400Y99000D01*
X151800Y98200D01*
X151000Y98600D01*
X150200Y98200D01*
X147450D02*
X147850Y99000D01*
X147450Y99800D01*
X148250Y99400D01*
X149050Y99800D01*
X148650Y99000D01*
X149050Y98200D01*
X148250Y98600D01*
X147450Y98200D01*
X183200Y24200D02*
X183600Y25000D01*
X183200Y25800D01*
X184000Y25400D01*
X184800Y25800D01*
X184400Y25000D01*
X184800Y24200D01*
X184000Y24600D01*
X183200Y24200D01*
X109700Y166200D02*
X110100Y167000D01*
X109700Y167800D01*
X110500Y167400D01*
X111300Y167800D01*
X110900Y167000D01*
X111300Y166200D01*
X110500Y166600D01*
X109700Y166200D01*
X117700Y161698D02*
X118100Y162498D01*
X117700Y163298D01*
X118500Y162898D01*
X119300Y163298D01*
X118900Y162498D01*
X119300Y161698D01*
X118500Y162098D01*
X117700Y161698D01*
X113700Y164200D02*
X114100Y165000D01*
X113700Y165800D01*
X114500Y165400D01*
X115300Y165800D01*
X114900Y165000D01*
X115300Y164200D01*
X114500Y164600D01*
X113700Y164200D01*
X121200Y159200D02*
X121600Y160000D01*
X121200Y160800D01*
X122000Y160400D01*
X122800Y160800D01*
X122400Y160000D01*
X122800Y159200D01*
X122000Y159600D01*
X121200Y159200D01*
X166700Y163898D02*
X167100Y164698D01*
X166700Y165498D01*
X167500Y165098D01*
X168300Y165498D01*
X167900Y164698D01*
X168300Y163898D01*
X167500Y164298D01*
X166700Y163898D01*
X93200Y168700D02*
X93600Y169500D01*
X93200Y170300D01*
X94000Y169900D01*
X94800Y170300D01*
X94400Y169500D01*
X94800Y168700D01*
X94000Y169100D01*
X93200Y168700D01*
X97200D02*
X97600Y169500D01*
X97200Y170300D01*
X98000Y169900D01*
X98800Y170300D01*
X98400Y169500D01*
X98800Y168700D01*
X98000Y169100D01*
X97200Y168700D01*
X101200D02*
X101600Y169500D01*
X101200Y170300D01*
X102000Y169900D01*
X102800Y170300D01*
X102400Y169500D01*
X102800Y168700D01*
X102000Y169100D01*
X101200Y168700D01*
X87200Y134200D02*
X87600Y135000D01*
X87200Y135800D01*
X88000Y135400D01*
X88800Y135800D01*
X88400Y135000D01*
X88800Y134200D01*
X88000Y134600D01*
X87200Y134200D01*
X97200Y140200D02*
X97600Y141000D01*
X97200Y141800D01*
X98000Y141400D01*
X98800Y141800D01*
X98400Y141000D01*
X98800Y140200D01*
X98000Y140600D01*
X97200Y140200D01*
X87200Y129200D02*
X87600Y130000D01*
X87200Y130800D01*
X88000Y130400D01*
X88800Y130800D01*
X88400Y130000D01*
X88800Y129200D01*
X88000Y129600D01*
X87200Y129200D01*
X101200Y145200D02*
X101600Y146000D01*
X101200Y146800D01*
X102000Y146400D01*
X102800Y146800D01*
X102400Y146000D01*
X102800Y145200D01*
X102000Y145600D01*
X101200Y145200D01*
X87200Y140200D02*
X87600Y141000D01*
X87200Y141800D01*
X88000Y141400D01*
X88800Y141800D01*
X88400Y141000D01*
X88800Y140200D01*
X88000Y140600D01*
X87200Y140200D01*
X92200D02*
X92600Y141000D01*
X92200Y141800D01*
X93000Y141400D01*
X93800Y141800D01*
X93400Y141000D01*
X93800Y140200D01*
X93000Y140600D01*
X92200Y140200D01*
Y134200D02*
X92600Y135000D01*
X92200Y135800D01*
X93000Y135400D01*
X93800Y135800D01*
X93400Y135000D01*
X93800Y134200D01*
X93000Y134600D01*
X92200Y134200D01*
X151440Y155700D02*
X151840Y156500D01*
X151440Y157300D01*
X152240Y156900D01*
X153040Y157300D01*
X152640Y156500D01*
X153040Y155700D01*
X152240Y156100D01*
X151440Y155700D01*
X87200Y188700D02*
X87600Y189500D01*
X87200Y190300D01*
X88000Y189900D01*
X88800Y190300D01*
X88400Y189500D01*
X88800Y188700D01*
X88000Y189100D01*
X87200Y188700D01*
Y193700D02*
X87600Y194500D01*
X87200Y195300D01*
X88000Y194900D01*
X88800Y195300D01*
X88400Y194500D01*
X88800Y193700D01*
X88000Y194100D01*
X87200Y193700D01*
Y208700D02*
X87600Y209500D01*
X87200Y210300D01*
X88000Y209900D01*
X88800Y210300D01*
X88400Y209500D01*
X88800Y208700D01*
X88000Y209100D01*
X87200Y208700D01*
Y203700D02*
X87600Y204500D01*
X87200Y205300D01*
X88000Y204900D01*
X88800Y205300D01*
X88400Y204500D01*
X88800Y203700D01*
X88000Y204100D01*
X87200Y203700D01*
Y198700D02*
X87600Y199500D01*
X87200Y200300D01*
X88000Y199900D01*
X88800Y200300D01*
X88400Y199500D01*
X88800Y198700D01*
X88000Y199100D01*
X87200Y198700D01*
Y114200D02*
X87600Y115000D01*
X87200Y115800D01*
X88000Y115400D01*
X88800Y115800D01*
X88400Y115000D01*
X88800Y114200D01*
X88000Y114600D01*
X87200Y114200D01*
Y119200D02*
X87600Y120000D01*
X87200Y120800D01*
X88000Y120400D01*
X88800Y120800D01*
X88400Y120000D01*
X88800Y119200D01*
X88000Y119600D01*
X87200Y119200D01*
Y124200D02*
X87600Y125000D01*
X87200Y125800D01*
X88000Y125400D01*
X88800Y125800D01*
X88400Y125000D01*
X88800Y124200D01*
X88000Y124600D01*
X87200Y124200D01*
X58700Y81200D02*
X59100Y82000D01*
X58700Y82800D01*
X59500Y82400D01*
X60300Y82800D01*
X59900Y82000D01*
X60300Y81200D01*
X59500Y81600D01*
X58700Y81200D01*
Y76200D02*
X59100Y77000D01*
X58700Y77800D01*
X59500Y77400D01*
X60300Y77800D01*
X59900Y77000D01*
X60300Y76200D01*
X59500Y76600D01*
X58700Y76200D01*
X28700Y51200D02*
X29100Y52000D01*
X28700Y52800D01*
X29500Y52400D01*
X30300Y52800D01*
X29900Y52000D01*
X30300Y51200D01*
X29500Y51600D01*
X28700Y51200D01*
Y81200D02*
X29100Y82000D01*
X28700Y82800D01*
X29500Y82400D01*
X30300Y82800D01*
X29900Y82000D01*
X30300Y81200D01*
X29500Y81600D01*
X28700Y81200D01*
X58700Y51200D02*
X59100Y52000D01*
X58700Y52800D01*
X59500Y52400D01*
X60300Y52800D01*
X59900Y52000D01*
X60300Y51200D01*
X59500Y51600D01*
X58700Y51200D01*
Y71200D02*
X59100Y72000D01*
X58700Y72800D01*
X59500Y72400D01*
X60300Y72800D01*
X59900Y72000D01*
X60300Y71200D01*
X59500Y71600D01*
X58700Y71200D01*
Y66200D02*
X59100Y67000D01*
X58700Y67800D01*
X59500Y67400D01*
X60300Y67800D01*
X59900Y67000D01*
X60300Y66200D01*
X59500Y66600D01*
X58700Y66200D01*
Y61200D02*
X59100Y62000D01*
X58700Y62800D01*
X59500Y62400D01*
X60300Y62800D01*
X59900Y62000D01*
X60300Y61200D01*
X59500Y61600D01*
X58700Y61200D01*
Y56200D02*
X59100Y57000D01*
X58700Y57800D01*
X59500Y57400D01*
X60300Y57800D01*
X59900Y57000D01*
X60300Y56200D01*
X59500Y56600D01*
X58700Y56200D01*
X33700Y51200D02*
X34100Y52000D01*
X33700Y52800D01*
X34500Y52400D01*
X35300Y52800D01*
X34900Y52000D01*
X35300Y51200D01*
X34500Y51600D01*
X33700Y51200D01*
X53700D02*
X54100Y52000D01*
X53700Y52800D01*
X54500Y52400D01*
X55300Y52800D01*
X54900Y52000D01*
X55300Y51200D01*
X54500Y51600D01*
X53700Y51200D01*
X48700D02*
X49100Y52000D01*
X48700Y52800D01*
X49500Y52400D01*
X50300Y52800D01*
X49900Y52000D01*
X50300Y51200D01*
X49500Y51600D01*
X48700Y51200D01*
X43700D02*
X44100Y52000D01*
X43700Y52800D01*
X44500Y52400D01*
X45300Y52800D01*
X44900Y52000D01*
X45300Y51200D01*
X44500Y51600D01*
X43700Y51200D01*
X38700D02*
X39100Y52000D01*
X38700Y52800D01*
X39500Y52400D01*
X40300Y52800D01*
X39900Y52000D01*
X40300Y51200D01*
X39500Y51600D01*
X38700Y51200D01*
X28700Y76200D02*
X29100Y77000D01*
X28700Y77800D01*
X29500Y77400D01*
X30300Y77800D01*
X29900Y77000D01*
X30300Y76200D01*
X29500Y76600D01*
X28700Y76200D01*
Y71200D02*
X29100Y72000D01*
X28700Y72800D01*
X29500Y72400D01*
X30300Y72800D01*
X29900Y72000D01*
X30300Y71200D01*
X29500Y71600D01*
X28700Y71200D01*
Y66200D02*
X29100Y67000D01*
X28700Y67800D01*
X29500Y67400D01*
X30300Y67800D01*
X29900Y67000D01*
X30300Y66200D01*
X29500Y66600D01*
X28700Y66200D01*
Y56200D02*
X29100Y57000D01*
X28700Y57800D01*
X29500Y57400D01*
X30300Y57800D01*
X29900Y57000D01*
X30300Y56200D01*
X29500Y56600D01*
X28700Y56200D01*
Y61200D02*
X29100Y62000D01*
X28700Y62800D01*
X29500Y62400D01*
X30300Y62800D01*
X29900Y62000D01*
X30300Y61200D01*
X29500Y61600D01*
X28700Y61200D01*
X33700Y56200D02*
X34100Y57000D01*
X33700Y57800D01*
X34500Y57400D01*
X35300Y57800D01*
X34900Y57000D01*
X35300Y56200D01*
X34500Y56600D01*
X33700Y56200D01*
Y61200D02*
X34100Y62000D01*
X33700Y62800D01*
X34500Y62400D01*
X35300Y62800D01*
X34900Y62000D01*
X35300Y61200D01*
X34500Y61600D01*
X33700Y61200D01*
Y66200D02*
X34100Y67000D01*
X33700Y67800D01*
X34500Y67400D01*
X35300Y67800D01*
X34900Y67000D01*
X35300Y66200D01*
X34500Y66600D01*
X33700Y66200D01*
Y71200D02*
X34100Y72000D01*
X33700Y72800D01*
X34500Y72400D01*
X35300Y72800D01*
X34900Y72000D01*
X35300Y71200D01*
X34500Y71600D01*
X33700Y71200D01*
Y76200D02*
X34100Y77000D01*
X33700Y77800D01*
X34500Y77400D01*
X35300Y77800D01*
X34900Y77000D01*
X35300Y76200D01*
X34500Y76600D01*
X33700Y76200D01*
X33789Y81127D02*
X34189Y81927D01*
X33789Y82727D01*
X34589Y82327D01*
X35389Y82727D01*
X34989Y81927D01*
X35389Y81127D01*
X34589Y81527D01*
X33789Y81127D01*
X53789D02*
X54189Y81927D01*
X53789Y82727D01*
X54589Y82327D01*
X55389Y82727D01*
X54989Y81927D01*
X55389Y81127D01*
X54589Y81527D01*
X53789Y81127D01*
X48789D02*
X49189Y81927D01*
X48789Y82727D01*
X49589Y82327D01*
X50389Y82727D01*
X49989Y81927D01*
X50389Y81127D01*
X49589Y81527D01*
X48789Y81127D01*
X43789D02*
X44189Y81927D01*
X43789Y82727D01*
X44589Y82327D01*
X45389Y82727D01*
X44989Y81927D01*
X45389Y81127D01*
X44589Y81527D01*
X43789Y81127D01*
X38789D02*
X39189Y81927D01*
X38789Y82727D01*
X39589Y82327D01*
X40389Y82727D01*
X39989Y81927D01*
X40389Y81127D01*
X39589Y81527D01*
X38789Y81127D01*
X38700Y66200D02*
X39100Y67000D01*
X38700Y67800D01*
X39500Y67400D01*
X40300Y67800D01*
X39900Y67000D01*
X40300Y66200D01*
X39500Y66600D01*
X38700Y66200D01*
X43700D02*
X44100Y67000D01*
X43700Y67800D01*
X44500Y67400D01*
X45300Y67800D01*
X44900Y67000D01*
X45300Y66200D01*
X44500Y66600D01*
X43700Y66200D01*
X48700D02*
X49100Y67000D01*
X48700Y67800D01*
X49500Y67400D01*
X50300Y67800D01*
X49900Y67000D01*
X50300Y66200D01*
X49500Y66600D01*
X48700Y66200D01*
Y71200D02*
X49100Y72000D01*
X48700Y72800D01*
X49500Y72400D01*
X50300Y72800D01*
X49900Y72000D01*
X50300Y71200D01*
X49500Y71600D01*
X48700Y71200D01*
X43700D02*
X44100Y72000D01*
X43700Y72800D01*
X44500Y72400D01*
X45300Y72800D01*
X44900Y72000D01*
X45300Y71200D01*
X44500Y71600D01*
X43700Y71200D01*
X38700D02*
X39100Y72000D01*
X38700Y72800D01*
X39500Y72400D01*
X40300Y72800D01*
X39900Y72000D01*
X40300Y71200D01*
X39500Y71600D01*
X38700Y71200D01*
X48700Y76200D02*
X49100Y77000D01*
X48700Y77800D01*
X49500Y77400D01*
X50300Y77800D01*
X49900Y77000D01*
X50300Y76200D01*
X49500Y76600D01*
X48700Y76200D01*
X43700D02*
X44100Y77000D01*
X43700Y77800D01*
X44500Y77400D01*
X45300Y77800D01*
X44900Y77000D01*
X45300Y76200D01*
X44500Y76600D01*
X43700Y76200D01*
X38700D02*
X39100Y77000D01*
X38700Y77800D01*
X39500Y77400D01*
X40300Y77800D01*
X39900Y77000D01*
X40300Y76200D01*
X39500Y76600D01*
X38700Y76200D01*
X43700Y61200D02*
X44100Y62000D01*
X43700Y62800D01*
X44500Y62400D01*
X45300Y62800D01*
X44900Y62000D01*
X45300Y61200D01*
X44500Y61600D01*
X43700Y61200D01*
X38700D02*
X39100Y62000D01*
X38700Y62800D01*
X39500Y62400D01*
X40300Y62800D01*
X39900Y62000D01*
X40300Y61200D01*
X39500Y61600D01*
X38700Y61200D01*
X48700D02*
X49100Y62000D01*
X48700Y62800D01*
X49500Y62400D01*
X50300Y62800D01*
X49900Y62000D01*
X50300Y61200D01*
X49500Y61600D01*
X48700Y61200D01*
Y56200D02*
X49100Y57000D01*
X48700Y57800D01*
X49500Y57400D01*
X50300Y57800D01*
X49900Y57000D01*
X50300Y56200D01*
X49500Y56600D01*
X48700Y56200D01*
X43700D02*
X44100Y57000D01*
X43700Y57800D01*
X44500Y57400D01*
X45300Y57800D01*
X44900Y57000D01*
X45300Y56200D01*
X44500Y56600D01*
X43700Y56200D01*
X38700D02*
X39100Y57000D01*
X38700Y57800D01*
X39500Y57400D01*
X40300Y57800D01*
X39900Y57000D01*
X40300Y56200D01*
X39500Y56600D01*
X38700Y56200D01*
X53700Y71200D02*
X54100Y72000D01*
X53700Y72800D01*
X54500Y72400D01*
X55300Y72800D01*
X54900Y72000D01*
X55300Y71200D01*
X54500Y71600D01*
X53700Y71200D01*
Y66200D02*
X54100Y67000D01*
X53700Y67800D01*
X54500Y67400D01*
X55300Y67800D01*
X54900Y67000D01*
X55300Y66200D01*
X54500Y66600D01*
X53700Y66200D01*
Y61200D02*
X54100Y62000D01*
X53700Y62800D01*
X54500Y62400D01*
X55300Y62800D01*
X54900Y62000D01*
X55300Y61200D01*
X54500Y61600D01*
X53700Y61200D01*
Y56200D02*
X54100Y57000D01*
X53700Y57800D01*
X54500Y57400D01*
X55300Y57800D01*
X54900Y57000D01*
X55300Y56200D01*
X54500Y56600D01*
X53700Y56200D01*
Y76200D02*
X54100Y77000D01*
X53700Y77800D01*
X54500Y77400D01*
X55300Y77800D01*
X54900Y77000D01*
X55300Y76200D01*
X54500Y76600D01*
X53700Y76200D01*
X107200Y140200D02*
X107600Y141000D01*
X107200Y141800D01*
X108000Y141400D01*
X108800Y141800D01*
X108400Y141000D01*
X108800Y140200D01*
X108000Y140600D01*
X107200Y140200D01*
X102200D02*
X102600Y141000D01*
X102200Y141800D01*
X103000Y141400D01*
X103800Y141800D01*
X103400Y141000D01*
X103800Y140200D01*
X103000Y140600D01*
X102200Y140200D01*
X92200Y124200D02*
X92600Y125000D01*
X92200Y125800D01*
X93000Y125400D01*
X93800Y125800D01*
X93400Y125000D01*
X93800Y124200D01*
X93000Y124600D01*
X92200Y124200D01*
X97200D02*
X97600Y125000D01*
X97200Y125800D01*
X98000Y125400D01*
X98800Y125800D01*
X98400Y125000D01*
X98800Y124200D01*
X98000Y124600D01*
X97200Y124200D01*
X102200D02*
X102600Y125000D01*
X102200Y125800D01*
X103000Y125400D01*
X103800Y125800D01*
X103400Y125000D01*
X103800Y124200D01*
X103000Y124600D01*
X102200Y124200D01*
Y129200D02*
X102600Y130000D01*
X102200Y130800D01*
X103000Y130400D01*
X103800Y130800D01*
X103400Y130000D01*
X103800Y129200D01*
X103000Y129600D01*
X102200Y129200D01*
X97200D02*
X97600Y130000D01*
X97200Y130800D01*
X98000Y130400D01*
X98800Y130800D01*
X98400Y130000D01*
X98800Y129200D01*
X98000Y129600D01*
X97200Y129200D01*
X92200D02*
X92600Y130000D01*
X92200Y130800D01*
X93000Y130400D01*
X93800Y130800D01*
X93400Y130000D01*
X93800Y129200D01*
X93000Y129600D01*
X92200Y129200D01*
X102200Y134200D02*
X102600Y135000D01*
X102200Y135800D01*
X103000Y135400D01*
X103800Y135800D01*
X103400Y135000D01*
X103800Y134200D01*
X103000Y134600D01*
X102200Y134200D01*
X97200D02*
X97600Y135000D01*
X97200Y135800D01*
X98000Y135400D01*
X98800Y135800D01*
X98400Y135000D01*
X98800Y134200D01*
X98000Y134600D01*
X97200Y134200D01*
Y119200D02*
X97600Y120000D01*
X97200Y120800D01*
X98000Y120400D01*
X98800Y120800D01*
X98400Y120000D01*
X98800Y119200D01*
X98000Y119600D01*
X97200Y119200D01*
X92200D02*
X92600Y120000D01*
X92200Y120800D01*
X93000Y120400D01*
X93800Y120800D01*
X93400Y120000D01*
X93800Y119200D01*
X93000Y119600D01*
X92200Y119200D01*
X102200D02*
X102600Y120000D01*
X102200Y120800D01*
X103000Y120400D01*
X103800Y120800D01*
X103400Y120000D01*
X103800Y119200D01*
X103000Y119600D01*
X102200Y119200D01*
Y114200D02*
X102600Y115000D01*
X102200Y115800D01*
X103000Y115400D01*
X103800Y115800D01*
X103400Y115000D01*
X103800Y114200D01*
X103000Y114600D01*
X102200Y114200D01*
X97200D02*
X97600Y115000D01*
X97200Y115800D01*
X98000Y115400D01*
X98800Y115800D01*
X98400Y115000D01*
X98800Y114200D01*
X98000Y114600D01*
X97200Y114200D01*
X92200D02*
X92600Y115000D01*
X92200Y115800D01*
X93000Y115400D01*
X93800Y115800D01*
X93400Y115000D01*
X93800Y114200D01*
X93000Y114600D01*
X92200Y114200D01*
X107200Y129200D02*
X107600Y130000D01*
X107200Y130800D01*
X108000Y130400D01*
X108800Y130800D01*
X108400Y130000D01*
X108800Y129200D01*
X108000Y129600D01*
X107200Y129200D01*
Y124200D02*
X107600Y125000D01*
X107200Y125800D01*
X108000Y125400D01*
X108800Y125800D01*
X108400Y125000D01*
X108800Y124200D01*
X108000Y124600D01*
X107200Y124200D01*
Y119200D02*
X107600Y120000D01*
X107200Y120800D01*
X108000Y120400D01*
X108800Y120800D01*
X108400Y120000D01*
X108800Y119200D01*
X108000Y119600D01*
X107200Y119200D01*
Y114200D02*
X107600Y115000D01*
X107200Y115800D01*
X108000Y115400D01*
X108800Y115800D01*
X108400Y115000D01*
X108800Y114200D01*
X108000Y114600D01*
X107200Y114200D01*
Y134200D02*
X107600Y135000D01*
X107200Y135800D01*
X108000Y135400D01*
X108800Y135800D01*
X108400Y135000D01*
X108800Y134200D01*
X108000Y134600D01*
X107200Y134200D01*
Y214700D02*
X107600Y215500D01*
X107200Y216300D01*
X108000Y215900D01*
X108800Y216300D01*
X108400Y215500D01*
X108800Y214700D01*
X108000Y215100D01*
X107200Y214700D01*
Y208700D02*
X107600Y209500D01*
X107200Y210300D01*
X108000Y209900D01*
X108800Y210300D01*
X108400Y209500D01*
X108800Y208700D01*
X108000Y209100D01*
X107200Y208700D01*
Y188700D02*
X107600Y189500D01*
X107200Y190300D01*
X108000Y189900D01*
X108800Y190300D01*
X108400Y189500D01*
X108800Y188700D01*
X108000Y189100D01*
X107200Y188700D01*
Y193700D02*
X107600Y194500D01*
X107200Y195300D01*
X108000Y194900D01*
X108800Y195300D01*
X108400Y194500D01*
X108800Y193700D01*
X108000Y194100D01*
X107200Y193700D01*
Y198700D02*
X107600Y199500D01*
X107200Y200300D01*
X108000Y199900D01*
X108800Y200300D01*
X108400Y199500D01*
X108800Y198700D01*
X108000Y199100D01*
X107200Y198700D01*
Y203700D02*
X107600Y204500D01*
X107200Y205300D01*
X108000Y204900D01*
X108800Y205300D01*
X108400Y204500D01*
X108800Y203700D01*
X108000Y204100D01*
X107200Y203700D01*
X97200Y172700D02*
X97600Y173500D01*
X97200Y174300D01*
X98000Y173900D01*
X98800Y174300D01*
X98400Y173500D01*
X98800Y172700D01*
X98000Y173100D01*
X97200Y172700D01*
X93200D02*
X93600Y173500D01*
X93200Y174300D01*
X94000Y173900D01*
X94800Y174300D01*
X94400Y173500D01*
X94800Y172700D01*
X94000Y173100D01*
X93200Y172700D01*
X101200D02*
X101600Y173500D01*
X101200Y174300D01*
X102000Y173900D01*
X102800Y174300D01*
X102400Y173500D01*
X102800Y172700D01*
X102000Y173100D01*
X101200Y172700D01*
X93200Y96700D02*
X93600Y97500D01*
X93200Y98300D01*
X94000Y97900D01*
X94800Y98300D01*
X94400Y97500D01*
X94800Y96700D01*
X94000Y97100D01*
X93200Y96700D01*
X101200D02*
X101600Y97500D01*
X101200Y98300D01*
X102000Y97900D01*
X102800Y98300D01*
X102400Y97500D01*
X102800Y96700D01*
X102000Y97100D01*
X101200Y96700D01*
X97200D02*
X97600Y97500D01*
X97200Y98300D01*
X98000Y97900D01*
X98800Y98300D01*
X98400Y97500D01*
X98800Y96700D01*
X98000Y97100D01*
X97200Y96700D01*
Y92700D02*
X97600Y93500D01*
X97200Y94300D01*
X98000Y93900D01*
X98800Y94300D01*
X98400Y93500D01*
X98800Y92700D01*
X98000Y93100D01*
X97200Y92700D01*
X93200D02*
X93600Y93500D01*
X93200Y94300D01*
X94000Y93900D01*
X94800Y94300D01*
X94400Y93500D01*
X94800Y92700D01*
X94000Y93100D01*
X93200Y92700D01*
X101200D02*
X101600Y93500D01*
X101200Y94300D01*
X102000Y93900D01*
X102800Y94300D01*
X102400Y93500D01*
X102800Y92700D01*
X102000Y93100D01*
X101200Y92700D01*
X97200Y145200D02*
X97600Y146000D01*
X97200Y146800D01*
X98000Y146400D01*
X98800Y146800D01*
X98400Y146000D01*
X98800Y145200D01*
X98000Y145600D01*
X97200Y145200D01*
X93200D02*
X93600Y146000D01*
X93200Y146800D01*
X94000Y146400D01*
X94800Y146800D01*
X94400Y146000D01*
X94800Y145200D01*
X94000Y145600D01*
X93200Y145200D01*
X97200Y153200D02*
X97600Y154000D01*
X97200Y154800D01*
X98000Y154400D01*
X98800Y154800D01*
X98400Y154000D01*
X98800Y153200D01*
X98000Y153600D01*
X97200Y153200D01*
X93200D02*
X93600Y154000D01*
X93200Y154800D01*
X94000Y154400D01*
X94800Y154800D01*
X94400Y154000D01*
X94800Y153200D01*
X94000Y153600D01*
X93200Y153200D01*
X101200D02*
X101600Y154000D01*
X101200Y154800D01*
X102000Y154400D01*
X102800Y154800D01*
X102400Y154000D01*
X102800Y153200D01*
X102000Y153600D01*
X101200Y153200D01*
X97200Y149200D02*
X97600Y150000D01*
X97200Y150800D01*
X98000Y150400D01*
X98800Y150800D01*
X98400Y150000D01*
X98800Y149200D01*
X98000Y149600D01*
X97200Y149200D01*
X93200D02*
X93600Y150000D01*
X93200Y150800D01*
X94000Y150400D01*
X94800Y150800D01*
X94400Y150000D01*
X94800Y149200D01*
X94000Y149600D01*
X93200Y149200D01*
X101200D02*
X101600Y150000D01*
X101200Y150800D01*
X102000Y150400D01*
X102800Y150800D01*
X102400Y150000D01*
X102800Y149200D01*
X102000Y149600D01*
X101200Y149200D01*
X97200Y219700D02*
X97600Y220500D01*
X97200Y221300D01*
X98000Y220900D01*
X98800Y221300D01*
X98400Y220500D01*
X98800Y219700D01*
X98000Y220100D01*
X97200Y219700D01*
X93200D02*
X93600Y220500D01*
X93200Y221300D01*
X94000Y220900D01*
X94800Y221300D01*
X94400Y220500D01*
X94800Y219700D01*
X94000Y220100D01*
X93200Y219700D01*
X101200D02*
X101600Y220500D01*
X101200Y221300D01*
X102000Y220900D01*
X102800Y221300D01*
X102400Y220500D01*
X102800Y219700D01*
X102000Y220100D01*
X101200Y219700D01*
X97200Y227700D02*
X97600Y228500D01*
X97200Y229300D01*
X98000Y228900D01*
X98800Y229300D01*
X98400Y228500D01*
X98800Y227700D01*
X98000Y228100D01*
X97200Y227700D01*
X93200D02*
X93600Y228500D01*
X93200Y229300D01*
X94000Y228900D01*
X94800Y229300D01*
X94400Y228500D01*
X94800Y227700D01*
X94000Y228100D01*
X93200Y227700D01*
X101200D02*
X101600Y228500D01*
X101200Y229300D01*
X102000Y228900D01*
X102800Y229300D01*
X102400Y228500D01*
X102800Y227700D01*
X102000Y228100D01*
X101200Y227700D01*
Y223700D02*
X101600Y224500D01*
X101200Y225300D01*
X102000Y224900D01*
X102800Y225300D01*
X102400Y224500D01*
X102800Y223700D01*
X102000Y224100D01*
X101200Y223700D01*
X93200D02*
X93600Y224500D01*
X93200Y225300D01*
X94000Y224900D01*
X94800Y225300D01*
X94400Y224500D01*
X94800Y223700D01*
X94000Y224100D01*
X93200Y223700D01*
X97200D02*
X97600Y224500D01*
X97200Y225300D01*
X98000Y224900D01*
X98800Y225300D01*
X98400Y224500D01*
X98800Y223700D01*
X98000Y224100D01*
X97200Y223700D01*
X102200Y214700D02*
X102600Y215500D01*
X102200Y216300D01*
X103000Y215900D01*
X103800Y216300D01*
X103400Y215500D01*
X103800Y214700D01*
X103000Y215100D01*
X102200Y214700D01*
X97200D02*
X97600Y215500D01*
X97200Y216300D01*
X98000Y215900D01*
X98800Y216300D01*
X98400Y215500D01*
X98800Y214700D01*
X98000Y215100D01*
X97200Y214700D01*
X87200D02*
X87600Y215500D01*
X87200Y216300D01*
X88000Y215900D01*
X88800Y216300D01*
X88400Y215500D01*
X88800Y214700D01*
X88000Y215100D01*
X87200Y214700D01*
X92200D02*
X92600Y215500D01*
X92200Y216300D01*
X93000Y215900D01*
X93800Y216300D01*
X93400Y215500D01*
X93800Y214700D01*
X93000Y215100D01*
X92200Y214700D01*
Y188700D02*
X92600Y189500D01*
X92200Y190300D01*
X93000Y189900D01*
X93800Y190300D01*
X93400Y189500D01*
X93800Y188700D01*
X93000Y189100D01*
X92200Y188700D01*
X97200D02*
X97600Y189500D01*
X97200Y190300D01*
X98000Y189900D01*
X98800Y190300D01*
X98400Y189500D01*
X98800Y188700D01*
X98000Y189100D01*
X97200Y188700D01*
X102200D02*
X102600Y189500D01*
X102200Y190300D01*
X103000Y189900D01*
X103800Y190300D01*
X103400Y189500D01*
X103800Y188700D01*
X103000Y189100D01*
X102200Y188700D01*
Y193700D02*
X102600Y194500D01*
X102200Y195300D01*
X103000Y194900D01*
X103800Y195300D01*
X103400Y194500D01*
X103800Y193700D01*
X103000Y194100D01*
X102200Y193700D01*
X92200D02*
X92600Y194500D01*
X92200Y195300D01*
X93000Y194900D01*
X93800Y195300D01*
X93400Y194500D01*
X93800Y193700D01*
X93000Y194100D01*
X92200Y193700D01*
X97200D02*
X97600Y194500D01*
X97200Y195300D01*
X98000Y194900D01*
X98800Y195300D01*
X98400Y194500D01*
X98800Y193700D01*
X98000Y194100D01*
X97200Y193700D01*
X92200Y208700D02*
X92600Y209500D01*
X92200Y210300D01*
X93000Y209900D01*
X93800Y210300D01*
X93400Y209500D01*
X93800Y208700D01*
X93000Y209100D01*
X92200Y208700D01*
X97200D02*
X97600Y209500D01*
X97200Y210300D01*
X98000Y209900D01*
X98800Y210300D01*
X98400Y209500D01*
X98800Y208700D01*
X98000Y209100D01*
X97200Y208700D01*
X102200D02*
X102600Y209500D01*
X102200Y210300D01*
X103000Y209900D01*
X103800Y210300D01*
X103400Y209500D01*
X103800Y208700D01*
X103000Y209100D01*
X102200Y208700D01*
X92200Y203700D02*
X92600Y204500D01*
X92200Y205300D01*
X93000Y204900D01*
X93800Y205300D01*
X93400Y204500D01*
X93800Y203700D01*
X93000Y204100D01*
X92200Y203700D01*
X97200D02*
X97600Y204500D01*
X97200Y205300D01*
X98000Y204900D01*
X98800Y205300D01*
X98400Y204500D01*
X98800Y203700D01*
X98000Y204100D01*
X97200Y203700D01*
X102200D02*
X102600Y204500D01*
X102200Y205300D01*
X103000Y204900D01*
X103800Y205300D01*
X103400Y204500D01*
X103800Y203700D01*
X103000Y204100D01*
X102200Y203700D01*
Y198700D02*
X102600Y199500D01*
X102200Y200300D01*
X103000Y199900D01*
X103800Y200300D01*
X103400Y199500D01*
X103800Y198700D01*
X103000Y199100D01*
X102200Y198700D01*
X97200D02*
X97600Y199500D01*
X97200Y200300D01*
X98000Y199900D01*
X98800Y200300D01*
X98400Y199500D01*
X98800Y198700D01*
X98000Y199100D01*
X97200Y198700D01*
X92200D02*
X92600Y199500D01*
X92200Y200300D01*
X93000Y199900D01*
X93800Y200300D01*
X93400Y199500D01*
X93800Y198700D01*
X93000Y199100D01*
X92200Y198700D01*
X67200Y116700D02*
X67600Y117500D01*
X67200Y118300D01*
X68000Y117900D01*
X68800Y118300D01*
X68400Y117500D01*
X68800Y116700D01*
X68000Y117100D01*
X67200Y116700D01*
X77200Y106700D02*
X77600Y107500D01*
X77200Y108300D01*
X78000Y107900D01*
X78800Y108300D01*
X78400Y107500D01*
X78800Y106700D01*
X78000Y107100D01*
X77200Y106700D01*
X56700Y-11800D02*
X57100Y-11000D01*
X56700Y-10200D01*
X57500Y-10600D01*
X58300Y-10200D01*
X57900Y-11000D01*
X58300Y-11800D01*
X57500Y-11400D01*
X56700Y-11800D01*
X165200Y183200D02*
X165600Y184000D01*
X165200Y184800D01*
X166000Y184400D01*
X166800Y184800D01*
X166400Y184000D01*
X166800Y183200D01*
X166000Y183600D01*
X165200Y183200D01*
X167104Y132796D02*
X167504Y133596D01*
X167104Y134396D01*
X167904Y133996D01*
X168704Y134396D01*
X168304Y133596D01*
X168704Y132796D01*
X167904Y133196D01*
X167104Y132796D01*
X163200Y144700D02*
X163600Y145500D01*
X163200Y146300D01*
X164000Y145900D01*
X164800Y146300D01*
X164400Y145500D01*
X164800Y144700D01*
X164000Y145100D01*
X163200Y144700D01*
X153700Y136700D02*
X154100Y137500D01*
X153700Y138300D01*
X154500Y137900D01*
X155300Y138300D01*
X154900Y137500D01*
X155300Y136700D01*
X154500Y137100D01*
X153700Y136700D01*
X168700Y141700D02*
X169100Y142500D01*
X168700Y143300D01*
X169500Y142900D01*
X170300Y143300D01*
X169900Y142500D01*
X170300Y141700D01*
X169500Y142100D01*
X168700Y141700D01*
X165700Y98200D02*
X166100Y99000D01*
X165700Y99800D01*
X166500Y99400D01*
X167300Y99800D01*
X166900Y99000D01*
X167300Y98200D01*
X166500Y98600D01*
X165700Y98200D01*
X165200Y172700D02*
X165600Y173500D01*
X165200Y174300D01*
X166000Y173900D01*
X166800Y174300D01*
X166400Y173500D01*
X166800Y172700D01*
X166000Y173100D01*
X165200Y172700D01*
X163200Y201200D02*
X163600Y202000D01*
X163200Y202800D01*
X164000Y202400D01*
X164800Y202800D01*
X164400Y202000D01*
X164800Y201200D01*
X164000Y201600D01*
X163200Y201200D01*
X153200Y211200D02*
X153600Y212000D01*
X153200Y212800D01*
X154000Y212400D01*
X154800Y212800D01*
X154400Y212000D01*
X154800Y211200D01*
X154000Y211600D01*
X153200Y211200D01*
X65200Y-11800D02*
X65600Y-11000D01*
X65200Y-10200D01*
X66000Y-10600D01*
X66800Y-10200D01*
X66400Y-11000D01*
X66800Y-11800D01*
X66000Y-11400D01*
X65200Y-11800D01*
X73200D02*
X73600Y-11000D01*
X73200Y-10200D01*
X74000Y-10600D01*
X74800Y-10200D01*
X74400Y-11000D01*
X74800Y-11800D01*
X74000Y-11400D01*
X73200Y-11800D01*
X56700Y-4300D02*
X57100Y-3500D01*
X56700Y-2700D01*
X57500Y-3100D01*
X58300Y-2700D01*
X57900Y-3500D01*
X58300Y-4300D01*
X57500Y-3900D01*
X56700Y-4300D01*
X65200D02*
X65600Y-3500D01*
X65200Y-2700D01*
X66000Y-3100D01*
X66800Y-2700D01*
X66400Y-3500D01*
X66800Y-4300D01*
X66000Y-3900D01*
X65200Y-4300D01*
X73200D02*
X73600Y-3500D01*
X73200Y-2700D01*
X74000Y-3100D01*
X74800Y-2700D01*
X74400Y-3500D01*
X74800Y-4300D01*
X74000Y-3900D01*
X73200Y-4300D01*
Y3700D02*
X73600Y4500D01*
X73200Y5300D01*
X74000Y4900D01*
X74800Y5300D01*
X74400Y4500D01*
X74800Y3700D01*
X74000Y4100D01*
X73200Y3700D01*
X65200D02*
X65600Y4500D01*
X65200Y5300D01*
X66000Y4900D01*
X66800Y5300D01*
X66400Y4500D01*
X66800Y3700D01*
X66000Y4100D01*
X65200Y3700D01*
X56700D02*
X57100Y4500D01*
X56700Y5300D01*
X57500Y4900D01*
X58300Y5300D01*
X57900Y4500D01*
X58300Y3700D01*
X57500Y4100D01*
X56700Y3700D01*
X177200Y56700D02*
X177600Y57500D01*
X177200Y58300D01*
X178000Y57900D01*
X178800Y58300D01*
X178400Y57500D01*
X178800Y56700D01*
X178000Y57100D01*
X177200Y56700D01*
X189700Y76200D02*
X190100Y77000D01*
X189700Y77800D01*
X190500Y77400D01*
X191300Y77800D01*
X190900Y77000D01*
X191300Y76200D01*
X190500Y76600D01*
X189700Y76200D01*
Y83700D02*
X190100Y84500D01*
X189700Y85300D01*
X190500Y84900D01*
X191300Y85300D01*
X190900Y84500D01*
X191300Y83700D01*
X190500Y84100D01*
X189700Y83700D01*
X184200Y76200D02*
X184600Y77000D01*
X184200Y77800D01*
X185000Y77400D01*
X185800Y77800D01*
X185400Y77000D01*
X185800Y76200D01*
X185000Y76600D01*
X184200Y76200D01*
Y83700D02*
X184600Y84500D01*
X184200Y85300D01*
X185000Y84900D01*
X185800Y85300D01*
X185400Y84500D01*
X185800Y83700D01*
X185000Y84100D01*
X184200Y83700D01*
X-10300Y217200D02*
X-9900Y218000D01*
X-10300Y218800D01*
X-9500Y218400D01*
X-8700Y218800D01*
X-9100Y218000D01*
X-8700Y217200D01*
X-9500Y217600D01*
X-10300Y217200D01*
X7700Y234200D02*
X8100Y235000D01*
X7700Y235800D01*
X8500Y235400D01*
X9300Y235800D01*
X8900Y235000D01*
X9300Y234200D01*
X8500Y234600D01*
X7700Y234200D01*
X43700Y201200D02*
X44100Y202000D01*
X43700Y202800D01*
X44500Y202400D01*
X45300Y202800D01*
X44900Y202000D01*
X45300Y201200D01*
X44500Y201600D01*
X43700Y201200D01*
X38700Y226200D02*
X39100Y227000D01*
X38700Y227800D01*
X39500Y227400D01*
X40300Y227800D01*
X39900Y227000D01*
X40300Y226200D01*
X39500Y226600D01*
X38700Y226200D01*
X21700Y215700D02*
X22100Y216500D01*
X21700Y217300D01*
X22500Y216900D01*
X23300Y217300D01*
X22900Y216500D01*
X23300Y215700D01*
X22500Y216100D01*
X21700Y215700D01*
Y189700D02*
X22100Y190500D01*
X21700Y191300D01*
X22500Y190900D01*
X23300Y191300D01*
X22900Y190500D01*
X23300Y189700D01*
X22500Y190100D01*
X21700Y189700D01*
X30200Y168200D02*
X30600Y169000D01*
X30200Y169800D01*
X31000Y169400D01*
X31800Y169800D01*
X31400Y169000D01*
X31800Y168200D01*
X31000Y168600D01*
X30200Y168200D01*
X22200D02*
X22600Y169000D01*
X22200Y169800D01*
X23000Y169400D01*
X23800Y169800D01*
X23400Y169000D01*
X23800Y168200D01*
X23000Y168600D01*
X22200Y168200D01*
X30200Y174700D02*
X30600Y175500D01*
X30200Y176300D01*
X31000Y175900D01*
X31800Y176300D01*
X31400Y175500D01*
X31800Y174700D01*
X31000Y175100D01*
X30200Y174700D01*
X22200D02*
X22600Y175500D01*
X22200Y176300D01*
X23000Y175900D01*
X23800Y176300D01*
X23400Y175500D01*
X23800Y174700D01*
X23000Y175100D01*
X22200Y174700D01*
X39200Y150700D02*
X39600Y151500D01*
X39200Y152300D01*
X40000Y151900D01*
X40800Y152300D01*
X40400Y151500D01*
X40800Y150700D01*
X40000Y151100D01*
X39200Y150700D01*
X62700Y147700D02*
X63100Y148500D01*
X62700Y149300D01*
X63500Y148900D01*
X64300Y149300D01*
X63900Y148500D01*
X64300Y147700D01*
X63500Y148100D01*
X62700Y147700D01*
X55700Y140700D02*
X56100Y141500D01*
X55700Y142300D01*
X56500Y141900D01*
X57300Y142300D01*
X56900Y141500D01*
X57300Y140700D01*
X56500Y141100D01*
X55700Y140700D01*
X48200Y128200D02*
X48600Y129000D01*
X48200Y129800D01*
X49000Y129400D01*
X49800Y129800D01*
X49400Y129000D01*
X49800Y128200D01*
X49000Y128600D01*
X48200Y128200D01*
X42200D02*
X42600Y129000D01*
X42200Y129800D01*
X43000Y129400D01*
X43800Y129800D01*
X43400Y129000D01*
X43800Y128200D01*
X43000Y128600D01*
X42200Y128200D01*
X173700Y24200D02*
X174100Y25000D01*
X173700Y25800D01*
X174500Y25400D01*
X175300Y25800D01*
X174900Y25000D01*
X175300Y24200D01*
X174500Y24600D01*
X173700Y24200D01*
X164200D02*
X164600Y25000D01*
X164200Y25800D01*
X165000Y25400D01*
X165800Y25800D01*
X165400Y25000D01*
X165800Y24200D01*
X165000Y24600D01*
X164200Y24200D01*
X166200Y-2800D02*
X166600Y-2000D01*
X166200Y-1200D01*
X167000Y-1600D01*
X167800Y-1200D01*
X167400Y-2000D01*
X167800Y-2800D01*
X167000Y-2400D01*
X166200Y-2800D01*
X159200D02*
X159600Y-2000D01*
X159200Y-1200D01*
X160000Y-1600D01*
X160800Y-1200D01*
X160400Y-2000D01*
X160800Y-2800D01*
X160000Y-2400D01*
X159200Y-2800D01*
X166200Y-9300D02*
X166600Y-8500D01*
X166200Y-7700D01*
X167000Y-8100D01*
X167800Y-7700D01*
X167400Y-8500D01*
X167800Y-9300D01*
X167000Y-8900D01*
X166200Y-9300D01*
X159200D02*
X159600Y-8500D01*
X159200Y-7700D01*
X160000Y-8100D01*
X160800Y-7700D01*
X160400Y-8500D01*
X160800Y-9300D01*
X160000Y-8900D01*
X159200Y-9300D01*
X141200Y31200D02*
X141600Y32000D01*
X141200Y32800D01*
X142000Y32400D01*
X142800Y32800D01*
X142400Y32000D01*
X142800Y31200D01*
X142000Y31600D01*
X141200Y31200D01*
X157157Y31244D02*
X157557Y32043D01*
X157157Y32844D01*
X157957Y32443D01*
X158757Y32844D01*
X158357Y32043D01*
X158757Y31244D01*
X157957Y31644D01*
X157157Y31244D01*
X153200Y31200D02*
X153600Y32000D01*
X153200Y32800D01*
X154000Y32400D01*
X154800Y32800D01*
X154400Y32000D01*
X154800Y31200D01*
X154000Y31600D01*
X153200Y31200D01*
X149200D02*
X149600Y32000D01*
X149200Y32800D01*
X150000Y32400D01*
X150800Y32800D01*
X150400Y32000D01*
X150800Y31200D01*
X150000Y31600D01*
X149200Y31200D01*
X145200D02*
X145600Y32000D01*
X145200Y32800D01*
X146000Y32400D01*
X146800Y32800D01*
X146400Y32000D01*
X146800Y31200D01*
X146000Y31600D01*
X145200Y31200D01*
X117403Y188403D02*
X117803Y189203D01*
X117403Y190003D01*
X118203Y189603D01*
X119003Y190003D01*
X118603Y189203D01*
X119003Y188403D01*
X118203Y188803D01*
X117403Y188403D01*
X116200Y113700D02*
X116600Y114500D01*
X116200Y115300D01*
X117000Y114900D01*
X117800Y115300D01*
X117400Y114500D01*
X117800Y113700D01*
X117000Y114100D01*
X116200Y113700D01*
X129700Y98200D02*
X130100Y99000D01*
X129700Y99800D01*
X130500Y99400D01*
X131300Y99800D01*
X130900Y99000D01*
X131300Y98200D01*
X130500Y98600D01*
X129700Y98200D01*
X122200Y14700D02*
X122600Y15500D01*
X122200Y16300D01*
X123000Y15900D01*
X123800Y16300D01*
X123400Y15500D01*
X123800Y14700D01*
X123000Y15100D01*
X122200Y14700D01*
X98200D02*
X98600Y15500D01*
X98200Y16300D01*
X99000Y15900D01*
X99800Y16300D01*
X99400Y15500D01*
X99800Y14700D01*
X99000Y15100D01*
X98200Y14700D01*
X75200Y52700D02*
X75600Y53500D01*
X75200Y54300D01*
X76000Y53900D01*
X76800Y54300D01*
X76400Y53500D01*
X76800Y52700D01*
X76000Y53100D01*
X75200Y52700D01*
X93200D02*
X93600Y53500D01*
X93200Y54300D01*
X94000Y53900D01*
X94800Y54300D01*
X94400Y53500D01*
X94800Y52700D01*
X94000Y53100D01*
X93200Y52700D01*
X141700Y121700D02*
X142100Y122500D01*
X141700Y123300D01*
X142500Y122900D01*
X143300Y123300D01*
X142900Y122500D01*
X143300Y121700D01*
X142500Y122100D01*
X141700Y121700D01*
X130200Y172700D02*
X130600Y173500D01*
X130200Y174300D01*
X131000Y173900D01*
X131800Y174300D01*
X131400Y173500D01*
X131800Y172700D01*
X131000Y173100D01*
X130200Y172700D01*
X117200Y181200D02*
X117600Y182000D01*
X117200Y182800D01*
X118000Y182400D01*
X118800Y182800D01*
X118400Y182000D01*
X118800Y181200D01*
X118000Y181600D01*
X117200Y181200D01*
X77200D02*
X77600Y182000D01*
X77200Y182800D01*
X78000Y182400D01*
X78800Y182800D01*
X78400Y182000D01*
X78800Y181200D01*
X78000Y181600D01*
X77200Y181200D01*
X38900Y118700D02*
X39300Y119500D01*
X38900Y120300D01*
X39700Y119900D01*
X40500Y120300D01*
X40100Y119500D01*
X40500Y118700D01*
X39700Y119100D01*
X38900Y118700D01*
X43700Y154600D02*
X44100Y155400D01*
X43700Y156200D01*
X44500Y155800D01*
X45300Y156200D01*
X44900Y155400D01*
X45300Y154600D01*
X44500Y155000D01*
X43700Y154600D01*
Y157500D02*
X44100Y158300D01*
X43700Y159100D01*
X44500Y158700D01*
X45300Y159100D01*
X44900Y158300D01*
X45300Y157500D01*
X44500Y157900D01*
X43700Y157500D01*
X66200Y155200D02*
X66600Y156000D01*
X66200Y156800D01*
X67000Y156400D01*
X67800Y156800D01*
X67400Y156000D01*
X67800Y155200D01*
X67000Y155600D01*
X66200Y155200D01*
X62177Y155000D02*
X62577Y155800D01*
X62177Y156600D01*
X62977Y156200D01*
X63777Y156600D01*
X63377Y155800D01*
X63777Y155000D01*
X62977Y155400D01*
X62177Y155000D01*
X36700Y144700D02*
X37100Y145500D01*
X36700Y146300D01*
X37500Y145900D01*
X38300Y146300D01*
X37900Y145500D01*
X38300Y144700D01*
X37500Y145100D01*
X36700Y144700D01*
X68700Y191200D02*
X69100Y192000D01*
X68700Y192800D01*
X69500Y192400D01*
X70300Y192800D01*
X69900Y192000D01*
X70300Y191200D01*
X69500Y191600D01*
X68700Y191200D01*
X78700Y211200D02*
X79100Y212000D01*
X78700Y212800D01*
X79500Y212400D01*
X80300Y212800D01*
X79900Y212000D01*
X80300Y211200D01*
X79500Y211600D01*
X78700Y211200D01*
X36200Y193200D02*
X36600Y194000D01*
X36200Y194800D01*
X37000Y194400D01*
X37800Y194800D01*
X37400Y194000D01*
X37800Y193200D01*
X37000Y193600D01*
X36200Y193200D01*
X36700Y219200D02*
X37100Y220000D01*
X36700Y220800D01*
X37500Y220400D01*
X38300Y220800D01*
X37900Y220000D01*
X38300Y219200D01*
X37500Y219600D01*
X36700Y219200D01*
X64200Y131602D02*
X64600Y132402D01*
X64200Y133202D01*
X65000Y132802D01*
X65800Y133202D01*
X65400Y132402D01*
X65800Y131602D01*
X65000Y132002D01*
X64200Y131602D01*
X78700Y136602D02*
X79100Y137402D01*
X78700Y138202D01*
X79500Y137802D01*
X80300Y138202D01*
X79900Y137402D01*
X80300Y136602D01*
X79500Y137002D01*
X78700Y136602D01*
D17*
X175300Y204000D02*
G03*
X175300Y204000I-800J0D01*
G01*
X185300D02*
G03*
X185300Y204000I-800J0D01*
G01*
X175300Y194000D02*
G03*
X175300Y194000I-800J0D01*
G01*
X185300D02*
G03*
X185300Y194000I-800J0D01*
G01*
X175300Y184000D02*
G03*
X175300Y184000I-800J0D01*
G01*
X185300D02*
G03*
X185300Y184000I-800J0D01*
G01*
X175300Y174000D02*
G03*
X175300Y174000I-800J0D01*
G01*
X185300D02*
G03*
X185300Y174000I-800J0D01*
G01*
X175300Y164000D02*
G03*
X175300Y164000I-800J0D01*
G01*
X185300D02*
G03*
X185300Y164000I-800J0D01*
G01*
X175300Y154000D02*
G03*
X175300Y154000I-800J0D01*
G01*
X185300D02*
G03*
X185300Y154000I-800J0D01*
G01*
X175300Y144000D02*
G03*
X175300Y144000I-800J0D01*
G01*
X185300D02*
G03*
X185300Y144000I-800J0D01*
G01*
X175300Y134000D02*
G03*
X175300Y134000I-800J0D01*
G01*
X185300D02*
G03*
X185300Y134000I-800J0D01*
G01*
X175300Y124000D02*
G03*
X175300Y124000I-800J0D01*
G01*
X185300D02*
G03*
X185300Y124000I-800J0D01*
G01*
X175300Y114000D02*
G03*
X175300Y114000I-800J0D01*
G01*
X185300D02*
G03*
X185300Y114000I-800J0D01*
G01*
X175300Y104000D02*
G03*
X175300Y104000I-800J0D01*
G01*
X185300D02*
G03*
X185300Y104000I-800J0D01*
G01*
X175300Y94000D02*
G03*
X175300Y94000I-800J0D01*
G01*
X185300D02*
G03*
X185300Y94000I-800J0D01*
G01*
M02*
