G04*
G04 #@! TF.GenerationSoftware,Altium Limited,Altium Designer,21.5.1 (32)*
G04*
G04 Layer_Color=255*
%FSLAX25Y25*%
%MOIN*%
G70*
G04*
G04 #@! TF.SameCoordinates,690A18C4-EA90-4F08-A22E-A0273F3C1D78*
G04*
G04*
G04 #@! TF.FilePolarity,Positive*
G04*
G01*
G75*
G04:AMPARAMS|DCode=18|XSize=59.06mil|YSize=17.72mil|CornerRadius=1.95mil|HoleSize=0mil|Usage=FLASHONLY|Rotation=180.000|XOffset=0mil|YOffset=0mil|HoleType=Round|Shape=RoundedRectangle|*
%AMROUNDEDRECTD18*
21,1,0.05906,0.01382,0,0,180.0*
21,1,0.05516,0.01772,0,0,180.0*
1,1,0.00390,-0.02758,0.00691*
1,1,0.00390,0.02758,0.00691*
1,1,0.00390,0.02758,-0.00691*
1,1,0.00390,-0.02758,-0.00691*
%
%ADD18ROUNDEDRECTD18*%
%ADD19R,0.03500X0.05000*%
G04:AMPARAMS|DCode=20|XSize=78.35mil|YSize=24.8mil|CornerRadius=1.98mil|HoleSize=0mil|Usage=FLASHONLY|Rotation=0.000|XOffset=0mil|YOffset=0mil|HoleType=Round|Shape=RoundedRectangle|*
%AMROUNDEDRECTD20*
21,1,0.07835,0.02084,0,0,0.0*
21,1,0.07438,0.02480,0,0,0.0*
1,1,0.00397,0.03719,-0.01042*
1,1,0.00397,-0.03719,-0.01042*
1,1,0.00397,-0.03719,0.01042*
1,1,0.00397,0.03719,0.01042*
%
%ADD20ROUNDEDRECTD20*%
%ADD21R,0.03000X0.03000*%
%ADD22R,0.39370X0.41142*%
%ADD23R,0.12598X0.04134*%
%ADD24R,0.06890X0.08661*%
%ADD25R,0.03000X0.03000*%
%ADD26R,0.02362X0.05118*%
%ADD27R,0.10630X0.03937*%
%ADD28O,0.10630X0.03937*%
%ADD29R,0.03937X0.10630*%
%ADD30O,0.03937X0.10630*%
%ADD31R,0.07874X0.07874*%
%ADD32O,0.18898X0.05512*%
%ADD33R,0.18898X0.05512*%
%ADD34R,0.12598X0.08268*%
%ADD35R,0.03543X0.08268*%
%ADD36P,0.03247X8X22.5*%
%ADD63R,0.23622X0.37795*%
%ADD64R,0.11417X0.15748*%
%ADD69C,0.09843*%
%ADD70R,0.06299X0.06299*%
%ADD71C,0.06299*%
%ADD72R,0.09055X0.09055*%
%ADD73C,0.09055*%
D18*
X32583Y220161D02*
D03*
Y222721D02*
D03*
Y225279D02*
D03*
Y227839D02*
D03*
X55417D02*
D03*
Y225279D02*
D03*
Y222721D02*
D03*
Y220161D02*
D03*
X32583Y119563D02*
D03*
Y122122D02*
D03*
Y124681D02*
D03*
Y127240D02*
D03*
X55417D02*
D03*
Y124681D02*
D03*
Y122122D02*
D03*
Y119563D02*
D03*
X32583Y145563D02*
D03*
Y148122D02*
D03*
Y150681D02*
D03*
Y153240D02*
D03*
X55417D02*
D03*
Y150681D02*
D03*
Y148122D02*
D03*
Y145563D02*
D03*
X32583Y194161D02*
D03*
Y196721D02*
D03*
Y199279D02*
D03*
Y201839D02*
D03*
X55417D02*
D03*
Y199279D02*
D03*
Y196721D02*
D03*
Y194161D02*
D03*
D19*
X40760Y109902D02*
D03*
X48241D02*
D03*
X40760Y135902D02*
D03*
X48241D02*
D03*
X40760Y210500D02*
D03*
X48241D02*
D03*
X40760Y184500D02*
D03*
X48241D02*
D03*
D20*
X71953Y147500D02*
D03*
Y142500D02*
D03*
Y137500D02*
D03*
Y132500D02*
D03*
Y127500D02*
D03*
Y122500D02*
D03*
Y117500D02*
D03*
Y112500D02*
D03*
Y107500D02*
D03*
Y102500D02*
D03*
X124000D02*
D03*
Y107500D02*
D03*
Y112500D02*
D03*
Y117500D02*
D03*
Y122500D02*
D03*
Y127500D02*
D03*
Y132500D02*
D03*
Y137500D02*
D03*
Y142500D02*
D03*
Y147500D02*
D03*
X71953Y222000D02*
D03*
Y217000D02*
D03*
Y212000D02*
D03*
Y207000D02*
D03*
Y202000D02*
D03*
Y197000D02*
D03*
Y192000D02*
D03*
Y187000D02*
D03*
Y182000D02*
D03*
Y177000D02*
D03*
X124000D02*
D03*
Y182000D02*
D03*
Y187000D02*
D03*
Y192000D02*
D03*
Y197000D02*
D03*
Y202000D02*
D03*
Y207000D02*
D03*
Y212000D02*
D03*
Y217000D02*
D03*
Y222000D02*
D03*
D21*
X22500Y195539D02*
D03*
Y200657D02*
D03*
Y221539D02*
D03*
Y226657D02*
D03*
Y120941D02*
D03*
Y126059D02*
D03*
Y146941D02*
D03*
Y152059D02*
D03*
X152500Y-8059D02*
D03*
Y-2941D02*
D03*
X145500Y-8059D02*
D03*
Y-2941D02*
D03*
X138500Y-8059D02*
D03*
Y-2941D02*
D03*
X131500Y-8059D02*
D03*
Y-2941D02*
D03*
D22*
X45000Y67000D02*
D03*
D23*
X85000Y80386D02*
D03*
Y73693D02*
D03*
Y67000D02*
D03*
Y60307D02*
D03*
Y53614D02*
D03*
D24*
X109000Y58945D02*
D03*
Y77055D02*
D03*
D25*
X145989Y117500D02*
D03*
X151107D02*
D03*
Y122500D02*
D03*
X145989D02*
D03*
X151107Y127500D02*
D03*
X145989D02*
D03*
X145988Y132500D02*
D03*
X151106D02*
D03*
X145988Y137500D02*
D03*
X151106D02*
D03*
X145989Y192098D02*
D03*
X151107D02*
D03*
Y197099D02*
D03*
X145989D02*
D03*
X151107Y202099D02*
D03*
X145989D02*
D03*
X145988Y207098D02*
D03*
X151106D02*
D03*
X145988Y212098D02*
D03*
X151106D02*
D03*
X165441Y19000D02*
D03*
X170559D02*
D03*
X178441Y19000D02*
D03*
X178500Y32000D02*
D03*
X183500D02*
D03*
X173500D02*
D03*
D26*
X152240Y228634D02*
D03*
X144760D02*
D03*
X148500Y220366D02*
D03*
X152240Y154134D02*
D03*
X144760D02*
D03*
X148500Y145866D02*
D03*
D27*
X138189Y173598D02*
D03*
X138000Y99000D02*
D03*
D28*
X161811Y173598D02*
D03*
X161622Y99000D02*
D03*
D29*
X178000Y70311D02*
D03*
D30*
Y46689D02*
D03*
D31*
X156000Y59000D02*
D03*
X126000D02*
D03*
D32*
X61000Y15500D02*
D03*
D33*
X111000D02*
D03*
D34*
X142000Y32221D02*
D03*
D35*
X151055Y9780D02*
D03*
X142000D02*
D03*
X132945D02*
D03*
D36*
X184559Y19000D02*
D03*
D63*
X97976Y125000D02*
D03*
Y199500D02*
D03*
D64*
Y150098D02*
D03*
Y99902D02*
D03*
Y224598D02*
D03*
Y174402D02*
D03*
D69*
X36500Y34004D02*
D03*
Y15500D02*
D03*
Y-3004D02*
D03*
D70*
X174500Y204000D02*
D03*
D71*
X184500D02*
D03*
X174500Y194000D02*
D03*
X184500D02*
D03*
X174500Y184000D02*
D03*
X184500D02*
D03*
X174500Y174000D02*
D03*
X184500D02*
D03*
X174500Y164000D02*
D03*
X184500D02*
D03*
X174500Y154000D02*
D03*
X184500D02*
D03*
X174500Y144000D02*
D03*
X184500D02*
D03*
X174500Y134000D02*
D03*
X184500D02*
D03*
X174500Y124000D02*
D03*
X184500D02*
D03*
X174500Y114000D02*
D03*
X184500D02*
D03*
X174500Y104000D02*
D03*
X184500D02*
D03*
X174500Y94000D02*
D03*
X184500D02*
D03*
D72*
X-3000Y121500D02*
D03*
Y198370D02*
D03*
Y46500D02*
D03*
D73*
Y101815D02*
D03*
Y82130D02*
D03*
Y178685D02*
D03*
Y159000D02*
D03*
Y26500D02*
D03*
M02*
