G04*
G04 #@! TF.GenerationSoftware,Altium Limited,Altium Designer,21.5.1 (32)*
G04*
G04 Layer_Color=65535*
%FSLAX25Y25*%
%MOIN*%
G70*
G04*
G04 #@! TF.SameCoordinates,284D3306-149B-414E-9BCD-756616796F5B*
G04*
G04*
G04 #@! TF.FilePolarity,Positive*
G04*
G01*
G75*
%ADD10C,0.00787*%
%ADD11C,0.01000*%
%ADD12C,0.00984*%
%ADD13C,0.01968*%
%ADD14C,0.00800*%
%ADD15C,0.00600*%
%ADD16C,0.02000*%
%ADD17C,0.00500*%
G36*
X59000Y-10044D02*
X50000D01*
Y41044D01*
X59000D01*
Y-10044D01*
D02*
G37*
G36*
X22628Y57685D02*
X20023D01*
X22628D01*
Y54673D01*
X22614Y54833D01*
X22600Y54985D01*
X22579Y55131D01*
X22551Y55270D01*
X22524Y55395D01*
X22496Y55513D01*
X22468Y55617D01*
X22440Y55714D01*
X22413Y55797D01*
X22385Y55867D01*
X22357Y55929D01*
X22336Y55978D01*
X22322Y56012D01*
X22315Y56033D01*
X22309Y56040D01*
X22225Y56186D01*
X22135Y56325D01*
X22045Y56457D01*
X21948Y56575D01*
X21844Y56686D01*
X21746Y56783D01*
X21649Y56880D01*
X21552Y56956D01*
X21462Y57033D01*
X21378Y57095D01*
X21302Y57144D01*
X21240Y57192D01*
X21184Y57227D01*
X21143Y57248D01*
X21115Y57262D01*
X21108Y57269D01*
X20962Y57345D01*
X20809Y57407D01*
X20657Y57463D01*
X20504Y57512D01*
X20351Y57546D01*
X20206Y57581D01*
X20060Y57609D01*
X19928Y57630D01*
X19803Y57650D01*
X19692Y57664D01*
X19588Y57671D01*
X19498Y57678D01*
X19428Y57685D01*
X16000D01*
X19331D01*
X19158Y57678D01*
X18991Y57671D01*
X18832Y57650D01*
X18672Y57630D01*
X18526Y57595D01*
X18387Y57567D01*
X18256Y57532D01*
X18131Y57498D01*
X18020Y57463D01*
X17922Y57428D01*
X17832Y57393D01*
X17763Y57366D01*
X17700Y57345D01*
X17659Y57324D01*
X17631Y57317D01*
X17624Y57310D01*
X17478Y57234D01*
X17346Y57158D01*
X17221Y57067D01*
X17104Y56977D01*
X16999Y56887D01*
X16895Y56790D01*
X16805Y56700D01*
X16729Y56609D01*
X16652Y56526D01*
X16590Y56450D01*
X16541Y56373D01*
X16493Y56318D01*
X16458Y56262D01*
X16437Y56228D01*
X16423Y56200D01*
X16416Y56193D01*
X16340Y56047D01*
X16278Y55901D01*
X16222Y55756D01*
X16173Y55603D01*
X16139Y55450D01*
X16104Y55305D01*
X16076Y55166D01*
X16056Y55034D01*
X16035Y54909D01*
X16021Y54798D01*
X16014Y54694D01*
X16007Y54604D01*
X16000Y54534D01*
Y54437D01*
X16007Y54291D01*
X16014Y54146D01*
X16049Y53861D01*
X16069Y53722D01*
X16097Y53597D01*
X16125Y53472D01*
X16153Y53361D01*
X16180Y53257D01*
X16201Y53160D01*
X16229Y53077D01*
X16250Y53007D01*
X16271Y52952D01*
X16285Y52910D01*
X16298Y52882D01*
Y52876D01*
X16354Y52737D01*
X16416Y52605D01*
X16472Y52480D01*
X16534Y52369D01*
X16590Y52258D01*
X16645Y52161D01*
X16701Y52078D01*
X16757Y51994D01*
X16805Y51925D01*
X16847Y51862D01*
X16888Y51814D01*
X16923Y51772D01*
X16951Y51737D01*
X16972Y51717D01*
X16978Y51703D01*
X16985Y51696D01*
X19546D01*
Y54479D01*
X18464D01*
Y53000D01*
X17645D01*
X17561Y53118D01*
X17492Y53237D01*
X17430Y53354D01*
X17374Y53465D01*
X17325Y53563D01*
X17291Y53639D01*
X17277Y53667D01*
X17270Y53688D01*
X17263Y53701D01*
Y53708D01*
X17208Y53861D01*
X17173Y54007D01*
X17145Y54139D01*
X17124Y54264D01*
X17110Y54368D01*
Y54416D01*
X17104Y54451D01*
Y54520D01*
X17110Y54673D01*
X17131Y54812D01*
X17159Y54944D01*
X17194Y55076D01*
X17235Y55194D01*
X17284Y55298D01*
X17333Y55402D01*
X17388Y55492D01*
X17444Y55568D01*
X17492Y55645D01*
X17541Y55700D01*
X17582Y55756D01*
X17617Y55790D01*
X17652Y55825D01*
X17666Y55839D01*
X17673Y55846D01*
X17784Y55936D01*
X17909Y56012D01*
X18040Y56082D01*
X18179Y56137D01*
X18325Y56186D01*
X18464Y56228D01*
X18609Y56262D01*
X18741Y56290D01*
X18873Y56311D01*
X18998Y56325D01*
X19102Y56339D01*
X19199Y56346D01*
X19276D01*
X19338Y56353D01*
X19373D01*
X19387D01*
X19581Y56346D01*
X19761Y56332D01*
X19928Y56304D01*
X20081Y56276D01*
X20226Y56235D01*
X20358Y56193D01*
X20476Y56151D01*
X20580Y56103D01*
X20678Y56054D01*
X20754Y56012D01*
X20823Y55971D01*
X20879Y55929D01*
X20927Y55901D01*
X20955Y55874D01*
X20976Y55860D01*
X20983Y55853D01*
X21080Y55756D01*
X21163Y55652D01*
X21233Y55541D01*
X21295Y55430D01*
X21351Y55318D01*
X21392Y55207D01*
X21427Y55096D01*
X21455Y54992D01*
X21476Y54895D01*
X21497Y54798D01*
X21510Y54715D01*
X21517Y54645D01*
X21524Y54590D01*
Y54506D01*
X21510Y54305D01*
X21483Y54125D01*
X21434Y53965D01*
X21385Y53833D01*
X21358Y53778D01*
X21337Y53722D01*
X21309Y53681D01*
X21288Y53646D01*
X21274Y53611D01*
X21260Y53590D01*
X21247Y53584D01*
Y53576D01*
X21136Y53445D01*
X21018Y53341D01*
X20893Y53250D01*
X20775Y53181D01*
X20671Y53125D01*
X20622Y53105D01*
X20580Y53091D01*
X20553Y53077D01*
X20525Y53070D01*
X20511Y53063D01*
X20504D01*
X20747Y51779D01*
X20907Y51821D01*
X21059Y51869D01*
X21205Y51932D01*
X21337Y51994D01*
X21455Y52064D01*
X21573Y52140D01*
X21677Y52209D01*
X21767Y52286D01*
X21850Y52355D01*
X21927Y52425D01*
X21982Y52487D01*
X22038Y52535D01*
X22079Y52584D01*
X22107Y52619D01*
X22121Y52640D01*
X22128Y52647D01*
X22218Y52778D01*
X22295Y52917D01*
X22357Y53063D01*
X22420Y53216D01*
X22468Y53375D01*
X22503Y53528D01*
X22537Y53681D01*
X22565Y53826D01*
X22586Y53965D01*
X22600Y54090D01*
X22614Y54208D01*
X22621Y54312D01*
X22628Y54388D01*
Y51696D01*
X22628D01*
Y29356D01*
X20051D01*
X22628D01*
Y26365D01*
X22621Y26608D01*
X22593Y26844D01*
X22544Y27066D01*
X22489Y27274D01*
X22420Y27468D01*
X22350Y27642D01*
X22267Y27808D01*
X22184Y27954D01*
X22100Y28086D01*
X22024Y28204D01*
X21948Y28301D01*
X21878Y28384D01*
X21823Y28454D01*
X21781Y28495D01*
X21746Y28530D01*
X21739Y28537D01*
X21566Y28683D01*
X21378Y28808D01*
X21184Y28919D01*
X20983Y29009D01*
X20775Y29092D01*
X20567Y29155D01*
X20365Y29210D01*
X20164Y29252D01*
X19984Y29287D01*
X19810Y29314D01*
X19650Y29328D01*
X19519Y29342D01*
X19408Y29349D01*
X19366Y29356D01*
X16007D01*
X19255D01*
X18977Y29349D01*
X18721Y29321D01*
X18478Y29280D01*
X18249Y29231D01*
X18033Y29168D01*
X17839Y29099D01*
X17659Y29023D01*
X17499Y28946D01*
X17353Y28870D01*
X17228Y28794D01*
X17124Y28724D01*
X17034Y28662D01*
X16965Y28613D01*
X16916Y28572D01*
X16881Y28544D01*
X16874Y28537D01*
X16722Y28377D01*
X16590Y28211D01*
X16472Y28037D01*
X16375Y27864D01*
X16292Y27690D01*
X16222Y27517D01*
X16160Y27343D01*
X16118Y27184D01*
X16076Y27031D01*
X16056Y26885D01*
X16035Y26760D01*
X16021Y26656D01*
X16014Y26566D01*
X16007Y26497D01*
Y26441D01*
X16014Y26254D01*
X16028Y26073D01*
X16056Y25900D01*
X16083Y25740D01*
X16125Y25587D01*
X16167Y25449D01*
X16215Y25317D01*
X16264Y25206D01*
X16305Y25095D01*
X16354Y25005D01*
X16396Y24928D01*
X16437Y24859D01*
X16465Y24810D01*
X16493Y24769D01*
X16507Y24748D01*
X16514Y24741D01*
X16618Y24616D01*
X16729Y24505D01*
X16847Y24401D01*
X16978Y24304D01*
X17104Y24220D01*
X17235Y24137D01*
X17367Y24068D01*
X17492Y24005D01*
X17610Y23950D01*
X17721Y23901D01*
X17825Y23866D01*
X17909Y23832D01*
X17985Y23804D01*
X18033Y23790D01*
X18068Y23776D01*
X16007D01*
X20621D01*
X18082D01*
X18471Y25032D01*
X18346Y25067D01*
X18221Y25102D01*
X18110Y25143D01*
X18013Y25185D01*
X17915Y25234D01*
X17832Y25275D01*
X17756Y25324D01*
X17686Y25365D01*
X17631Y25407D01*
X17575Y25449D01*
X17534Y25483D01*
X17499Y25511D01*
X17471Y25539D01*
X17450Y25560D01*
X17444Y25567D01*
X17437Y25574D01*
X17381Y25643D01*
X17333Y25719D01*
X17249Y25865D01*
X17194Y26011D01*
X17152Y26150D01*
X17131Y26274D01*
X17117Y26323D01*
Y26372D01*
X17110Y26406D01*
Y26455D01*
X17117Y26580D01*
X17131Y26705D01*
X17159Y26823D01*
X17194Y26927D01*
X17228Y27031D01*
X17270Y27121D01*
X17319Y27211D01*
X17367Y27288D01*
X17416Y27357D01*
X17464Y27420D01*
X17506Y27468D01*
X17541Y27517D01*
X17575Y27545D01*
X17603Y27572D01*
X17617Y27586D01*
X17624Y27593D01*
X17728Y27670D01*
X17846Y27732D01*
X17971Y27794D01*
X18110Y27843D01*
X18256Y27885D01*
X18394Y27919D01*
X18679Y27968D01*
X18818Y27989D01*
X18943Y28003D01*
X19054Y28010D01*
X19158Y28016D01*
X19234Y28023D01*
X19297D01*
X19338D01*
X19352D01*
X19560Y28016D01*
X19755Y28003D01*
X19928Y27982D01*
X20095Y27954D01*
X20247Y27919D01*
X20379Y27885D01*
X20504Y27843D01*
X20608Y27801D01*
X20705Y27767D01*
X20789Y27725D01*
X20858Y27690D01*
X20913Y27656D01*
X20955Y27628D01*
X20990Y27607D01*
X21004Y27593D01*
X21011Y27586D01*
X21101Y27503D01*
X21177Y27406D01*
X21247Y27316D01*
X21309Y27218D01*
X21358Y27121D01*
X21399Y27024D01*
X21434Y26927D01*
X21462Y26837D01*
X21483Y26753D01*
X21497Y26677D01*
X21510Y26608D01*
X21517Y26545D01*
X21524Y26497D01*
Y26427D01*
X21510Y26240D01*
X21476Y26073D01*
X21434Y25928D01*
X21378Y25796D01*
X21323Y25692D01*
X21302Y25650D01*
X21281Y25615D01*
X21260Y25587D01*
X21247Y25567D01*
X21240Y25560D01*
X21233Y25553D01*
X21115Y25428D01*
X20990Y25324D01*
X20858Y25240D01*
X20733Y25178D01*
X20622Y25129D01*
X20573Y25109D01*
X20532Y25095D01*
X20497Y25088D01*
X20469Y25081D01*
X20456Y25074D01*
X20448D01*
X20754Y23797D01*
X20893Y23839D01*
X21025Y23887D01*
X21143Y23943D01*
X21260Y23991D01*
X21365Y24047D01*
X21462Y24102D01*
X21545Y24158D01*
X21628Y24206D01*
X21698Y24262D01*
X21760Y24304D01*
X21809Y24345D01*
X21850Y24387D01*
X21885Y24415D01*
X21906Y24435D01*
X21920Y24449D01*
X21927Y24456D01*
X22052Y24602D01*
X22156Y24748D01*
X22253Y24907D01*
X22329Y25067D01*
X22399Y25227D01*
X22454Y25386D01*
X22503Y25539D01*
X22537Y25685D01*
X22572Y25824D01*
X22593Y25955D01*
X22607Y26073D01*
X22614Y26170D01*
X22621Y26254D01*
X22628Y26309D01*
Y23776D01*
X22628D01*
Y22895D01*
X19931D01*
X22628D01*
Y19904D01*
X22621Y20146D01*
X22593Y20382D01*
X22544Y20605D01*
X22489Y20813D01*
X22420Y21007D01*
X22350Y21181D01*
X22267Y21347D01*
X22184Y21493D01*
X22100Y21625D01*
X22024Y21743D01*
X21948Y21840D01*
X21878Y21923D01*
X21823Y21993D01*
X21781Y22034D01*
X21746Y22069D01*
X21739Y22076D01*
X21566Y22222D01*
X21378Y22346D01*
X21184Y22458D01*
X20983Y22548D01*
X20775Y22631D01*
X20567Y22693D01*
X20365Y22749D01*
X20164Y22791D01*
X19984Y22825D01*
X19810Y22853D01*
X19650Y22867D01*
X19519Y22881D01*
X19408Y22888D01*
X19366Y22895D01*
X16007D01*
X19255D01*
X18977Y22888D01*
X18721Y22860D01*
X18478Y22818D01*
X18249Y22770D01*
X18033Y22707D01*
X17839Y22638D01*
X17659Y22562D01*
X17499Y22485D01*
X17353Y22409D01*
X17228Y22333D01*
X17124Y22263D01*
X17034Y22201D01*
X16965Y22152D01*
X16916Y22111D01*
X16881Y22083D01*
X16874Y22076D01*
X16722Y21916D01*
X16590Y21750D01*
X16472Y21576D01*
X16375Y21403D01*
X16292Y21229D01*
X16222Y21056D01*
X16160Y20882D01*
X16118Y20723D01*
X16076Y20570D01*
X16056Y20424D01*
X16035Y20299D01*
X16021Y20195D01*
X16014Y20105D01*
X16007Y20035D01*
Y19980D01*
X16014Y19793D01*
X16028Y19612D01*
X16056Y19439D01*
X16083Y19279D01*
X16125Y19126D01*
X16167Y18988D01*
X16215Y18856D01*
X16264Y18745D01*
X16305Y18634D01*
X16354Y18543D01*
X16396Y18467D01*
X16437Y18398D01*
X16465Y18349D01*
X16493Y18307D01*
X16507Y18287D01*
X16514Y18280D01*
X16618Y18155D01*
X16729Y18044D01*
X16847Y17940D01*
X16978Y17842D01*
X17104Y17759D01*
X17235Y17676D01*
X17367Y17606D01*
X17492Y17544D01*
X17610Y17489D01*
X17721Y17440D01*
X17825Y17405D01*
X17909Y17370D01*
X17985Y17343D01*
X18033Y17329D01*
X18068Y17315D01*
X16007D01*
X20521D01*
X18082D01*
X18471Y18571D01*
X18346Y18606D01*
X18221Y18641D01*
X18110Y18682D01*
X18013Y18724D01*
X17915Y18772D01*
X17832Y18814D01*
X17756Y18863D01*
X17686Y18904D01*
X17631Y18946D01*
X17575Y18988D01*
X17534Y19022D01*
X17499Y19050D01*
X17471Y19078D01*
X17450Y19099D01*
X17444Y19105D01*
X17437Y19113D01*
X17381Y19182D01*
X17333Y19258D01*
X17249Y19404D01*
X17194Y19550D01*
X17152Y19689D01*
X17131Y19813D01*
X17117Y19862D01*
Y19911D01*
X17110Y19945D01*
Y19994D01*
X17117Y20119D01*
X17131Y20244D01*
X17159Y20362D01*
X17194Y20466D01*
X17228Y20570D01*
X17270Y20660D01*
X17319Y20750D01*
X17367Y20827D01*
X17416Y20896D01*
X17464Y20958D01*
X17506Y21007D01*
X17541Y21056D01*
X17575Y21083D01*
X17603Y21111D01*
X17617Y21125D01*
X17624Y21132D01*
X17728Y21208D01*
X17846Y21271D01*
X17971Y21333D01*
X18110Y21382D01*
X18256Y21423D01*
X18394Y21458D01*
X18679Y21507D01*
X18818Y21528D01*
X18943Y21542D01*
X19054Y21548D01*
X19158Y21555D01*
X19234Y21562D01*
X19297D01*
X19338D01*
X19352D01*
X19560Y21555D01*
X19755Y21542D01*
X19928Y21521D01*
X20095Y21493D01*
X20247Y21458D01*
X20379Y21423D01*
X20504Y21382D01*
X20608Y21340D01*
X20705Y21305D01*
X20789Y21264D01*
X20858Y21229D01*
X20913Y21194D01*
X20955Y21167D01*
X20990Y21146D01*
X21004Y21132D01*
X21011Y21125D01*
X21101Y21042D01*
X21177Y20945D01*
X21247Y20854D01*
X21309Y20757D01*
X21358Y20660D01*
X21399Y20563D01*
X21434Y20466D01*
X21462Y20376D01*
X21483Y20292D01*
X21497Y20216D01*
X21510Y20146D01*
X21517Y20084D01*
X21524Y20035D01*
Y19966D01*
X21510Y19779D01*
X21476Y19612D01*
X21434Y19466D01*
X21378Y19334D01*
X21323Y19230D01*
X21302Y19189D01*
X21281Y19154D01*
X21260Y19126D01*
X21247Y19105D01*
X21240Y19099D01*
X21233Y19092D01*
X21115Y18967D01*
X20990Y18863D01*
X20858Y18779D01*
X20733Y18717D01*
X20622Y18668D01*
X20573Y18647D01*
X20532Y18634D01*
X20497Y18627D01*
X20469Y18620D01*
X20456Y18613D01*
X20448D01*
X20754Y17336D01*
X20893Y17378D01*
X21025Y17426D01*
X21143Y17482D01*
X21260Y17530D01*
X21365Y17586D01*
X21462Y17641D01*
X21545Y17697D01*
X21628Y17745D01*
X21698Y17801D01*
X21760Y17842D01*
X21809Y17884D01*
X21850Y17926D01*
X21885Y17954D01*
X21906Y17974D01*
X21920Y17988D01*
X21927Y17995D01*
X22052Y18141D01*
X22156Y18287D01*
X22253Y18446D01*
X22329Y18606D01*
X22399Y18766D01*
X22454Y18925D01*
X22503Y19078D01*
X22537Y19223D01*
X22572Y19362D01*
X22593Y19494D01*
X22607Y19612D01*
X22614Y19709D01*
X22621Y19793D01*
X22628Y19848D01*
Y17315D01*
X22628D01*
Y15908D01*
X16000D01*
Y59092D01*
X22628D01*
Y57685D01*
D02*
G37*
%LPC*%
G36*
X57219Y37806D02*
Y37444D01*
X56350D01*
Y36263D01*
X54719D01*
Y37806D01*
X51000D01*
X53856D01*
Y36300D01*
X53688Y36312D01*
X53525Y36338D01*
X53381Y36369D01*
X53244Y36400D01*
X53119Y36437D01*
X53000Y36475D01*
X52900Y36519D01*
X52806Y36562D01*
X52725Y36600D01*
X52650Y36644D01*
X52594Y36675D01*
X52544Y36706D01*
X52506Y36737D01*
X52481Y36756D01*
X52463Y36769D01*
X52456Y36775D01*
X52294Y36937D01*
X52144Y37106D01*
X52006Y37275D01*
X51894Y37437D01*
X51844Y37512D01*
X51800Y37581D01*
X51762Y37637D01*
X51731Y37694D01*
X51706Y37731D01*
X51688Y37769D01*
X51681Y37788D01*
X51675Y37794D01*
X51544Y37625D01*
X51425Y37469D01*
X51306Y37325D01*
X51206Y37200D01*
X51162Y37150D01*
X51119Y37100D01*
X51087Y37056D01*
X51056Y37019D01*
X51031Y36994D01*
X51012Y36975D01*
X51006Y36963D01*
X51000Y36956D01*
X51081Y36812D01*
X51169Y36675D01*
X51256Y36550D01*
X51350Y36437D01*
X51437Y36331D01*
X51519Y36231D01*
X51606Y36144D01*
X51681Y36069D01*
X51756Y36000D01*
X51825Y35938D01*
X51888Y35888D01*
X51938Y35850D01*
X51981Y35819D01*
X52012Y35794D01*
X52031Y35781D01*
X52038Y35775D01*
X52156Y35706D01*
X52288Y35644D01*
X52431Y35587D01*
X52575Y35537D01*
X52881Y35456D01*
X53031Y35425D01*
X53175Y35400D01*
X53312Y35375D01*
X53444Y35356D01*
X53556Y35344D01*
X53656Y35337D01*
X53737Y35325D01*
X53806D01*
X53825Y35319D01*
X53844D01*
X53850D01*
X53856D01*
Y33531D01*
X51131D01*
Y32569D01*
X53856D01*
Y31212D01*
X57219D01*
Y37806D01*
D02*
G37*
G36*
X54256Y30181D02*
X53719D01*
X52181Y26856D01*
X53000D01*
X53981Y29237D01*
X54000D01*
X55056Y26856D01*
X55875D01*
X54256Y30181D01*
D02*
G37*
G36*
X54281Y25406D02*
X53525D01*
Y23444D01*
X54281D01*
Y25406D01*
D02*
G37*
G36*
Y22431D02*
X53525D01*
Y20469D01*
X54281D01*
Y22431D01*
D02*
G37*
G36*
Y19456D02*
X53525D01*
Y17494D01*
X54281D01*
Y19456D01*
D02*
G37*
G36*
Y16481D02*
X53525D01*
Y14519D01*
X54281D01*
Y16481D01*
D02*
G37*
G36*
Y13506D02*
X53525D01*
Y11544D01*
X54281D01*
Y13506D01*
D02*
G37*
G36*
Y10531D02*
X53525D01*
Y8569D01*
X54281D01*
Y10531D01*
D02*
G37*
G36*
Y7556D02*
X53525D01*
Y5594D01*
X54281D01*
Y7556D01*
D02*
G37*
G36*
X55913Y4163D02*
X52219D01*
D01*
X53756Y838D01*
X53450D01*
X55913D01*
X54294D01*
X55913Y4163D01*
D02*
G37*
G36*
X51856Y-194D02*
X51688Y-350D01*
X51531Y-488D01*
X51388Y-612D01*
X51262Y-725D01*
X51206Y-769D01*
X51156Y-812D01*
X51113Y-844D01*
X51081Y-875D01*
X51050Y-900D01*
X51031Y-919D01*
X51019Y-925D01*
X51012Y-931D01*
X51087Y-1106D01*
X51162Y-1281D01*
X51244Y-1444D01*
X51325Y-1600D01*
X51406Y-1750D01*
X51494Y-1887D01*
X51575Y-2025D01*
X51662Y-2150D01*
X51744Y-2275D01*
X51831Y-2387D01*
X51912Y-2500D01*
X51994Y-2600D01*
X52156Y-2788D01*
X52312Y-2950D01*
X52463Y-3087D01*
X52594Y-3206D01*
X52719Y-3306D01*
X52819Y-3381D01*
X52906Y-3438D01*
X52969Y-3481D01*
X52994Y-3494D01*
X53013Y-3506D01*
X53019Y-3512D01*
X53025D01*
X52894Y-3588D01*
X52769Y-3663D01*
X52538Y-3838D01*
X52325Y-4031D01*
X52125Y-4237D01*
X51950Y-4450D01*
X51794Y-4669D01*
X51650Y-4888D01*
X51525Y-5100D01*
X51419Y-5306D01*
X51331Y-5500D01*
X51250Y-5675D01*
X51219Y-5756D01*
X51194Y-5825D01*
X51169Y-5894D01*
X51144Y-5956D01*
X51125Y-6006D01*
X51113Y-6050D01*
X51100Y-6087D01*
X51094Y-6112D01*
X51087Y-6125D01*
Y-6131D01*
X51150Y-6175D01*
X51219Y-6219D01*
X51363Y-6325D01*
X51519Y-6437D01*
X51662Y-6544D01*
X51731Y-6600D01*
X51800Y-6650D01*
X51856Y-6694D01*
X51906Y-6731D01*
X51950Y-6763D01*
X51981Y-6787D01*
X52000Y-6800D01*
X52006Y-6806D01*
X52044Y-6625D01*
X52087Y-6444D01*
X52138Y-6275D01*
X52194Y-6119D01*
X52250Y-5962D01*
X52306Y-5819D01*
X52369Y-5681D01*
X52438Y-5550D01*
X52506Y-5425D01*
X52575Y-5306D01*
X52644Y-5194D01*
X52713Y-5088D01*
X52788Y-4987D01*
X52856Y-4900D01*
X53000Y-4731D01*
X53137Y-4588D01*
X53263Y-4469D01*
X53381Y-4369D01*
X53487Y-4294D01*
X53575Y-4237D01*
X53637Y-4194D01*
X53663Y-4181D01*
X53681Y-4169D01*
X53688Y-4163D01*
X53694D01*
Y-6756D01*
X54550D01*
Y-4000D01*
X54656D01*
X54756D01*
X54850D01*
X54931Y-4006D01*
X55006D01*
X55081D01*
X55144D01*
X55200D01*
X55250D01*
X55287D01*
X55325D01*
X55356D01*
X55375D01*
X55394D01*
X55406D01*
Y-6425D01*
X56262D01*
Y-4944D01*
X57119Y-5669D01*
X57619Y-4713D01*
X57375Y-4563D01*
X57131Y-4412D01*
X56906Y-4262D01*
X56800Y-4188D01*
X56700Y-4119D01*
X56606Y-4056D01*
X56519Y-4000D01*
X56444Y-3944D01*
X56381Y-3900D01*
X56331Y-3862D01*
X56294Y-3838D01*
X56269Y-3819D01*
X56262Y-3813D01*
Y-2662D01*
X56563Y-3094D01*
X56700Y-2975D01*
X56825Y-2863D01*
X56937Y-2756D01*
X57044Y-2662D01*
X57138Y-2581D01*
X57225Y-2500D01*
X57306Y-2431D01*
X57375Y-2369D01*
X57431Y-2319D01*
X57481Y-2275D01*
X57525Y-2238D01*
X57563Y-2206D01*
X57587Y-2181D01*
X57606Y-2162D01*
X57613Y-2156D01*
X57619Y-2150D01*
X57087Y-1394D01*
X56956Y-1500D01*
X56819Y-1612D01*
X56681Y-1725D01*
X56556Y-1825D01*
X56437Y-1912D01*
X56388Y-1956D01*
X56344Y-1987D01*
X56313Y-2012D01*
X56287Y-2031D01*
X56269Y-2044D01*
X56262Y-2050D01*
Y-612D01*
X55406D01*
Y-3019D01*
X55263D01*
X55131Y-3012D01*
X55019D01*
X54925Y-3006D01*
X54844D01*
X54775D01*
X54712D01*
X54669Y-3000D01*
X54631D01*
X54606D01*
X54581D01*
X54569D01*
X54556D01*
X54550D01*
Y-262D01*
X53694D01*
Y-2819D01*
X53581Y-2763D01*
X53475Y-2700D01*
X53375Y-2631D01*
X53275Y-2556D01*
X53175Y-2469D01*
X53081Y-2381D01*
X52906Y-2187D01*
X52744Y-1975D01*
X52594Y-1756D01*
X52456Y-1531D01*
X52331Y-1312D01*
X52219Y-1094D01*
X52125Y-888D01*
X52044Y-700D01*
X52006Y-612D01*
X51975Y-531D01*
X51950Y-456D01*
X51925Y-394D01*
X51906Y-331D01*
X51888Y-288D01*
X51875Y-244D01*
X51863Y-219D01*
X51856Y-200D01*
Y-194D01*
D02*
G37*
G36*
X54316Y-6806D02*
X52006D01*
X51012D01*
D01*
X54316D01*
D02*
G37*
%LPD*%
G36*
X56350Y33531D02*
X54719D01*
Y35300D01*
X56350D01*
Y33531D01*
D02*
G37*
G36*
Y31494D02*
X57219D01*
Y31212D01*
X54719D01*
Y32569D01*
X56350D01*
Y31494D01*
D02*
G37*
G36*
X54031Y1769D02*
X54019D01*
X53038Y4163D01*
X55094D01*
X54031Y1769D01*
D02*
G37*
%LPC*%
G36*
X22524Y50488D02*
X16118D01*
Y45408D01*
X22524D01*
Y46602D01*
X18221D01*
X22524Y49239D01*
Y50488D01*
D02*
G37*
G36*
Y44041D02*
X16118D01*
Y41480D01*
X16125Y41355D01*
X16132Y41237D01*
X16139Y41133D01*
X16146Y41029D01*
X16160Y40932D01*
X16173Y40849D01*
X16187Y40772D01*
X16194Y40703D01*
X16208Y40640D01*
X16222Y40585D01*
X16229Y40543D01*
X16236Y40508D01*
X16243Y40488D01*
X16250Y40474D01*
Y40467D01*
X16326Y40266D01*
X16409Y40085D01*
X16493Y39933D01*
X16576Y39801D01*
X16611Y39745D01*
X16645Y39696D01*
X16680Y39662D01*
X16708Y39627D01*
X16729Y39599D01*
X16749Y39579D01*
X16757Y39572D01*
X16763Y39565D01*
X16937Y39405D01*
X17124Y39266D01*
X17312Y39148D01*
X17492Y39051D01*
X17575Y39009D01*
X17652Y38975D01*
X17721Y38947D01*
X17777Y38919D01*
X17825Y38905D01*
X17867Y38892D01*
X17888Y38878D01*
X17895D01*
X18117Y38808D01*
X18346Y38760D01*
X18575Y38725D01*
X18790Y38704D01*
X18887Y38690D01*
X18977Y38683D01*
X19054D01*
X19123Y38676D01*
X19421D01*
X19581Y38683D01*
X19727Y38697D01*
X19873Y38711D01*
X20004Y38725D01*
X20129Y38746D01*
X20247Y38767D01*
X20351Y38780D01*
X20442Y38801D01*
X20525Y38822D01*
X20601Y38843D01*
X20657Y38857D01*
X20705Y38871D01*
X20740Y38884D01*
X20761Y38892D01*
X20768D01*
X20990Y38975D01*
X21191Y39072D01*
X21372Y39176D01*
X21448Y39225D01*
X21517Y39273D01*
X21587Y39322D01*
X21642Y39363D01*
X21691Y39405D01*
X21732Y39433D01*
X21767Y39461D01*
X21788Y39481D01*
X21802Y39495D01*
X21809Y39502D01*
X21955Y39662D01*
X22079Y39821D01*
X22184Y39981D01*
X22260Y40134D01*
X22322Y40266D01*
X22350Y40321D01*
X22364Y40370D01*
X22378Y40411D01*
X22392Y40439D01*
X22399Y40460D01*
Y40467D01*
X22420Y40550D01*
X22440Y40640D01*
X22468Y40835D01*
X22496Y41036D01*
X22510Y41230D01*
X22517Y41320D01*
Y41480D01*
X22524Y41550D01*
Y38857D01*
Y44041D01*
D02*
G37*
G36*
Y35748D02*
D01*
X16118Y33464D01*
Y32076D01*
X22524Y29786D01*
Y35748D01*
D02*
G37*
%LPD*%
G36*
X16118Y46699D02*
Y49294D01*
X20324D01*
X16118Y46699D01*
D02*
G37*
G36*
X21441Y41903D02*
X21434Y41785D01*
Y41674D01*
X21427Y41577D01*
X21420Y41487D01*
X21413Y41411D01*
Y41348D01*
X21406Y41286D01*
X21399Y41237D01*
X21392Y41195D01*
X21385Y41168D01*
Y41140D01*
X21378Y41126D01*
Y41112D01*
X21344Y40980D01*
X21295Y40862D01*
X21247Y40758D01*
X21198Y40675D01*
X21149Y40606D01*
X21108Y40550D01*
X21080Y40522D01*
X21073Y40508D01*
X20983Y40425D01*
X20886Y40349D01*
X20782Y40286D01*
X20685Y40238D01*
X20594Y40196D01*
X20518Y40161D01*
X20497Y40155D01*
X20476Y40148D01*
X20462Y40141D01*
X20456D01*
X20379Y40120D01*
X20296Y40099D01*
X20109Y40064D01*
X19921Y40044D01*
X19741Y40023D01*
X19650D01*
X19574Y40016D01*
X19505D01*
X19442Y40009D01*
X19387D01*
X19352D01*
X19324D01*
X19317D01*
X19185D01*
X19054Y40016D01*
X18936Y40023D01*
X18818Y40030D01*
X18713Y40037D01*
X18623Y40051D01*
X18533Y40064D01*
X18450Y40071D01*
X18380Y40085D01*
X18318Y40099D01*
X18269Y40113D01*
X18221Y40120D01*
X18186Y40127D01*
X18165Y40134D01*
X18151Y40141D01*
X18145D01*
X17992Y40196D01*
X17867Y40252D01*
X17763Y40307D01*
X17673Y40363D01*
X17610Y40404D01*
X17561Y40446D01*
X17534Y40474D01*
X17527Y40481D01*
X17464Y40564D01*
X17409Y40647D01*
X17360Y40738D01*
X17319Y40821D01*
X17291Y40890D01*
X17270Y40946D01*
X17263Y40987D01*
X17256Y40994D01*
Y41001D01*
X17249Y41050D01*
X17235Y41105D01*
X17221Y41223D01*
X17214Y41355D01*
X17208Y41487D01*
X17201Y41598D01*
Y42750D01*
X21441D01*
Y41903D01*
D02*
G37*
G36*
X22524Y31160D02*
X17784Y32729D01*
X22524Y34353D01*
Y31160D01*
D02*
G37*
D10*
X162213Y99000D02*
G03*
X162213Y99000I-12402J0D01*
G01*
X162402Y173598D02*
G03*
X162402Y173598I-12402J0D01*
G01*
X190402Y58500D02*
G03*
X190402Y58500I-12402J0D01*
G01*
X64906Y152165D02*
G03*
X64906Y152165I-394J0D01*
G01*
Y226665D02*
G03*
X64906Y226665I-394J0D01*
G01*
X37012Y117299D02*
X50988D01*
X37012Y129504D02*
X50988D01*
X37012Y143299D02*
X50988D01*
X37012Y155504D02*
X50988D01*
X37012Y191898D02*
X50988D01*
X37012Y204102D02*
X50988D01*
X108539Y37744D02*
X111689D01*
X110098Y36169D02*
Y39319D01*
X142595Y147244D02*
X145744D01*
X142595D02*
Y150000D01*
X151256Y147244D02*
X154405D01*
Y150000D01*
X142595Y221744D02*
X145744D01*
X142595D02*
Y224500D01*
X151256Y221744D02*
X154405D01*
Y224500D01*
X37012Y230102D02*
X50988D01*
X37012Y217898D02*
X50988D01*
X155189Y15094D02*
Y26906D01*
X128811Y15094D02*
Y26906D01*
X155189D01*
X128811Y15094D02*
X155189D01*
X169500Y89000D02*
X189500D01*
X169500Y209000D02*
X189500D01*
Y89000D02*
Y209000D01*
X169500Y89000D02*
Y209000D01*
D11*
X115000Y54500D02*
G03*
X115000Y54500I-500J0D01*
G01*
X110606Y15500D02*
G03*
X110606Y15500I-24606J0D01*
G01*
X139000Y59000D02*
G03*
X135000Y59000I-2000J0D01*
G01*
X147000D02*
G03*
X143000Y59000I-2000J0D01*
G01*
D02*
G03*
X139000Y59000I-2000J0D01*
G01*
X151000Y65000D02*
G03*
X131000Y65000I-10000J-6000D01*
G01*
X156000Y71000D02*
G03*
X153000Y74000I-3000J0D01*
G01*
X129000D02*
G03*
X126000Y71000I0J-3000D01*
G01*
X153000Y44000D02*
G03*
X156000Y47000I0J3000D01*
G01*
X126000D02*
G03*
X129000Y44000I3000J0D01*
G01*
X131000Y53000D02*
G03*
X151000Y53000I10000J6000D01*
G01*
X142724Y86008D02*
X162803D01*
X136819Y91913D02*
X142724Y86008D01*
X136819Y91913D02*
Y106283D01*
X142528Y111992D02*
X162803D01*
Y86008D02*
Y111992D01*
X136819Y106283D02*
X142528Y111992D01*
X142913Y160606D02*
X162992D01*
X137008Y166512D02*
X142913Y160606D01*
X137008Y166512D02*
Y180882D01*
X142717Y186591D02*
X162992D01*
Y160606D02*
Y186591D01*
X137008Y180882D02*
X142717Y186591D01*
X109000Y67910D02*
X109200Y69000D01*
X107800D02*
X109200D01*
X107800D02*
X109000Y66800D01*
X110200Y69300D01*
X113000Y61500D02*
X114315D01*
X113000Y58000D02*
X115000D01*
X103685Y61500D02*
X105000D01*
X103000Y58000D02*
X105000D01*
X113252Y78630D02*
X115000D01*
X103000Y58000D02*
Y78630D01*
X104650D01*
X115000Y58000D02*
Y78630D01*
X165008Y45508D02*
Y65587D01*
X170913Y71492D01*
X185284D01*
X190992Y45508D02*
Y65784D01*
X165008Y45508D02*
X190992D01*
X185284Y71492D02*
X190992Y65784D01*
X131000Y59000D02*
X135000D01*
X147000D02*
X151000D01*
X126000Y64000D02*
Y71000D01*
X129000Y74000D02*
X153000D01*
X156000Y64000D02*
Y71000D01*
X126000Y47000D02*
Y54000D01*
X129000Y44000D02*
X153000D01*
X156000Y47000D02*
Y54000D01*
X-15000Y210370D02*
X15000D01*
X-15000Y148370D02*
Y210370D01*
X15000Y148370D02*
Y210370D01*
X62231Y88500D02*
X71089D01*
Y45500D02*
Y88500D01*
X62231Y45500D02*
X71089D01*
X23000Y-12059D02*
X50000D01*
Y43059D01*
X23000D02*
X50000D01*
X23000Y-12059D02*
Y43059D01*
X-15000Y133500D02*
X15000D01*
Y71500D02*
Y133500D01*
X-15000Y71500D02*
X15000D01*
X-15000D02*
Y133500D01*
X7000Y71500D02*
Y133500D01*
X-15000Y123500D02*
X-10000D01*
Y119500D02*
Y123500D01*
X-15000Y119500D02*
X-10000D01*
X-15000Y99815D02*
X-10000D01*
Y103815D01*
X-15000D02*
X-10000D01*
X-15000Y83815D02*
X-10000D01*
Y79815D02*
Y83815D01*
X-15000Y79815D02*
X-10000D01*
X-15000Y148370D02*
X15000D01*
X7000D02*
Y210370D01*
X-15000Y200370D02*
X-10000D01*
Y196370D02*
Y200370D01*
X-15000Y196370D02*
X-10000D01*
X-15000Y176685D02*
X-10000D01*
Y180685D01*
X-15000D02*
X-10000D01*
X-15000Y160685D02*
X-10000D01*
Y156685D02*
Y160685D01*
X-15000Y156685D02*
X-10000D01*
X-15000Y24500D02*
X-10000D01*
Y28500D01*
X-15000D02*
X-10000D01*
X-15000Y58500D02*
X15000D01*
Y16500D02*
Y58500D01*
X-15000Y16500D02*
X15000D01*
X-15000D02*
Y58500D01*
X7000Y16500D02*
Y58500D01*
X-15000Y48500D02*
X-10000D01*
Y44500D02*
Y48500D01*
X-15000Y44500D02*
X-10000D01*
X55084Y116500D02*
Y117333D01*
X55917D01*
Y116500D01*
X55084D01*
Y190500D02*
Y191333D01*
X55917D01*
Y190500D01*
X55084D01*
Y142500D02*
Y143333D01*
X55917D01*
Y142500D01*
X55084D01*
X71583Y150500D02*
Y151333D01*
X72417D01*
Y150500D01*
X71583D01*
X55084Y217000D02*
Y217833D01*
X55917D01*
Y217000D01*
X55084D01*
X71583Y225000D02*
Y225833D01*
X72417D01*
Y225000D01*
X71583D01*
D12*
X156079Y154134D02*
G03*
X156079Y154134I-492J0D01*
G01*
Y228634D02*
G03*
X156079Y228634I-492J0D01*
G01*
X129500Y9780D02*
G03*
X129500Y9780I-492J0D01*
G01*
D13*
X87287Y48000D02*
G03*
X87287Y48000I-787J0D01*
G01*
D14*
X153665Y134941D02*
Y140059D01*
X143429Y134941D02*
Y140059D01*
X147047D01*
X143429Y134941D02*
X147047D01*
X150047Y140059D02*
X153665D01*
X150047Y134941D02*
X153665D01*
Y129941D02*
Y135059D01*
X143429Y129941D02*
Y135059D01*
X147047D01*
X143429Y129941D02*
X147047D01*
X150047Y135059D02*
X153665D01*
X150047Y129941D02*
X153665D01*
X143429Y124941D02*
Y130059D01*
X153666Y124941D02*
Y130059D01*
X150047Y124941D02*
X153666D01*
X150047Y130059D02*
X153666D01*
X143429Y124941D02*
X147047D01*
X143429Y130059D02*
X147047D01*
X143429Y119941D02*
Y125059D01*
X153666Y119941D02*
Y125059D01*
X150047Y119941D02*
X153666D01*
X150047Y125059D02*
X153666D01*
X143429Y119941D02*
X147047D01*
X143429Y125059D02*
X147047D01*
X143429Y114941D02*
X153666D01*
Y120059D01*
X143429D02*
X153666D01*
X143429Y114941D02*
Y120059D01*
Y189539D02*
X153666D01*
Y194658D01*
X143429D02*
X153666D01*
X143429Y189539D02*
Y194658D01*
Y194540D02*
Y199658D01*
X153666Y194540D02*
Y199658D01*
X150047Y194540D02*
X153666D01*
X150047Y199658D02*
X153666D01*
X143429Y194540D02*
X147047D01*
X143429Y199658D02*
X147047D01*
X143429Y199540D02*
Y204658D01*
X153666Y199540D02*
Y204658D01*
X150047Y199540D02*
X153666D01*
X150047Y204658D02*
X153666D01*
X143429Y199540D02*
X147047D01*
X143429Y204658D02*
X147047D01*
X153665Y204539D02*
Y209657D01*
X143429Y204539D02*
Y209657D01*
X147047D01*
X143429Y204539D02*
X147047D01*
X150047Y209657D02*
X153665D01*
X150047Y204539D02*
X153665D01*
Y209539D02*
Y214657D01*
X143429Y209539D02*
Y214657D01*
X147047D01*
X143429Y209539D02*
X147047D01*
X150047Y214657D02*
X153665D01*
X150047Y209539D02*
X153665D01*
X37807Y214100D02*
X51193D01*
X37807Y206900D02*
Y214100D01*
Y206900D02*
X51193D01*
Y214100D01*
X19941Y229216D02*
X25059D01*
X19941Y218980D02*
X25059D01*
X19941D02*
Y222598D01*
X25059Y218980D02*
Y222598D01*
X19941Y225598D02*
Y229216D01*
X25059Y225598D02*
Y229216D01*
X19941Y203216D02*
X25059D01*
X19941Y192980D02*
X25059D01*
X19941D02*
Y196598D01*
X25059Y192980D02*
Y196598D01*
X19941Y199598D02*
Y203216D01*
X25059Y199598D02*
Y203216D01*
X37807Y188100D02*
X51193D01*
X37807Y180900D02*
Y188100D01*
Y180900D02*
X51193D01*
Y188100D01*
X37807Y113502D02*
X51193D01*
X37807Y106302D02*
Y113502D01*
Y106302D02*
X51193D01*
Y113502D01*
X37807Y139502D02*
X51193D01*
X37807Y132302D02*
Y139502D01*
Y132302D02*
X51193D01*
Y139502D01*
X19941Y128618D02*
X25059D01*
X19941Y118382D02*
X25059D01*
X19941D02*
Y122000D01*
X25059Y118382D02*
Y122000D01*
X19941Y125000D02*
Y128618D01*
X25059Y125000D02*
Y128618D01*
X19941Y154618D02*
X25059D01*
X19941Y144382D02*
X25059D01*
X19941D02*
Y148000D01*
X25059Y144382D02*
Y148000D01*
X19941Y151000D02*
Y154618D01*
X25059Y151000D02*
Y154618D01*
X107000Y66055D02*
X111000D01*
X107000Y69555D02*
X109000Y66055D01*
X107000Y69555D02*
X111000D01*
X109000Y66055D02*
X111000Y69555D01*
X142941Y-382D02*
X148059D01*
X142941Y-10618D02*
X148059D01*
X142941D02*
Y-7000D01*
X148059Y-10618D02*
Y-7000D01*
X142941Y-4000D02*
Y-382D01*
X148059Y-4000D02*
Y-382D01*
X149941D02*
X155059D01*
X149941Y-10618D02*
X155059D01*
X149941D02*
Y-7000D01*
X155059Y-10618D02*
Y-7000D01*
X149941Y-4000D02*
Y-382D01*
X155059Y-4000D02*
Y-382D01*
X135941D02*
X141059D01*
X135941Y-10618D02*
X141059D01*
X135941D02*
Y-7000D01*
X141059Y-10618D02*
Y-7000D01*
X135941Y-4000D02*
Y-382D01*
X141059Y-4000D02*
Y-382D01*
X128941D02*
X134059D01*
X128941Y-10618D02*
X134059D01*
X128941D02*
Y-7000D01*
X134059Y-10618D02*
Y-7000D01*
X128941Y-4000D02*
Y-382D01*
X134059Y-4000D02*
Y-382D01*
X162882Y16441D02*
X173118D01*
Y21559D01*
X162882D02*
X173118D01*
X162882Y16441D02*
Y21559D01*
X186913Y16637D02*
Y21362D01*
X176086D02*
X179999D01*
X176086Y16637D02*
X179999D01*
X176086D02*
Y21362D01*
X188000Y16637D02*
Y21362D01*
X182999D02*
X188000D01*
X182999Y16637D02*
X188000D01*
X170970Y34559D02*
X186059D01*
X170970Y29441D02*
Y34559D01*
Y29441D02*
X186059D01*
Y34559D01*
X61001Y223819D02*
Y226818D01*
X62000Y225818D01*
X63000Y226818D01*
Y223819D01*
X64000D02*
X64999D01*
X64499D01*
Y226818D01*
X64000Y226318D01*
X62000Y221299D02*
X61001D01*
X60501Y220799D01*
Y218800D01*
X61001Y218300D01*
X62000D01*
X62500Y218800D01*
Y220799D01*
X62000Y221299D01*
X65499Y218300D02*
X63500D01*
X65499Y220299D01*
Y220799D01*
X64999Y221299D01*
X64000D01*
X63500Y220799D01*
X61001Y199319D02*
Y202318D01*
X62000Y201318D01*
X63000Y202318D01*
Y199319D01*
X64000D02*
X64999D01*
X64499D01*
Y202318D01*
X64000Y201818D01*
X62500Y196799D02*
X61501D01*
X61001Y196299D01*
Y194300D01*
X61501Y193800D01*
X62500D01*
X63000Y194300D01*
Y196299D01*
X62500Y196799D01*
X64000Y193800D02*
X64999D01*
X64499D01*
Y196799D01*
X64000Y196299D01*
X61001Y149319D02*
Y152318D01*
X62001Y151318D01*
X63000Y152318D01*
Y149319D01*
X65999D02*
X64000D01*
X65999Y151318D01*
Y151818D01*
X65499Y152318D01*
X64500D01*
X64000Y151818D01*
X62500Y146799D02*
X61501D01*
X61001Y146299D01*
Y144300D01*
X61501Y143800D01*
X62500D01*
X63000Y144300D01*
Y146299D01*
X62500Y146799D01*
X65999Y143800D02*
X64000D01*
X65999Y145799D01*
Y146299D01*
X65499Y146799D01*
X64500D01*
X64000Y146299D01*
X60001Y123819D02*
Y126818D01*
X61001Y125818D01*
X62000Y126818D01*
Y123819D01*
X64999D02*
X63000D01*
X64999Y125818D01*
Y126318D01*
X64499Y126818D01*
X63500D01*
X63000Y126318D01*
X62000Y121299D02*
X61001D01*
X60501Y120799D01*
Y118800D01*
X61001Y118300D01*
X62000D01*
X62500Y118800D01*
Y120799D01*
X62000Y121299D01*
X63500Y118300D02*
X64499D01*
X63999D01*
Y121299D01*
X63500Y120799D01*
X178001Y26299D02*
Y23300D01*
X180001D01*
X183000Y26299D02*
X181000D01*
Y23300D01*
X183000D01*
X181000Y24800D02*
X182000D01*
X183999Y26299D02*
Y23300D01*
X185499D01*
X185999Y23800D01*
Y25799D01*
X185499Y26299D01*
X183999D01*
X165754Y38799D02*
X166253Y39299D01*
X167253D01*
X167753Y38799D01*
Y38299D01*
X167253Y37800D01*
X166753D01*
X167253D01*
X167753Y37300D01*
Y36800D01*
X167253Y36300D01*
X166253D01*
X165754Y36800D01*
X168753Y39299D02*
Y37300D01*
X169752Y36300D01*
X170752Y37300D01*
Y39299D01*
X171752Y38799D02*
X172251Y39299D01*
X173251D01*
X173751Y38799D01*
Y38299D01*
X173251Y37800D01*
X172751D01*
X173251D01*
X173751Y37300D01*
Y36800D01*
X173251Y36300D01*
X172251D01*
X171752Y36800D01*
X176250Y36300D02*
X174751Y37800D01*
X176250Y39299D01*
X177750Y37800D02*
X179749D01*
X180749Y36300D02*
X182248Y37800D01*
X180749Y39299D01*
X185247D02*
X183248D01*
Y37800D01*
X184248Y38299D01*
X184748D01*
X185247Y37800D01*
Y36800D01*
X184748Y36300D01*
X183748D01*
X183248Y36800D01*
X186247Y39299D02*
Y37300D01*
X187247Y36300D01*
X188246Y37300D01*
Y39299D01*
X4754Y137500D02*
X5254Y137999D01*
X6254D01*
X6753Y137500D01*
Y135500D01*
X6254Y135001D01*
X5254D01*
X4754Y135500D01*
Y137500D01*
X7753Y135001D02*
Y135500D01*
X8253D01*
Y135001D01*
X7753D01*
X10252D02*
X11252D01*
X10752D01*
Y137999D01*
X10252Y137500D01*
X12751Y137000D02*
Y135500D01*
X13251Y135001D01*
X14751D01*
Y137000D01*
X16250Y135001D02*
Y137500D01*
Y136500D01*
X15750D01*
X16750D01*
X16250D01*
Y137500D01*
X16750Y137999D01*
X18250Y135001D02*
X20249Y137000D01*
X23248Y137999D02*
X21249D01*
Y136500D01*
X22248Y137000D01*
X22748D01*
X23248Y136500D01*
Y135500D01*
X22748Y135001D01*
X21748D01*
X21249Y135500D01*
X24248Y137500D02*
X24747Y137999D01*
X25747D01*
X26247Y137500D01*
Y135500D01*
X25747Y135001D01*
X24747D01*
X24248Y135500D01*
Y137500D01*
X27247Y137999D02*
Y136000D01*
X28246Y135001D01*
X29246Y136000D01*
Y137999D01*
X4754Y142000D02*
X5254Y142499D01*
X6254D01*
X6753Y142000D01*
Y140000D01*
X6254Y139500D01*
X5254D01*
X4754Y140000D01*
Y142000D01*
X7753Y139500D02*
Y140000D01*
X8253D01*
Y139500D01*
X7753D01*
X10252D02*
X11252D01*
X10752D01*
Y142499D01*
X10252Y142000D01*
X12751Y141500D02*
Y140000D01*
X13251Y139500D01*
X14751D01*
Y141500D01*
X16250Y139500D02*
Y142000D01*
Y141000D01*
X15750D01*
X16750D01*
X16250D01*
Y142000D01*
X16750Y142499D01*
X18250Y139500D02*
X20249Y141500D01*
X23248Y142499D02*
X21249D01*
Y141000D01*
X22248Y141500D01*
X22748D01*
X23248Y141000D01*
Y140000D01*
X22748Y139500D01*
X21748D01*
X21249Y140000D01*
X24248Y142000D02*
X24747Y142499D01*
X25747D01*
X26247Y142000D01*
Y140000D01*
X25747Y139500D01*
X24747D01*
X24248Y140000D01*
Y142000D01*
X27247Y142499D02*
Y140500D01*
X28246Y139500D01*
X29246Y140500D01*
Y142499D01*
X38002Y103500D02*
X38502Y103999D01*
X39502D01*
X40001Y103500D01*
Y101500D01*
X39502Y101000D01*
X38502D01*
X38002Y101500D01*
Y103500D01*
X41001Y101000D02*
Y101500D01*
X41501D01*
Y101000D01*
X41001D01*
X43500Y103500D02*
X44000Y103999D01*
X45000D01*
X45500Y103500D01*
Y101500D01*
X45000Y101000D01*
X44000D01*
X43500Y101500D01*
Y103500D01*
X46499Y101000D02*
X47499D01*
X46999D01*
Y103999D01*
X46499Y103500D01*
X48999Y101000D02*
Y103999D01*
X50498D01*
X50998Y103500D01*
Y102500D01*
X50498Y102000D01*
X48999D01*
X49998D02*
X50998Y101000D01*
X37502Y127000D02*
X38002Y127499D01*
X39002D01*
X39502Y127000D01*
Y125000D01*
X39002Y124501D01*
X38002D01*
X37502Y125000D01*
Y127000D01*
X40501Y124501D02*
Y125000D01*
X41001D01*
Y124501D01*
X40501D01*
X43000Y127000D02*
X43500Y127499D01*
X44500D01*
X45000Y127000D01*
Y125000D01*
X44500Y124501D01*
X43500D01*
X43000Y125000D01*
Y127000D01*
X45999Y124501D02*
X46999D01*
X46499D01*
Y127499D01*
X45999Y127000D01*
X48499Y124501D02*
Y127499D01*
X49998D01*
X50498Y127000D01*
Y126000D01*
X49998Y125500D01*
X48499D01*
X49498D02*
X50498Y124501D01*
X158754Y136804D02*
X156754D01*
X158754Y138803D01*
Y139303D01*
X158254Y139803D01*
X157254D01*
X156754Y139303D01*
X161752Y136804D02*
X159753D01*
X161752Y138803D01*
Y139303D01*
X161253Y139803D01*
X160253D01*
X159753Y139303D01*
X162752D02*
X163252Y139803D01*
X164252D01*
X164752Y139303D01*
Y137303D01*
X164252Y136804D01*
X163252D01*
X162752Y137303D01*
Y139303D01*
X165751Y136804D02*
Y138803D01*
X167251D01*
X167751Y138303D01*
Y136804D01*
X169250D02*
Y139303D01*
Y138303D01*
X168750D01*
X169750D01*
X169250D01*
Y139303D01*
X169750Y139803D01*
X171249Y136804D02*
X173249Y138803D01*
X176248Y139803D02*
X174249D01*
Y138303D01*
X175248Y138803D01*
X175748D01*
X176248Y138303D01*
Y137303D01*
X175748Y136804D01*
X174748D01*
X174249Y137303D01*
X177248Y139303D02*
X177747Y139803D01*
X178747D01*
X179247Y139303D01*
Y137303D01*
X178747Y136804D01*
X177747D01*
X177248Y137303D01*
Y139303D01*
X180246Y139803D02*
Y137803D01*
X181246Y136804D01*
X182246Y137803D01*
Y139803D01*
X160004Y131000D02*
X161003D01*
X160503D01*
Y134000D01*
X160004Y133500D01*
X162503D02*
X163003Y134000D01*
X164002D01*
X164502Y133500D01*
Y131500D01*
X164002Y131000D01*
X163003D01*
X162503Y131500D01*
Y133500D01*
X165502Y131000D02*
Y133000D01*
X167001D01*
X167501Y132500D01*
Y131000D01*
X169001D02*
Y133500D01*
Y132500D01*
X168501D01*
X169501D01*
X169001D01*
Y133500D01*
X169501Y134000D01*
X171000Y131000D02*
X172999Y133000D01*
X175998Y134000D02*
X173999D01*
Y132500D01*
X174999Y133000D01*
X175499D01*
X175998Y132500D01*
Y131500D01*
X175499Y131000D01*
X174499D01*
X173999Y131500D01*
X176998Y133500D02*
X177498Y134000D01*
X178498D01*
X178997Y133500D01*
Y131500D01*
X178498Y131000D01*
X177498D01*
X176998Y131500D01*
Y133500D01*
X179997Y134000D02*
Y132000D01*
X180997Y131000D01*
X181996Y132000D01*
Y134000D01*
X163003Y126000D02*
X164003D01*
X163503D01*
Y128999D01*
X163003Y128500D01*
X165502Y128000D02*
Y126500D01*
X166002Y126000D01*
X167502D01*
Y128000D01*
X169001Y126000D02*
Y128500D01*
Y127500D01*
X168501D01*
X169501D01*
X169001D01*
Y128500D01*
X169501Y128999D01*
X171001Y126000D02*
X173000Y128000D01*
X175999Y128999D02*
X174000D01*
Y127500D01*
X174999Y128000D01*
X175499D01*
X175999Y127500D01*
Y126500D01*
X175499Y126000D01*
X174499D01*
X174000Y126500D01*
X176999Y128500D02*
X177498Y128999D01*
X178498D01*
X178998Y128500D01*
Y126500D01*
X178498Y126000D01*
X177498D01*
X176999Y126500D01*
Y128500D01*
X179998Y128999D02*
Y127000D01*
X180997Y126000D01*
X181997Y127000D01*
Y128999D01*
X157004Y120501D02*
X158004D01*
X157504D01*
Y123500D01*
X157004Y123000D01*
X159503D02*
X160003Y123500D01*
X161003D01*
X161503Y123000D01*
Y121000D01*
X161003Y120501D01*
X160003D01*
X159503Y121000D01*
Y123000D01*
X162502D02*
X163002Y123500D01*
X164002D01*
X164502Y123000D01*
Y121000D01*
X164002Y120501D01*
X163002D01*
X162502Y121000D01*
Y123000D01*
X165501Y120501D02*
Y122500D01*
X167001D01*
X167501Y122000D01*
Y120501D01*
X169000D02*
Y123000D01*
Y122000D01*
X168500D01*
X169500D01*
X169000D01*
Y123000D01*
X169500Y123500D01*
X171000Y120501D02*
X172999Y122500D01*
X175998Y123500D02*
X173999D01*
Y122000D01*
X174998Y122500D01*
X175498D01*
X175998Y122000D01*
Y121000D01*
X175498Y120501D01*
X174498D01*
X173999Y121000D01*
X176998Y123000D02*
X177497Y123500D01*
X178497D01*
X178997Y123000D01*
Y121000D01*
X178497Y120501D01*
X177497D01*
X176998Y121000D01*
Y123000D01*
X179997Y123500D02*
Y121500D01*
X180996Y120501D01*
X181996Y121500D01*
Y123500D01*
X158503Y150999D02*
Y148001D01*
X160002D01*
X160502Y148500D01*
Y149000D01*
X160002Y149500D01*
X158503D01*
X160002D01*
X160502Y150000D01*
Y150500D01*
X160002Y150999D01*
X158503D01*
X161502Y148001D02*
Y150000D01*
X162502Y150999D01*
X163501Y150000D01*
Y148001D01*
Y149500D01*
X161502D01*
X164501Y150999D02*
X166500D01*
X165500D01*
Y148001D01*
X169499Y150999D02*
X167500D01*
Y149500D01*
X168500Y150000D01*
X168999D01*
X169499Y149500D01*
Y148500D01*
X168999Y148001D01*
X168000D01*
X167500Y148500D01*
X171998Y148001D02*
Y150999D01*
X170499Y149500D01*
X172498D01*
X175497Y150500D02*
X174997Y150999D01*
X173998D01*
X173498Y150500D01*
Y148500D01*
X173998Y148001D01*
X174997D01*
X175497Y148500D01*
X165278Y90873D02*
X166278D01*
X165778D01*
Y93872D01*
X165278Y93372D01*
X167778D02*
X168278Y93872D01*
X169277D01*
X169777Y93372D01*
Y91373D01*
X169277Y90873D01*
X168278D01*
X167778Y91373D01*
Y93372D01*
X170777D02*
X171277Y93872D01*
X172276D01*
X172776Y93372D01*
Y91373D01*
X172276Y90873D01*
X171277D01*
X170777Y91373D01*
Y93372D01*
X173776Y92872D02*
Y91373D01*
X174276Y90873D01*
X175775D01*
Y92872D01*
X177275Y90873D02*
Y93372D01*
Y92372D01*
X176775D01*
X177775D01*
X177275D01*
Y93372D01*
X177775Y93872D01*
X179274Y90873D02*
X181273Y92872D01*
X182273Y93372D02*
X182773Y93872D01*
X183773D01*
X184272Y93372D01*
Y92872D01*
X183773Y92372D01*
X183273D01*
X183773D01*
X184272Y91873D01*
Y91373D01*
X183773Y90873D01*
X182773D01*
X182273Y91373D01*
X187271Y93872D02*
X185272D01*
Y92372D01*
X186272Y92872D01*
X186772D01*
X187271Y92372D01*
Y91373D01*
X186772Y90873D01*
X185772D01*
X185272Y91373D01*
X188271Y93872D02*
Y91873D01*
X189271Y90873D01*
X190270Y91873D01*
Y93872D01*
X37502Y201000D02*
X38002Y201500D01*
X39002D01*
X39502Y201000D01*
Y199000D01*
X39002Y198501D01*
X38002D01*
X37502Y199000D01*
Y201000D01*
X40501Y198501D02*
Y199000D01*
X41001D01*
Y198501D01*
X40501D01*
X43000Y201000D02*
X43500Y201500D01*
X44500D01*
X45000Y201000D01*
Y199000D01*
X44500Y198501D01*
X43500D01*
X43000Y199000D01*
Y201000D01*
X45999Y198501D02*
X46999D01*
X46499D01*
Y201500D01*
X45999Y201000D01*
X48499Y198501D02*
Y201500D01*
X49998D01*
X50498Y201000D01*
Y200000D01*
X49998Y199500D01*
X48499D01*
X49498D02*
X50498Y198501D01*
X38002Y178500D02*
X38502Y178999D01*
X39502D01*
X40001Y178500D01*
Y176500D01*
X39502Y176000D01*
X38502D01*
X38002Y176500D01*
Y178500D01*
X41001Y176000D02*
Y176500D01*
X41501D01*
Y176000D01*
X41001D01*
X43500Y178500D02*
X44000Y178999D01*
X45000D01*
X45500Y178500D01*
Y176500D01*
X45000Y176000D01*
X44000D01*
X43500Y176500D01*
Y178500D01*
X46499Y176000D02*
X47499D01*
X46999D01*
Y178999D01*
X46499Y178500D01*
X48999Y176000D02*
Y178999D01*
X50498D01*
X50998Y178500D01*
Y177500D01*
X50498Y177000D01*
X48999D01*
X49998D02*
X50998Y176000D01*
X158751Y115500D02*
Y118500D01*
X157252Y117000D01*
X159251D01*
X160251Y115500D02*
Y116000D01*
X160751D01*
Y115500D01*
X160251D01*
X162750Y118500D02*
X164749D01*
Y118000D01*
X162750Y116000D01*
Y115500D01*
X165749Y118500D02*
Y115500D01*
Y116500D01*
X167748Y118500D01*
X166249Y117000D01*
X167748Y115500D01*
X159251Y190000D02*
Y192999D01*
X157752Y191500D01*
X159751D01*
X160751Y190000D02*
Y190500D01*
X161251D01*
Y190000D01*
X160751D01*
X163250Y192999D02*
X165249D01*
Y192500D01*
X163250Y190500D01*
Y190000D01*
X166249Y192999D02*
Y190000D01*
Y191000D01*
X168248Y192999D01*
X166749Y191500D01*
X168248Y190000D01*
X166251Y23501D02*
X167250D01*
X166751D01*
Y26500D01*
X166251Y26000D01*
X168750Y26500D02*
Y23501D01*
Y24500D01*
X170749Y26500D01*
X169250Y25000D01*
X170749Y23501D01*
X135502Y78500D02*
X136002Y79000D01*
X137001D01*
X137501Y78500D01*
Y78000D01*
X137001Y77500D01*
X136502D01*
X137001D01*
X137501Y77000D01*
Y76500D01*
X137001Y76000D01*
X136002D01*
X135502Y76500D01*
X138501Y78500D02*
X139001Y79000D01*
X140000D01*
X140500Y78500D01*
Y78000D01*
X140000Y77500D01*
X139500D01*
X140000D01*
X140500Y77000D01*
Y76500D01*
X140000Y76000D01*
X139001D01*
X138501Y76500D01*
X141500Y78000D02*
Y76500D01*
X142000Y76000D01*
X143499D01*
Y78000D01*
X144499Y79000D02*
Y76000D01*
Y77500D01*
X146498D01*
Y79000D01*
Y76000D01*
X165504Y166000D02*
X166504D01*
X166004D01*
Y169000D01*
X165504Y168500D01*
X168003D02*
X168503Y169000D01*
X169503D01*
X170003Y168500D01*
Y166500D01*
X169503Y166000D01*
X168503D01*
X168003Y166500D01*
Y168500D01*
X171002D02*
X171502Y169000D01*
X172502D01*
X173002Y168500D01*
Y166500D01*
X172502Y166000D01*
X171502D01*
X171002Y166500D01*
Y168500D01*
X174001Y168000D02*
Y166500D01*
X174501Y166000D01*
X176001D01*
Y168000D01*
X177500Y166000D02*
Y168500D01*
Y167500D01*
X177000D01*
X178000D01*
X177500D01*
Y168500D01*
X178000Y169000D01*
X179499Y166000D02*
X181499Y168000D01*
X182499Y168500D02*
X182998Y169000D01*
X183998D01*
X184498Y168500D01*
Y168000D01*
X183998Y167500D01*
X183498D01*
X183998D01*
X184498Y167000D01*
Y166500D01*
X183998Y166000D01*
X182998D01*
X182499Y166500D01*
X187497Y169000D02*
X185498D01*
Y167500D01*
X186497Y168000D01*
X186997D01*
X187497Y167500D01*
Y166500D01*
X186997Y166000D01*
X185997D01*
X185498Y166500D01*
X188497Y169000D02*
Y167000D01*
X189496Y166000D01*
X190496Y167000D01*
Y169000D01*
X77254Y46000D02*
X76254Y45500D01*
X75254Y44500D01*
Y43500D01*
X75754Y43001D01*
X76754D01*
X77254Y43500D01*
Y44000D01*
X76754Y44500D01*
X75254D01*
X78253Y45500D02*
X78753Y46000D01*
X79753D01*
X80252Y45500D01*
Y45000D01*
X79753Y44500D01*
X80252Y44000D01*
Y43500D01*
X79753Y43001D01*
X78753D01*
X78253Y43500D01*
Y44000D01*
X78753Y44500D01*
X78253Y45000D01*
Y45500D01*
X78753Y44500D02*
X79753D01*
X81252Y45500D02*
X81752Y46000D01*
X82752D01*
X83252Y45500D01*
Y43500D01*
X82752Y43001D01*
X81752D01*
X81252Y43500D01*
Y45500D01*
X84251Y45000D02*
Y43500D01*
X84751Y43001D01*
X86251D01*
Y45000D01*
X87750Y43001D02*
Y45500D01*
Y44500D01*
X87250D01*
X88250D01*
X87750D01*
Y45500D01*
X88250Y46000D01*
X89749Y43001D02*
X91749Y45000D01*
X92748Y45500D02*
X93248Y46000D01*
X94248D01*
X94748Y45500D01*
Y45000D01*
X94248Y44500D01*
X93748D01*
X94248D01*
X94748Y44000D01*
Y43500D01*
X94248Y43001D01*
X93248D01*
X92748Y43500D01*
X97747Y46000D02*
X95748D01*
Y44500D01*
X96747Y45000D01*
X97247D01*
X97747Y44500D01*
Y43500D01*
X97247Y43001D01*
X96247D01*
X95748Y43500D01*
X98747Y46000D02*
Y44000D01*
X99746Y43001D01*
X100746Y44000D01*
Y46000D01*
X167503Y73501D02*
X165504D01*
X167503Y75500D01*
Y76000D01*
X167004Y76499D01*
X166004D01*
X165504Y76000D01*
X170502Y73501D02*
X168503D01*
X170502Y75500D01*
Y76000D01*
X170003Y76499D01*
X169003D01*
X168503Y76000D01*
X171502D02*
X172002Y76499D01*
X173002D01*
X173502Y76000D01*
Y74000D01*
X173002Y73501D01*
X172002D01*
X171502Y74000D01*
Y76000D01*
X174501Y75500D02*
Y74000D01*
X175001Y73501D01*
X176500D01*
Y75500D01*
X178000Y73501D02*
Y76000D01*
Y75000D01*
X177500D01*
X178500D01*
X178000D01*
Y76000D01*
X178500Y76499D01*
X179999Y73501D02*
X181999Y75500D01*
X182998Y73501D02*
X183998D01*
X183498D01*
Y76499D01*
X182998Y76000D01*
X187497Y76499D02*
X186497Y76000D01*
X185498Y75000D01*
Y74000D01*
X185997Y73501D01*
X186997D01*
X187497Y74000D01*
Y74500D01*
X186997Y75000D01*
X185498D01*
X188497Y76499D02*
Y74500D01*
X189496Y73501D01*
X190496Y74500D01*
Y76499D01*
X159003Y226500D02*
Y223500D01*
X160502D01*
X161002Y224000D01*
Y224500D01*
X160502Y225000D01*
X159003D01*
X160502D01*
X161002Y225500D01*
Y226000D01*
X160502Y226500D01*
X159003D01*
X162002Y223500D02*
Y225500D01*
X163002Y226500D01*
X164001Y225500D01*
Y223500D01*
Y225000D01*
X162002D01*
X165001Y226500D02*
X167000D01*
X166000D01*
Y223500D01*
X169999Y226500D02*
X168000D01*
Y225000D01*
X169000Y225500D01*
X169499D01*
X169999Y225000D01*
Y224000D01*
X169499Y223500D01*
X168500D01*
X168000Y224000D01*
X172498Y223500D02*
Y226500D01*
X170999Y225000D01*
X172998D01*
X175997Y226000D02*
X175497Y226500D01*
X174498D01*
X173998Y226000D01*
Y224000D01*
X174498Y223500D01*
X175497D01*
X175997Y224000D01*
X106001Y85000D02*
X105501Y85500D01*
X104502D01*
X104002Y85000D01*
Y84500D01*
X104502Y84000D01*
X105501D01*
X106001Y83500D01*
Y83000D01*
X105501Y82500D01*
X104502D01*
X104002Y83000D01*
X109000Y85000D02*
X108500Y85500D01*
X107501D01*
X107001Y85000D01*
Y84500D01*
X107501Y84000D01*
X108500D01*
X109000Y83500D01*
Y83000D01*
X108500Y82500D01*
X107501D01*
X107001Y83000D01*
X111999Y85500D02*
X110000D01*
Y84000D01*
X111000Y84500D01*
X111499D01*
X111999Y84000D01*
Y83000D01*
X111499Y82500D01*
X110500D01*
X110000Y83000D01*
X114498Y82500D02*
Y85500D01*
X112999Y84000D01*
X114998D01*
X5754Y214500D02*
X6254Y215000D01*
X7254D01*
X7753Y214500D01*
Y212500D01*
X7254Y212000D01*
X6254D01*
X5754Y212500D01*
Y214500D01*
X8753Y212000D02*
Y212500D01*
X9253D01*
Y212000D01*
X8753D01*
X11252D02*
X12252D01*
X11752D01*
Y215000D01*
X11252Y214500D01*
X13751Y214000D02*
Y212500D01*
X14251Y212000D01*
X15751D01*
Y214000D01*
X17250Y212000D02*
Y214500D01*
Y213500D01*
X16750D01*
X17750D01*
X17250D01*
Y214500D01*
X17750Y215000D01*
X19250Y212000D02*
X21249Y214000D01*
X24248Y215000D02*
X22249D01*
Y213500D01*
X23248Y214000D01*
X23748D01*
X24248Y213500D01*
Y212500D01*
X23748Y212000D01*
X22749D01*
X22249Y212500D01*
X25248Y214500D02*
X25747Y215000D01*
X26747D01*
X27247Y214500D01*
Y212500D01*
X26747Y212000D01*
X25747D01*
X25248Y212500D01*
Y214500D01*
X28247Y215000D02*
Y213000D01*
X29246Y212000D01*
X30246Y213000D01*
Y215000D01*
X5254Y208000D02*
X5754Y208500D01*
X6753D01*
X7253Y208000D01*
Y206000D01*
X6753Y205501D01*
X5754D01*
X5254Y206000D01*
Y208000D01*
X8253Y205501D02*
Y206000D01*
X8753D01*
Y205501D01*
X8253D01*
X10752D02*
X11752D01*
X11252D01*
Y208500D01*
X10752Y208000D01*
X13251Y207500D02*
Y206000D01*
X13751Y205501D01*
X15251D01*
Y207500D01*
X16750Y205501D02*
Y208000D01*
Y207000D01*
X16250D01*
X17250D01*
X16750D01*
Y208000D01*
X17250Y208500D01*
X18750Y205501D02*
X20749Y207500D01*
X23748Y208500D02*
X21749D01*
Y207000D01*
X22748Y207500D01*
X23248D01*
X23748Y207000D01*
Y206000D01*
X23248Y205501D01*
X22249D01*
X21749Y206000D01*
X24748Y208000D02*
X25247Y208500D01*
X26247D01*
X26747Y208000D01*
Y206000D01*
X26247Y205501D01*
X25247D01*
X24748Y206000D01*
Y208000D01*
X27747Y208500D02*
Y206500D01*
X28746Y205501D01*
X29746Y206500D01*
Y208500D01*
X156004Y195501D02*
X157004D01*
X156504D01*
Y198500D01*
X156004Y198000D01*
X158503D02*
X159003Y198500D01*
X160003D01*
X160503Y198000D01*
Y196000D01*
X160003Y195501D01*
X159003D01*
X158503Y196000D01*
Y198000D01*
X161502D02*
X162002Y198500D01*
X163002D01*
X163502Y198000D01*
Y196000D01*
X163002Y195501D01*
X162002D01*
X161502Y196000D01*
Y198000D01*
X164501Y195501D02*
Y197500D01*
X166001D01*
X166501Y197000D01*
Y195501D01*
X168000D02*
Y198000D01*
Y197000D01*
X167500D01*
X168500D01*
X168000D01*
Y198000D01*
X168500Y198500D01*
X170000Y195501D02*
X171999Y197500D01*
X174998Y198500D02*
X172999D01*
Y197000D01*
X173998Y197500D01*
X174498D01*
X174998Y197000D01*
Y196000D01*
X174498Y195501D01*
X173498D01*
X172999Y196000D01*
X175998Y198000D02*
X176497Y198500D01*
X177497D01*
X177997Y198000D01*
Y196000D01*
X177497Y195501D01*
X176497D01*
X175998Y196000D01*
Y198000D01*
X178997Y198500D02*
Y196500D01*
X179996Y195501D01*
X180996Y196500D01*
Y198500D01*
X162003Y200500D02*
X163003D01*
X162503D01*
Y203500D01*
X162003Y203000D01*
X164502Y202500D02*
Y201000D01*
X165002Y200500D01*
X166502D01*
Y202500D01*
X168001Y200500D02*
Y203000D01*
Y202000D01*
X167501D01*
X168501D01*
X168001D01*
Y203000D01*
X168501Y203500D01*
X170001Y200500D02*
X172000Y202500D01*
X174999Y203500D02*
X173000D01*
Y202000D01*
X173999Y202500D01*
X174499D01*
X174999Y202000D01*
Y201000D01*
X174499Y200500D01*
X173499D01*
X173000Y201000D01*
X175999Y203000D02*
X176498Y203500D01*
X177498D01*
X177998Y203000D01*
Y201000D01*
X177498Y200500D01*
X176498D01*
X175999Y201000D01*
Y203000D01*
X178998Y203500D02*
Y201500D01*
X179997Y200500D01*
X180997Y201500D01*
Y203500D01*
X159004Y205501D02*
X160003D01*
X159503D01*
Y208500D01*
X159004Y208000D01*
X161503D02*
X162003Y208500D01*
X163002D01*
X163502Y208000D01*
Y206000D01*
X163002Y205501D01*
X162003D01*
X161503Y206000D01*
Y208000D01*
X164502Y205501D02*
Y207500D01*
X166001D01*
X166501Y207000D01*
Y205501D01*
X168001D02*
Y208000D01*
Y207000D01*
X167501D01*
X168500D01*
X168001D01*
Y208000D01*
X168500Y208500D01*
X170000Y205501D02*
X171999Y207500D01*
X174998Y208500D02*
X172999D01*
Y207000D01*
X173999Y207500D01*
X174499D01*
X174998Y207000D01*
Y206000D01*
X174499Y205501D01*
X173499D01*
X172999Y206000D01*
X175998Y208000D02*
X176498Y208500D01*
X177498D01*
X177997Y208000D01*
Y206000D01*
X177498Y205501D01*
X176498D01*
X175998Y206000D01*
Y208000D01*
X178997Y208500D02*
Y206500D01*
X179997Y205501D01*
X180996Y206500D01*
Y208500D01*
X157754Y211000D02*
X155754D01*
X157754Y213000D01*
Y213500D01*
X157254Y214000D01*
X156254D01*
X155754Y213500D01*
X160752Y211000D02*
X158753D01*
X160752Y213000D01*
Y213500D01*
X160253Y214000D01*
X159253D01*
X158753Y213500D01*
X161752D02*
X162252Y214000D01*
X163252D01*
X163751Y213500D01*
Y211500D01*
X163252Y211000D01*
X162252D01*
X161752Y211500D01*
Y213500D01*
X164751Y211000D02*
Y213000D01*
X166251D01*
X166751Y212500D01*
Y211000D01*
X168250D02*
Y213500D01*
Y212500D01*
X167750D01*
X168750D01*
X168250D01*
Y213500D01*
X168750Y214000D01*
X170249Y211000D02*
X172249Y213000D01*
X175248Y214000D02*
X173249D01*
Y212500D01*
X174248Y213000D01*
X174748D01*
X175248Y212500D01*
Y211500D01*
X174748Y211000D01*
X173748D01*
X173249Y211500D01*
X176248Y213500D02*
X176747Y214000D01*
X177747D01*
X178247Y213500D01*
Y211500D01*
X177747Y211000D01*
X176747D01*
X176248Y211500D01*
Y213500D01*
X179246Y214000D02*
Y212000D01*
X180246Y211000D01*
X181246Y212000D01*
Y214000D01*
X124999Y-9247D02*
Y-11246D01*
X123000Y-9247D01*
X122500D01*
X122001Y-9747D01*
Y-10746D01*
X122500Y-11246D01*
X124999Y-6248D02*
Y-8247D01*
X123000Y-6248D01*
X122500D01*
X122001Y-6748D01*
Y-7747D01*
X122500Y-8247D01*
X123000Y-5248D02*
X124500D01*
X124999Y-4749D01*
Y-3249D01*
X123000D01*
X124999Y-1749D02*
X122500D01*
X123500D01*
Y-2249D01*
Y-1250D01*
Y-1749D01*
X122500D01*
X122001Y-1250D01*
X124999Y250D02*
X123000Y2249D01*
X122001Y5248D02*
Y3249D01*
X123500D01*
X123000Y4249D01*
Y4749D01*
X123500Y5248D01*
X124500D01*
X124999Y4749D01*
Y3749D01*
X124500Y3249D01*
X122500Y6248D02*
X122001Y6748D01*
Y7747D01*
X122500Y8247D01*
X124500D01*
X124999Y7747D01*
Y6748D01*
X124500Y6248D01*
X122500D01*
X122001Y9247D02*
X124000D01*
X124999Y10247D01*
X124000Y11246D01*
X122001D01*
X136000Y1754D02*
X135501Y2254D01*
Y3254D01*
X136000Y3753D01*
X138000D01*
X138499Y3254D01*
Y2254D01*
X138000Y1754D01*
X136000D01*
X138499Y4753D02*
X138000D01*
Y5253D01*
X138499D01*
Y4753D01*
Y7252D02*
Y8252D01*
Y7752D01*
X135501D01*
X136000Y7252D01*
X136500Y9751D02*
X138000D01*
X138499Y10251D01*
Y11751D01*
X136500D01*
X138499Y13250D02*
X136000D01*
X137000D01*
Y12750D01*
Y13750D01*
Y13250D01*
X136000D01*
X135501Y13750D01*
X138499Y15250D02*
X136500Y17249D01*
X135501Y20248D02*
Y18249D01*
X137000D01*
X136500Y19248D01*
Y19748D01*
X137000Y20248D01*
X138000D01*
X138499Y19748D01*
Y18748D01*
X138000Y18249D01*
X136000Y21248D02*
X135501Y21747D01*
Y22747D01*
X136000Y23247D01*
X138000D01*
X138499Y22747D01*
Y21747D01*
X138000Y21248D01*
X136000D01*
X135501Y24247D02*
X137500D01*
X138499Y25246D01*
X137500Y26246D01*
X135501D01*
X145000Y1754D02*
X144501Y2254D01*
Y3254D01*
X145000Y3753D01*
X147000D01*
X147500Y3254D01*
Y2254D01*
X147000Y1754D01*
X145000D01*
X147500Y4753D02*
X147000D01*
Y5253D01*
X147500D01*
Y4753D01*
Y7252D02*
Y8252D01*
Y7752D01*
X144501D01*
X145000Y7252D01*
X145500Y9751D02*
X147000D01*
X147500Y10251D01*
Y11751D01*
X145500D01*
X147500Y13250D02*
X145000D01*
X146000D01*
Y12750D01*
Y13750D01*
Y13250D01*
X145000D01*
X144501Y13750D01*
X147500Y15250D02*
X145500Y17249D01*
X144501Y20248D02*
Y18249D01*
X146000D01*
X145500Y19248D01*
Y19748D01*
X146000Y20248D01*
X147000D01*
X147500Y19748D01*
Y18748D01*
X147000Y18249D01*
X145000Y21248D02*
X144501Y21747D01*
Y22747D01*
X145000Y23247D01*
X147000D01*
X147500Y22747D01*
Y21747D01*
X147000Y21248D01*
X145000D01*
X144501Y24247D02*
X146500D01*
X147500Y25246D01*
X146500Y26246D01*
X144501D01*
X160500Y-10247D02*
Y-12246D01*
X158500Y-10247D01*
X158000D01*
X157501Y-10747D01*
Y-11746D01*
X158000Y-12246D01*
X160500Y-7248D02*
Y-9247D01*
X158500Y-7248D01*
X158000D01*
X157501Y-7748D01*
Y-8748D01*
X158000Y-9247D01*
X158500Y-6248D02*
X160000D01*
X160500Y-5748D01*
Y-4249D01*
X158500D01*
X160500Y-2749D02*
X158000D01*
X159000D01*
Y-3249D01*
Y-2250D01*
Y-2749D01*
X158000D01*
X157501Y-2250D01*
X160500Y-750D02*
X158500Y1249D01*
X157501Y4248D02*
Y2249D01*
X159000D01*
X158500Y3249D01*
Y3748D01*
X159000Y4248D01*
X160000D01*
X160500Y3748D01*
Y2749D01*
X160000Y2249D01*
X158000Y5248D02*
X157501Y5748D01*
Y6747D01*
X158000Y7247D01*
X160000D01*
X160500Y6747D01*
Y5748D01*
X160000Y5248D01*
X158000D01*
X157501Y8247D02*
X159500D01*
X160500Y9247D01*
X159500Y10246D01*
X157501D01*
D15*
X148547Y136600D02*
Y138400D01*
X148247Y137500D02*
X148547D01*
X148847D01*
X148547Y131600D02*
Y133400D01*
X148247Y132500D02*
X148547D01*
X148847D01*
X148547Y126600D02*
Y128400D01*
Y127500D02*
X148847D01*
X148247D02*
X148547D01*
Y121600D02*
Y123400D01*
Y122500D02*
X148847D01*
X148247D02*
X148547D01*
X136311Y87484D02*
X138673D01*
X137508Y86287D02*
Y88665D01*
X136500Y162083D02*
X138862D01*
X137697Y160886D02*
Y163264D01*
X148547Y196198D02*
Y197998D01*
Y197098D02*
X148847D01*
X148247D02*
X148547D01*
Y201198D02*
Y202998D01*
Y202098D02*
X148847D01*
X148247D02*
X148547D01*
Y206198D02*
Y207998D01*
X148247Y207098D02*
X148547D01*
X148847D01*
X148547Y211198D02*
Y212998D01*
X148247Y212098D02*
X148547D01*
X148847D01*
X21600Y224098D02*
X23400D01*
X22500Y223798D02*
Y224098D01*
Y224398D01*
X21600Y198098D02*
X23400D01*
X22500Y197798D02*
Y198098D01*
Y198398D01*
X21600Y123500D02*
X23400D01*
X22500Y123200D02*
Y123500D01*
Y123800D01*
X21600Y149500D02*
X23400D01*
X22500Y149200D02*
Y149500D01*
Y149800D01*
X144600Y-5500D02*
X146400D01*
X145500Y-5800D02*
Y-5500D01*
Y-5200D01*
X151600Y-5500D02*
X153400D01*
X152500Y-5800D02*
Y-5500D01*
Y-5200D01*
X137600Y-5500D02*
X139400D01*
X138500Y-5800D02*
Y-5500D01*
Y-5200D01*
X130600Y-5500D02*
X132400D01*
X131500Y-5800D02*
Y-5500D01*
Y-5200D01*
X166484Y69638D02*
Y72000D01*
X165287Y70803D02*
X167665D01*
D16*
X111984Y1720D02*
Y28886D01*
X60016Y-10484D02*
X99779D01*
Y41091D02*
X111984Y28886D01*
X60016Y41091D02*
X99779D01*
Y-10484D02*
X111984Y1720D01*
X60016Y-10484D02*
Y41091D01*
D17*
X76323Y93701D02*
Y100197D01*
Y93701D02*
X91087D01*
X104866D02*
X119630D01*
Y100197D01*
X76323Y149803D02*
Y156299D01*
X90890D01*
X104866D02*
X119630D01*
Y149803D02*
Y156299D01*
X76323Y168201D02*
Y174697D01*
Y168201D02*
X91087D01*
X104866D02*
X119630D01*
Y174697D01*
X76323Y224303D02*
Y230799D01*
X90890D01*
X104866D02*
X119630D01*
Y224303D02*
Y230799D01*
M02*
