G04*
G04 #@! TF.GenerationSoftware,Altium Limited,Altium Designer,21.5.1 (32)*
G04*
G04 Layer_Color=8388736*
%FSLAX25Y25*%
%MOIN*%
G70*
G04*
G04 #@! TF.SameCoordinates,284D3306-149B-414E-9BCD-756616796F5B*
G04*
G04*
G04 #@! TF.FilePolarity,Negative*
G04*
G01*
G75*
G04:AMPARAMS|DCode=23|XSize=59.06mil|YSize=17.72mil|CornerRadius=1.95mil|HoleSize=0mil|Usage=FLASHONLY|Rotation=180.000|XOffset=0mil|YOffset=0mil|HoleType=Round|Shape=RoundedRectangle|*
%AMROUNDEDRECTD23*
21,1,0.05906,0.01382,0,0,180.0*
21,1,0.05516,0.01772,0,0,180.0*
1,1,0.00390,-0.02758,0.00691*
1,1,0.00390,0.02758,0.00691*
1,1,0.00390,0.02758,-0.00691*
1,1,0.00390,-0.02758,-0.00691*
%
%ADD23ROUNDEDRECTD23*%
%ADD37R,0.03600X0.03600*%
%ADD38O,0.11230X0.04537*%
%ADD39R,0.11230X0.04537*%
%ADD40R,0.04100X0.05600*%
%ADD41R,0.03600X0.03600*%
%ADD42R,0.07490X0.09261*%
%ADD43R,0.19498X0.06112*%
%ADD44O,0.19498X0.06112*%
%ADD45O,0.04537X0.11230*%
%ADD46R,0.04537X0.11230*%
%ADD47R,0.08474X0.08474*%
%ADD48R,0.02962X0.05718*%
%ADD49R,0.24222X0.38395*%
G04:AMPARAMS|DCode=50|XSize=84.35mil|YSize=30.8mil|CornerRadius=4.98mil|HoleSize=0mil|Usage=FLASHONLY|Rotation=0.000|XOffset=0mil|YOffset=0mil|HoleType=Round|Shape=RoundedRectangle|*
%AMROUNDEDRECTD50*
21,1,0.08435,0.02084,0,0,0.0*
21,1,0.07438,0.03080,0,0,0.0*
1,1,0.00997,0.03719,-0.01042*
1,1,0.00997,-0.03719,-0.01042*
1,1,0.00997,-0.03719,0.01042*
1,1,0.00997,0.03719,0.01042*
%
%ADD50ROUNDEDRECTD50*%
%ADD51R,0.12017X0.16348*%
%ADD52R,0.39970X0.41742*%
%ADD53R,0.13198X0.04734*%
%ADD54R,0.13198X0.08868*%
%ADD55R,0.04143X0.08868*%
%ADD56P,0.03897X8X22.5*%
%ADD57C,0.10443*%
%ADD58R,0.06899X0.06899*%
%ADD59C,0.06899*%
%ADD60C,0.00600*%
%ADD61R,0.09655X0.09655*%
%ADD62C,0.09655*%
D23*
X55417Y119563D02*
D03*
Y122122D02*
D03*
Y124681D02*
D03*
Y127240D02*
D03*
X32583D02*
D03*
Y124681D02*
D03*
Y122122D02*
D03*
Y119563D02*
D03*
X55417Y145563D02*
D03*
Y148122D02*
D03*
Y150681D02*
D03*
Y153240D02*
D03*
X32583D02*
D03*
Y150681D02*
D03*
Y148122D02*
D03*
Y145563D02*
D03*
X55417Y194161D02*
D03*
Y196721D02*
D03*
Y199279D02*
D03*
Y201839D02*
D03*
X32583D02*
D03*
Y199279D02*
D03*
Y196721D02*
D03*
Y194161D02*
D03*
Y220161D02*
D03*
Y222721D02*
D03*
Y225279D02*
D03*
Y227839D02*
D03*
X55417D02*
D03*
Y225279D02*
D03*
Y222721D02*
D03*
Y220161D02*
D03*
D37*
X151106Y137500D02*
D03*
X145988D02*
D03*
X151106Y132500D02*
D03*
X145988D02*
D03*
X145989Y127500D02*
D03*
X151107D02*
D03*
X145989Y122500D02*
D03*
X151107D02*
D03*
Y117500D02*
D03*
X145989D02*
D03*
X151107Y192098D02*
D03*
X145989D02*
D03*
Y197099D02*
D03*
X151107D02*
D03*
X145989Y202099D02*
D03*
X151107D02*
D03*
X151106Y207098D02*
D03*
X145988D02*
D03*
X151106Y212098D02*
D03*
X145988D02*
D03*
X170559Y19000D02*
D03*
X165441D02*
D03*
X178441Y19000D02*
D03*
X178500Y32000D02*
D03*
X183500D02*
D03*
X173500D02*
D03*
D38*
X161622Y99000D02*
D03*
X161811Y173598D02*
D03*
D39*
X138000Y99000D02*
D03*
X138189Y173598D02*
D03*
D40*
X48241Y210500D02*
D03*
X40760D02*
D03*
X48241Y184500D02*
D03*
X40760D02*
D03*
X48241Y109902D02*
D03*
X40760D02*
D03*
X48241Y135902D02*
D03*
X40760D02*
D03*
D41*
X22500Y226657D02*
D03*
Y221539D02*
D03*
Y200657D02*
D03*
Y195539D02*
D03*
Y126059D02*
D03*
Y120941D02*
D03*
Y152059D02*
D03*
Y146941D02*
D03*
X145500Y-2941D02*
D03*
Y-8059D02*
D03*
X152500Y-2941D02*
D03*
Y-8059D02*
D03*
X138500Y-2941D02*
D03*
Y-8059D02*
D03*
X131500Y-2941D02*
D03*
Y-8059D02*
D03*
D42*
X109000Y77055D02*
D03*
Y58945D02*
D03*
D43*
X111000Y15500D02*
D03*
D44*
X61000D02*
D03*
D45*
X178000Y46689D02*
D03*
D46*
Y70311D02*
D03*
D47*
X126000Y59000D02*
D03*
X156000D02*
D03*
D48*
X148500Y145866D02*
D03*
X144760Y154134D02*
D03*
X152240D02*
D03*
X148500Y220366D02*
D03*
X144760Y228634D02*
D03*
X152240D02*
D03*
D49*
X97976Y125000D02*
D03*
Y199500D02*
D03*
D50*
X71953Y147500D02*
D03*
Y142500D02*
D03*
Y137500D02*
D03*
Y132500D02*
D03*
Y127500D02*
D03*
Y122500D02*
D03*
Y117500D02*
D03*
Y112500D02*
D03*
Y107500D02*
D03*
Y102500D02*
D03*
X124000D02*
D03*
Y107500D02*
D03*
Y112500D02*
D03*
Y117500D02*
D03*
Y122500D02*
D03*
Y127500D02*
D03*
Y132500D02*
D03*
Y137500D02*
D03*
Y142500D02*
D03*
Y147500D02*
D03*
X71953Y222000D02*
D03*
Y217000D02*
D03*
Y212000D02*
D03*
Y207000D02*
D03*
Y202000D02*
D03*
Y197000D02*
D03*
Y192000D02*
D03*
Y187000D02*
D03*
Y182000D02*
D03*
Y177000D02*
D03*
X124000D02*
D03*
Y182000D02*
D03*
Y187000D02*
D03*
Y192000D02*
D03*
Y197000D02*
D03*
Y202000D02*
D03*
Y207000D02*
D03*
Y212000D02*
D03*
Y217000D02*
D03*
Y222000D02*
D03*
D51*
X97976Y150098D02*
D03*
Y99902D02*
D03*
Y224598D02*
D03*
Y174402D02*
D03*
D52*
X45000Y67000D02*
D03*
D53*
X85000Y80386D02*
D03*
Y73693D02*
D03*
Y67000D02*
D03*
Y60307D02*
D03*
Y53614D02*
D03*
D54*
X142000Y32221D02*
D03*
D55*
X151055Y9780D02*
D03*
X142000D02*
D03*
X132945D02*
D03*
D56*
X184559Y19000D02*
D03*
D57*
X36500Y34004D02*
D03*
Y15500D02*
D03*
Y-3004D02*
D03*
D58*
X174500Y204000D02*
D03*
D59*
X184500D02*
D03*
X174500Y194000D02*
D03*
X184500D02*
D03*
X174500Y184000D02*
D03*
X184500D02*
D03*
X174500Y174000D02*
D03*
X184500D02*
D03*
X174500Y164000D02*
D03*
X184500D02*
D03*
X174500Y154000D02*
D03*
X184500D02*
D03*
X174500Y144000D02*
D03*
X184500D02*
D03*
X174500Y134000D02*
D03*
X184500D02*
D03*
X174500Y124000D02*
D03*
X184500D02*
D03*
X174500Y114000D02*
D03*
X184500D02*
D03*
X174500Y104000D02*
D03*
X184500D02*
D03*
X174500Y94000D02*
D03*
X184500D02*
D03*
D60*
X179000Y0D02*
D03*
X0Y226000D02*
D03*
X179000D02*
D03*
X0Y0D02*
D03*
D61*
X-3000Y121500D02*
D03*
Y198370D02*
D03*
Y46500D02*
D03*
D62*
Y101815D02*
D03*
Y82130D02*
D03*
Y178685D02*
D03*
Y159000D02*
D03*
Y26500D02*
D03*
M02*
